solid Default
  facet normal 0.000000e+00 -1.000000e+00 0.000000e+00
    outer loop
      vertex 2.800000e+01 -5.800000e+01 0.000000e+00
      vertex 2.800000e+01 -5.800000e+01 9.002000e+00
      vertex 1.100000e+01 -5.800000e+01 0.000000e+00
    endloop
  endfacet
  facet normal 0.000000e+00 -1.000000e+00 0.000000e+00
    outer loop
      vertex 1.100000e+01 -5.800000e+01 9.002000e+00
      vertex 1.100000e+01 -5.800000e+01 0.000000e+00
      vertex 2.800000e+01 -5.800000e+01 9.002000e+00
    endloop
  endfacet
  facet normal 7.071068e-01 -7.071068e-01 0.000000e+00
    outer loop
      vertex 1.824900e+01 -4.983200e+01 0.000000e+00
      vertex 1.824900e+01 -4.983200e+01 9.002000e+00
      vertex 1.733200e+01 -5.074900e+01 9.002000e+00
    endloop
  endfacet
  facet normal 7.071068e-01 -7.071068e-01 0.000000e+00
    outer loop
      vertex 1.824900e+01 -4.983200e+01 0.000000e+00
      vertex 1.733200e+01 -5.074900e+01 9.002000e+00
      vertex 1.733200e+01 -5.074900e+01 0.000000e+00
    endloop
  endfacet
  facet normal 9.659653e-01 -2.586718e-01 0.000000e+00
    outer loop
      vertex 1.733200e+01 -5.074900e+01 0.000000e+00
      vertex 1.733200e+01 -5.074900e+01 9.002000e+00
      vertex 1.699700e+01 -5.200000e+01 9.002000e+00
    endloop
  endfacet
  facet normal 9.659653e-01 -2.586718e-01 0.000000e+00
    outer loop
      vertex 1.733200e+01 -5.074900e+01 0.000000e+00
      vertex 1.699700e+01 -5.200000e+01 9.002000e+00
      vertex 1.699700e+01 -5.200000e+01 0.000000e+00
    endloop
  endfacet
  facet normal 1.000000e+00 0.000000e+00 0.000000e+00
    outer loop
      vertex 2.900000e+01 -3.093900e+01 4.238000e+00
      vertex 2.900000e+01 -4.600100e+01 1.000000e-03
      vertex 2.900000e+01 -2.850000e+01 3.998000e+00
    endloop
  endfacet
  facet normal 9.660169e-01 2.584790e-01 0.000000e+00
    outer loop
      vertex 1.733200e+01 -5.325200e+01 9.002000e+00
      vertex 1.733200e+01 -5.325200e+01 0.000000e+00
      vertex 1.699700e+01 -5.200000e+01 0.000000e+00
    endloop
  endfacet
  facet normal 9.660169e-01 2.584790e-01 0.000000e+00
    outer loop
      vertex 1.733200e+01 -5.325200e+01 9.002000e+00
      vertex 1.699700e+01 -5.200000e+01 0.000000e+00
      vertex 1.699700e+01 -5.200000e+01 9.002000e+00
    endloop
  endfacet
  facet normal 1.000000e+00 0.000000e+00 0.000000e+00
    outer loop
      vertex 2.900000e+01 -4.100300e+01 1.650100e+01
      vertex 2.900000e+01 -4.600100e+01 3.200200e+01
      vertex 2.900000e+01 -4.600100e+01 1.000000e-03
    endloop
  endfacet
  facet normal 7.067209e-01 7.074925e-01 0.000000e+00
    outer loop
      vertex 1.824900e+01 -5.416800e+01 9.002000e+00
      vertex 1.824900e+01 -5.416800e+01 0.000000e+00
      vertex 1.733200e+01 -5.325200e+01 0.000000e+00
    endloop
  endfacet
  facet normal 7.067209e-01 7.074925e-01 0.000000e+00
    outer loop
      vertex 1.824900e+01 -5.416800e+01 9.002000e+00
      vertex 1.733200e+01 -5.325200e+01 0.000000e+00
      vertex 1.733200e+01 -5.325200e+01 9.002000e+00
    endloop
  endfacet
  facet normal 0.000000e+00 0.000000e+00 1.000000e+00
    outer loop
      vertex 2.900000e+01 -1.300000e+01 3.200200e+01
      vertex 9.000000e+00 -4.600100e+01 3.200200e+01
      vertex 2.900000e+01 -4.600100e+01 3.200200e+01
    endloop
  endfacet
  facet normal 2.586718e-01 9.659653e-01 0.000000e+00
    outer loop
      vertex 1.950000e+01 -5.450300e+01 9.002000e+00
      vertex 1.950000e+01 -5.450300e+01 0.000000e+00
      vertex 1.824900e+01 -5.416800e+01 0.000000e+00
    endloop
  endfacet
  facet normal 2.586718e-01 9.659653e-01 0.000000e+00
    outer loop
      vertex 1.950000e+01 -5.450300e+01 9.002000e+00
      vertex 1.824900e+01 -5.416800e+01 0.000000e+00
      vertex 1.824900e+01 -5.416800e+01 9.002000e+00
    endloop
  endfacet
  facet normal -2.584790e-01 9.660169e-01 0.000000e+00
    outer loop
      vertex 2.075200e+01 -5.416800e+01 9.002000e+00
      vertex 2.075200e+01 -5.416800e+01 0.000000e+00
      vertex 1.950000e+01 -5.450300e+01 0.000000e+00
    endloop
  endfacet
  facet normal -2.584790e-01 9.660169e-01 0.000000e+00
    outer loop
      vertex 2.075200e+01 -5.416800e+01 9.002000e+00
      vertex 1.950000e+01 -5.450300e+01 0.000000e+00
      vertex 1.950000e+01 -5.450300e+01 9.002000e+00
    endloop
  endfacet
  facet normal -7.071068e-01 7.071068e-01 0.000000e+00
    outer loop
      vertex 2.166800e+01 -5.325200e+01 9.002000e+00
      vertex 2.166800e+01 -5.325200e+01 0.000000e+00
      vertex 2.075200e+01 -5.416800e+01 0.000000e+00
    endloop
  endfacet
  facet normal -7.071068e-01 7.071068e-01 0.000000e+00
    outer loop
      vertex 2.166800e+01 -5.325200e+01 9.002000e+00
      vertex 2.075200e+01 -5.416800e+01 0.000000e+00
      vertex 2.075200e+01 -5.416800e+01 9.002000e+00
    endloop
  endfacet
  facet normal -1.000000e+00 0.000000e+00 0.000000e+00
    outer loop
      vertex 9.000000e+00 -3.889600e+01 9.555000e+00
      vertex 9.000000e+00 -4.600100e+01 1.000000e-03
      vertex 9.000000e+00 -4.005100e+01 1.171600e+01
    endloop
  endfacet
  facet normal -9.660169e-01 2.584790e-01 0.000000e+00
    outer loop
      vertex 2.200300e+01 -5.200000e+01 9.002000e+00
      vertex 2.200300e+01 -5.200000e+01 0.000000e+00
      vertex 2.166800e+01 -5.325200e+01 0.000000e+00
    endloop
  endfacet
  facet normal -9.660169e-01 2.584790e-01 0.000000e+00
    outer loop
      vertex 2.200300e+01 -5.200000e+01 9.002000e+00
      vertex 2.166800e+01 -5.325200e+01 0.000000e+00
      vertex 2.166800e+01 -5.325200e+01 9.002000e+00
    endloop
  endfacet
  facet normal -1.000000e+00 0.000000e+00 0.000000e+00
    outer loop
      vertex 9.000000e+00 -3.328500e+01 4.950000e+00
      vertex 9.000000e+00 -4.600100e+01 1.000000e-03
      vertex 9.000000e+00 -3.544600e+01 6.105000e+00
    endloop
  endfacet
  facet normal 0.000000e+00 -1.000000e+00 0.000000e+00
    outer loop
      vertex 9.000000e+00 -4.600100e+01 3.200200e+01
      vertex 1.100000e+01 -4.600100e+01 9.002000e+00
      vertex 2.900000e+01 -4.600100e+01 3.200200e+01
    endloop
  endfacet
  facet normal 0.000000e+00 -1.000000e+00 0.000000e+00
    outer loop
      vertex 2.800000e+01 -4.600100e+01 1.000000e-03
      vertex 2.900000e+01 -4.600100e+01 1.000000e-03
      vertex 2.800000e+01 -4.600100e+01 9.002000e+00
    endloop
  endfacet
  facet normal 0.000000e+00 -1.000000e+00 0.000000e+00
    outer loop
      vertex 2.900000e+01 -4.600100e+01 3.200200e+01
      vertex 2.800000e+01 -4.600100e+01 9.002000e+00
      vertex 2.900000e+01 -4.600100e+01 1.000000e-03
    endloop
  endfacet
  facet normal -1.000000e+00 0.000000e+00 0.000000e+00
    outer loop
      vertex 9.000000e+00 -3.734100e+01 7.660000e+00
      vertex 9.000000e+00 -3.544600e+01 6.105000e+00
      vertex 9.000000e+00 -4.600100e+01 1.000000e-03
    endloop
  endfacet
  facet normal 0.000000e+00 -1.000000e+00 0.000000e+00
    outer loop
      vertex 2.800000e+01 -4.600100e+01 9.002000e+00
      vertex 2.900000e+01 -4.600100e+01 3.200200e+01
      vertex 1.100000e+01 -4.600100e+01 9.002000e+00
    endloop
  endfacet
  facet normal 0.000000e+00 -1.000000e+00 0.000000e+00
    outer loop
      vertex 1.100000e+01 -4.600100e+01 1.000000e-03
      vertex 1.100000e+01 -4.600100e+01 9.002000e+00
      vertex 9.000000e+00 -4.600100e+01 1.000000e-03
    endloop
  endfacet
  facet normal 0.000000e+00 -1.000000e+00 0.000000e+00
    outer loop
      vertex 9.000000e+00 -4.600100e+01 3.200200e+01
      vertex 9.000000e+00 -4.600100e+01 1.000000e-03
      vertex 1.100000e+01 -4.600100e+01 9.002000e+00
    endloop
  endfacet
  facet normal 0.000000e+00 1.000000e+00 0.000000e+00
    outer loop
      vertex 2.800000e+01 -3.050000e+01 1.000000e-03
      vertex 2.800000e+01 -3.050000e+01 0.000000e+00
      vertex 1.100000e+01 -3.050000e+01 0.000000e+00
    endloop
  endfacet
  facet normal 0.000000e+00 1.000000e+00 0.000000e+00
    outer loop
      vertex 2.800000e+01 -3.050000e+01 1.000000e-03
      vertex 1.100000e+01 -3.050000e+01 0.000000e+00
      vertex 1.100000e+01 -3.050000e+01 1.000000e-03
    endloop
  endfacet
  facet normal -1.000000e+00 0.000000e+00 0.000000e+00
    outer loop
      vertex 9.000000e+00 -3.093900e+01 4.238000e+00
      vertex 9.000000e+00 -4.600100e+01 1.000000e-03
      vertex 9.000000e+00 -3.328500e+01 4.950000e+00
    endloop
  endfacet
  facet normal -1.000000e+00 0.000000e+00 0.000000e+00
    outer loop
      vertex 9.000000e+00 -2.850000e+01 3.998000e+00
      vertex 9.000000e+00 -4.600100e+01 1.000000e-03
      vertex 9.000000e+00 -3.093900e+01 4.238000e+00
    endloop
  endfacet
  facet normal 1.000000e+00 0.000000e+00 0.000000e+00
    outer loop
      vertex 2.800000e+01 -3.050000e+01 1.000000e-03
      vertex 2.800000e+01 -4.600100e+01 1.000000e-03
      vertex 2.800000e+01 -3.050000e+01 0.000000e+00
    endloop
  endfacet
  facet normal -1.000000e+00 0.000000e+00 0.000000e+00
    outer loop
      vertex 1.100000e+01 -4.600100e+01 1.000000e-03
      vertex 1.100000e+01 -3.050000e+01 1.000000e-03
      vertex 1.100000e+01 -3.050000e+01 0.000000e+00
    endloop
  endfacet
  facet normal 0.000000e+00 0.000000e+00 -1.000000e+00
    outer loop
      vertex 1.100000e+01 -3.050000e+01 1.000000e-03
      vertex 2.800100e+01 -2.800000e+01 1.000000e-03
      vertex 2.800000e+01 -3.050000e+01 1.000000e-03
    endloop
  endfacet
  facet normal 0.000000e+00 0.000000e+00 -1.000000e+00
    outer loop
      vertex 9.000000e+00 -4.600100e+01 1.000000e-03
      vertex 9.999000e+00 -2.800000e+01 1.000000e-03
      vertex 1.100000e+01 -3.050000e+01 1.000000e-03
    endloop
  endfacet
  facet normal 0.000000e+00 0.000000e+00 -1.000000e+00
    outer loop
      vertex 9.999000e+00 -2.800000e+01 1.000000e-03
      vertex 2.800100e+01 -2.800000e+01 1.000000e-03
      vertex 1.100000e+01 -3.050000e+01 1.000000e-03
    endloop
  endfacet
  facet normal 0.000000e+00 0.000000e+00 -1.000000e+00
    outer loop
      vertex 2.900000e+01 -4.600100e+01 1.000000e-03
      vertex 2.800000e+01 -3.050000e+01 1.000000e-03
      vertex 2.900000e+01 -1.300000e+01 1.000000e-03
    endloop
  endfacet
  facet normal -1.000000e+00 0.000000e+00 0.000000e+00
    outer loop
      vertex 9.000000e+00 -3.328500e+01 2.805200e+01
      vertex 9.000000e+00 -3.544600e+01 2.689700e+01
      vertex 9.000000e+00 -4.600100e+01 3.200200e+01
    endloop
  endfacet
  facet normal 0.000000e+00 0.000000e+00 -1.000000e+00
    outer loop
      vertex 2.800100e+01 -2.800000e+01 1.000000e-03
      vertex 2.900000e+01 -1.300000e+01 1.000000e-03
      vertex 2.800000e+01 -3.050000e+01 1.000000e-03
    endloop
  endfacet
  facet normal -1.000000e+00 0.000000e+00 0.000000e+00
    outer loop
      vertex 9.000000e+00 -4.600100e+01 3.200200e+01
      vertex 9.000000e+00 -3.544600e+01 2.689700e+01
      vertex 9.000000e+00 -3.734100e+01 2.534200e+01
    endloop
  endfacet
  facet normal 0.000000e+00 0.000000e+00 -1.000000e+00
    outer loop
      vertex 1.100000e+01 -4.600100e+01 1.000000e-03
      vertex 9.000000e+00 -4.600100e+01 1.000000e-03
      vertex 1.100000e+01 -3.050000e+01 1.000000e-03
    endloop
  endfacet
  facet normal -1.000000e+00 0.000000e+00 0.000000e+00
    outer loop
      vertex 9.000000e+00 -4.076300e+01 1.894000e+01
      vertex 9.000000e+00 -4.600100e+01 3.200200e+01
      vertex 9.000000e+00 -4.005100e+01 2.128600e+01
    endloop
  endfacet
  facet normal 0.000000e+00 0.000000e+00 -1.000000e+00
    outer loop
      vertex 2.800000e+01 -3.050000e+01 1.000000e-03
      vertex 2.900000e+01 -4.600100e+01 1.000000e-03
      vertex 2.800000e+01 -4.600100e+01 1.000000e-03
    endloop
  endfacet
  facet normal 1.000000e+00 0.000000e+00 0.000000e+00
    outer loop
      vertex 2.900000e+01 -4.600100e+01 1.000000e-03
      vertex 2.900000e+01 -4.005100e+01 1.171600e+01
      vertex 2.900000e+01 -4.076300e+01 1.406200e+01
    endloop
  endfacet
  facet normal 1.000000e+00 0.000000e+00 0.000000e+00
    outer loop
      vertex 2.900000e+01 -4.600100e+01 1.000000e-03
      vertex 2.900000e+01 -4.076300e+01 1.406200e+01
      vertex 2.900000e+01 -4.100300e+01 1.650100e+01
    endloop
  endfacet
  facet normal 1.000000e+00 0.000000e+00 0.000000e+00
    outer loop
      vertex 2.900000e+01 -4.005100e+01 1.171600e+01
      vertex 2.900000e+01 -4.600100e+01 1.000000e-03
      vertex 2.900000e+01 -3.889600e+01 9.555000e+00
    endloop
  endfacet
  facet normal 1.000000e+00 0.000000e+00 0.000000e+00
    outer loop
      vertex 2.900000e+01 -3.734100e+01 7.660000e+00
      vertex 2.900000e+01 -3.889600e+01 9.555000e+00
      vertex 2.900000e+01 -4.600100e+01 1.000000e-03
    endloop
  endfacet
  facet normal 1.000000e+00 0.000000e+00 0.000000e+00
    outer loop
      vertex 2.900000e+01 -3.544600e+01 6.105000e+00
      vertex 2.900000e+01 -3.734100e+01 7.660000e+00
      vertex 2.900000e+01 -4.600100e+01 1.000000e-03
    endloop
  endfacet
  facet normal 1.000000e+00 0.000000e+00 0.000000e+00
    outer loop
      vertex 2.900000e+01 -3.544600e+01 6.105000e+00
      vertex 2.900000e+01 -4.600100e+01 1.000000e-03
      vertex 2.900000e+01 -3.328500e+01 4.950000e+00
    endloop
  endfacet
  facet normal 1.000000e+00 0.000000e+00 0.000000e+00
    outer loop
      vertex 2.900000e+01 -3.093900e+01 4.238000e+00
      vertex 2.900000e+01 -3.328500e+01 4.950000e+00
      vertex 2.900000e+01 -4.600100e+01 1.000000e-03
    endloop
  endfacet
  facet normal 1.000000e+00 0.000000e+00 0.000000e+00
    outer loop
      vertex 2.900000e+01 -1.300000e+01 1.000000e-03
      vertex 2.900000e+01 -2.850000e+01 3.998000e+00
      vertex 2.900000e+01 -4.600100e+01 1.000000e-03
    endloop
  endfacet
  facet normal -1.000000e+00 0.000000e+00 0.000000e+00
    outer loop
      vertex 9.999000e+00 -1.300000e+01 9.002000e+00
      vertex 9.999000e+00 -1.000000e+00 9.002000e+00
      vertex 9.999000e+00 -1.300000e+01 1.000000e-03
    endloop
  endfacet
  facet normal -1.000000e+00 0.000000e+00 0.000000e+00
    outer loop
      vertex 9.999000e+00 -1.000000e+00 0.000000e+00
      vertex 9.999000e+00 -1.300000e+01 1.000000e-03
      vertex 9.999000e+00 -1.000000e+00 9.002000e+00
    endloop
  endfacet
  facet normal -1.000000e+00 0.000000e+00 0.000000e+00
    outer loop
      vertex 9.999000e+00 -2.800000e+01 1.000000e-03
      vertex 9.999000e+00 -1.300000e+01 1.000000e-03
      vertex 9.999000e+00 -1.000000e+00 0.000000e+00
    endloop
  endfacet
  facet normal -1.000000e+00 0.000000e+00 0.000000e+00
    outer loop
      vertex 9.999000e+00 -2.800000e+01 1.000000e-03
      vertex 9.999000e+00 -1.000000e+00 0.000000e+00
      vertex 9.999000e+00 -2.800000e+01 0.000000e+00
    endloop
  endfacet
  facet normal 1.000000e+00 0.000000e+00 0.000000e+00
    outer loop
      vertex 2.900000e+01 -3.734100e+01 2.534200e+01
      vertex 2.900000e+01 -4.600100e+01 3.200200e+01
      vertex 2.900000e+01 -3.889600e+01 2.344700e+01
    endloop
  endfacet
  facet normal 1.000000e+00 0.000000e+00 0.000000e+00
    outer loop
      vertex 2.900000e+01 -4.005100e+01 2.128600e+01
      vertex 2.900000e+01 -3.889600e+01 2.344700e+01
      vertex 2.900000e+01 -4.600100e+01 3.200200e+01
    endloop
  endfacet
  facet normal 1.000000e+00 0.000000e+00 0.000000e+00
    outer loop
      vertex 2.900000e+01 -4.076300e+01 1.894000e+01
      vertex 2.900000e+01 -4.005100e+01 2.128600e+01
      vertex 2.900000e+01 -4.600100e+01 3.200200e+01
    endloop
  endfacet
  facet normal 1.000000e+00 0.000000e+00 0.000000e+00
    outer loop
      vertex 2.900000e+01 -4.100300e+01 1.650100e+01
      vertex 2.900000e+01 -4.076300e+01 1.894000e+01
      vertex 2.900000e+01 -4.600100e+01 3.200200e+01
    endloop
  endfacet
  facet normal -9.659653e-01 -2.586718e-01 0.000000e+00
    outer loop
      vertex 2.166800e+01 -6.249000e+00 9.002000e+00
      vertex 2.166800e+01 -6.249000e+00 0.000000e+00
      vertex 2.200300e+01 -7.500000e+00 0.000000e+00
    endloop
  endfacet
  facet normal -9.659653e-01 -2.586718e-01 0.000000e+00
    outer loop
      vertex 2.166800e+01 -6.249000e+00 9.002000e+00
      vertex 2.200300e+01 -7.500000e+00 0.000000e+00
      vertex 2.200300e+01 -7.500000e+00 9.002000e+00
    endloop
  endfacet
  facet normal -7.074925e-01 -7.067209e-01 0.000000e+00
    outer loop
      vertex 2.075200e+01 -5.332000e+00 9.002000e+00
      vertex 2.075200e+01 -5.332000e+00 0.000000e+00
      vertex 2.166800e+01 -6.249000e+00 0.000000e+00
    endloop
  endfacet
  facet normal -7.074925e-01 -7.067209e-01 0.000000e+00
    outer loop
      vertex 2.075200e+01 -5.332000e+00 9.002000e+00
      vertex 2.166800e+01 -6.249000e+00 0.000000e+00
      vertex 2.166800e+01 -6.249000e+00 9.002000e+00
    endloop
  endfacet
  facet normal -2.584790e-01 -9.660169e-01 0.000000e+00
    outer loop
      vertex 2.075200e+01 -5.332000e+00 0.000000e+00
      vertex 2.075200e+01 -5.332000e+00 9.002000e+00
      vertex 1.950000e+01 -4.997000e+00 9.002000e+00
    endloop
  endfacet
  facet normal -2.584790e-01 -9.660169e-01 0.000000e+00
    outer loop
      vertex 2.075200e+01 -5.332000e+00 0.000000e+00
      vertex 1.950000e+01 -4.997000e+00 9.002000e+00
      vertex 1.950000e+01 -4.997000e+00 0.000000e+00
    endloop
  endfacet
  facet normal 1.000000e+00 0.000000e+00 0.000000e+00
    outer loop
      vertex 2.900000e+01 -1.300000e+01 3.200200e+01
      vertex 2.900000e+01 -4.600100e+01 3.200200e+01
      vertex 2.900000e+01 -2.850000e+01 2.900400e+01
    endloop
  endfacet
  facet normal 2.586718e-01 -9.659653e-01 0.000000e+00
    outer loop
      vertex 1.950000e+01 -4.997000e+00 0.000000e+00
      vertex 1.950000e+01 -4.997000e+00 9.002000e+00
      vertex 1.824900e+01 -5.332000e+00 9.002000e+00
    endloop
  endfacet
  facet normal 2.586718e-01 -9.659653e-01 0.000000e+00
    outer loop
      vertex 1.950000e+01 -4.997000e+00 0.000000e+00
      vertex 1.824900e+01 -5.332000e+00 9.002000e+00
      vertex 1.824900e+01 -5.332000e+00 0.000000e+00
    endloop
  endfacet
  facet normal 1.000000e+00 0.000000e+00 0.000000e+00
    outer loop
      vertex 2.900000e+01 -3.734100e+01 2.534200e+01
      vertex 2.900000e+01 -3.544600e+01 2.689700e+01
      vertex 2.900000e+01 -4.600100e+01 3.200200e+01
    endloop
  endfacet
  facet normal 1.000000e+00 0.000000e+00 0.000000e+00
    outer loop
      vertex 2.900000e+01 -3.544600e+01 2.689700e+01
      vertex 2.900000e+01 -3.328500e+01 2.805200e+01
      vertex 2.900000e+01 -4.600100e+01 3.200200e+01
    endloop
  endfacet
  facet normal 1.000000e+00 0.000000e+00 0.000000e+00
    outer loop
      vertex 2.900000e+01 -3.328500e+01 2.805200e+01
      vertex 2.900000e+01 -3.093900e+01 2.876400e+01
      vertex 2.900000e+01 -4.600100e+01 3.200200e+01
    endloop
  endfacet
  facet normal 1.000000e+00 0.000000e+00 0.000000e+00
    outer loop
      vertex 2.900000e+01 -3.093900e+01 2.876400e+01
      vertex 2.900000e+01 -2.850000e+01 2.900400e+01
      vertex 2.900000e+01 -4.600100e+01 3.200200e+01
    endloop
  endfacet
  facet normal 7.071068e-01 -7.071068e-01 0.000000e+00
    outer loop
      vertex 1.824900e+01 -5.332000e+00 0.000000e+00
      vertex 1.824900e+01 -5.332000e+00 9.002000e+00
      vertex 1.733200e+01 -6.249000e+00 9.002000e+00
    endloop
  endfacet
  facet normal 7.071068e-01 -7.071068e-01 0.000000e+00
    outer loop
      vertex 1.824900e+01 -5.332000e+00 0.000000e+00
      vertex 1.733200e+01 -6.249000e+00 9.002000e+00
      vertex 1.733200e+01 -6.249000e+00 0.000000e+00
    endloop
  endfacet
  facet normal 9.659653e-01 -2.586718e-01 0.000000e+00
    outer loop
      vertex 1.733200e+01 -6.249000e+00 0.000000e+00
      vertex 1.733200e+01 -6.249000e+00 9.002000e+00
      vertex 1.699700e+01 -7.500000e+00 9.002000e+00
    endloop
  endfacet
  facet normal 9.659653e-01 -2.586718e-01 0.000000e+00
    outer loop
      vertex 1.733200e+01 -6.249000e+00 0.000000e+00
      vertex 1.699700e+01 -7.500000e+00 9.002000e+00
      vertex 1.699700e+01 -7.500000e+00 0.000000e+00
    endloop
  endfacet
  facet normal -1.000000e+00 0.000000e+00 0.000000e+00
    outer loop
      vertex 9.000000e+00 -4.600100e+01 3.200200e+01
      vertex 9.000000e+00 -1.300000e+01 3.200200e+01
      vertex 9.000000e+00 -2.850000e+01 2.900400e+01
    endloop
  endfacet
  facet normal -1.000000e+00 0.000000e+00 0.000000e+00
    outer loop
      vertex 9.000000e+00 -4.600100e+01 3.200200e+01
      vertex 9.000000e+00 -2.850000e+01 2.900400e+01
      vertex 9.000000e+00 -3.093900e+01 2.876400e+01
    endloop
  endfacet
  facet normal -1.000000e+00 0.000000e+00 0.000000e+00
    outer loop
      vertex 9.000000e+00 -3.328500e+01 2.805200e+01
      vertex 9.000000e+00 -4.600100e+01 3.200200e+01
      vertex 9.000000e+00 -3.093900e+01 2.876400e+01
    endloop
  endfacet
  facet normal -1.000000e+00 0.000000e+00 0.000000e+00
    outer loop
      vertex 9.000000e+00 -3.889600e+01 2.344700e+01
      vertex 9.000000e+00 -4.600100e+01 3.200200e+01
      vertex 9.000000e+00 -3.734100e+01 2.534200e+01
    endloop
  endfacet
  facet normal -1.000000e+00 0.000000e+00 0.000000e+00
    outer loop
      vertex 9.000000e+00 -3.889600e+01 2.344700e+01
      vertex 9.000000e+00 -4.005100e+01 2.128600e+01
      vertex 9.000000e+00 -4.600100e+01 3.200200e+01
    endloop
  endfacet
  facet normal 9.660169e-01 2.584790e-01 0.000000e+00
    outer loop
      vertex 1.699700e+01 -7.500000e+00 0.000000e+00
      vertex 1.699700e+01 -7.500000e+00 9.002000e+00
      vertex 1.733200e+01 -8.752000e+00 0.000000e+00
    endloop
  endfacet
  facet normal 9.660169e-01 2.584790e-01 0.000000e+00
    outer loop
      vertex 1.733200e+01 -8.752000e+00 9.002000e+00
      vertex 1.733200e+01 -8.752000e+00 0.000000e+00
      vertex 1.699700e+01 -7.500000e+00 9.002000e+00
    endloop
  endfacet
  facet normal -1.000000e+00 0.000000e+00 0.000000e+00
    outer loop
      vertex 9.000000e+00 -2.606100e+01 4.238000e+00
      vertex 9.000000e+00 -1.300000e+01 1.000000e-03
      vertex 9.000000e+00 -2.850000e+01 3.998000e+00
    endloop
  endfacet
  facet normal 7.067209e-01 7.074925e-01 0.000000e+00
    outer loop
      vertex 1.824900e+01 -9.668000e+00 9.002000e+00
      vertex 1.824900e+01 -9.668000e+00 0.000000e+00
      vertex 1.733200e+01 -8.752000e+00 0.000000e+00
    endloop
  endfacet
  facet normal 7.067209e-01 7.074925e-01 0.000000e+00
    outer loop
      vertex 1.824900e+01 -9.668000e+00 9.002000e+00
      vertex 1.733200e+01 -8.752000e+00 0.000000e+00
      vertex 1.733200e+01 -8.752000e+00 9.002000e+00
    endloop
  endfacet
  facet normal -1.000000e+00 0.000000e+00 0.000000e+00
    outer loop
      vertex 9.000000e+00 -4.600100e+01 3.200200e+01
      vertex 9.000000e+00 -4.076300e+01 1.894000e+01
      vertex 9.000000e+00 -4.100300e+01 1.650100e+01
    endloop
  endfacet
  facet normal -1.000000e+00 0.000000e+00 0.000000e+00
    outer loop
      vertex 9.000000e+00 -4.076300e+01 1.406200e+01
      vertex 9.000000e+00 -4.600100e+01 1.000000e-03
      vertex 9.000000e+00 -4.100300e+01 1.650100e+01
    endloop
  endfacet
  facet normal -1.000000e+00 0.000000e+00 0.000000e+00
    outer loop
      vertex 9.000000e+00 -4.076300e+01 1.406200e+01
      vertex 9.000000e+00 -4.005100e+01 1.171600e+01
      vertex 9.000000e+00 -4.600100e+01 1.000000e-03
    endloop
  endfacet
  facet normal -1.000000e+00 0.000000e+00 0.000000e+00
    outer loop
      vertex 9.000000e+00 -3.734100e+01 7.660000e+00
      vertex 9.000000e+00 -4.600100e+01 1.000000e-03
      vertex 9.000000e+00 -3.889600e+01 9.555000e+00
    endloop
  endfacet
  facet normal -1.000000e+00 0.000000e+00 0.000000e+00
    outer loop
      vertex 9.000000e+00 -4.600100e+01 3.200200e+01
      vertex 9.000000e+00 -4.100300e+01 1.650100e+01
      vertex 9.000000e+00 -4.600100e+01 1.000000e-03
    endloop
  endfacet
  facet normal 2.586718e-01 9.659653e-01 0.000000e+00
    outer loop
      vertex 1.950000e+01 -1.000300e+01 9.002000e+00
      vertex 1.950000e+01 -1.000300e+01 0.000000e+00
      vertex 1.824900e+01 -9.668000e+00 0.000000e+00
    endloop
  endfacet
  facet normal 2.586718e-01 9.659653e-01 0.000000e+00
    outer loop
      vertex 1.950000e+01 -1.000300e+01 9.002000e+00
      vertex 1.824900e+01 -9.668000e+00 0.000000e+00
      vertex 1.824900e+01 -9.668000e+00 9.002000e+00
    endloop
  endfacet
  facet normal -2.584790e-01 9.660169e-01 0.000000e+00
    outer loop
      vertex 2.075200e+01 -9.668000e+00 9.002000e+00
      vertex 2.075200e+01 -9.668000e+00 0.000000e+00
      vertex 1.950000e+01 -1.000300e+01 0.000000e+00
    endloop
  endfacet
  facet normal -2.584790e-01 9.660169e-01 0.000000e+00
    outer loop
      vertex 2.075200e+01 -9.668000e+00 9.002000e+00
      vertex 1.950000e+01 -1.000300e+01 0.000000e+00
      vertex 1.950000e+01 -1.000300e+01 9.002000e+00
    endloop
  endfacet
  facet normal 0.000000e+00 9.569008e-01 2.904149e-01
    outer loop
      vertex 2.900000e+01 -4.005100e+01 1.171600e+01
      vertex 9.000000e+00 -4.005100e+01 1.171600e+01
      vertex 9.000000e+00 -4.076300e+01 1.406200e+01
    endloop
  endfacet
  facet normal -7.071068e-01 7.071068e-01 0.000000e+00
    outer loop
      vertex 2.166800e+01 -8.752000e+00 9.002000e+00
      vertex 2.166800e+01 -8.752000e+00 0.000000e+00
      vertex 2.075200e+01 -9.668000e+00 0.000000e+00
    endloop
  endfacet
  facet normal -7.071068e-01 7.071068e-01 0.000000e+00
    outer loop
      vertex 2.166800e+01 -8.752000e+00 9.002000e+00
      vertex 2.075200e+01 -9.668000e+00 0.000000e+00
      vertex 2.075200e+01 -9.668000e+00 9.002000e+00
    endloop
  endfacet
  facet normal 0.000000e+00 8.819346e-01 4.713718e-01
    outer loop
      vertex 9.000000e+00 -4.005100e+01 1.171600e+01
      vertex 2.900000e+01 -4.005100e+01 1.171600e+01
      vertex 9.000000e+00 -3.889600e+01 9.555000e+00
    endloop
  endfacet
  facet normal -9.660169e-01 2.584790e-01 0.000000e+00
    outer loop
      vertex 2.200300e+01 -7.500000e+00 9.002000e+00
      vertex 2.200300e+01 -7.500000e+00 0.000000e+00
      vertex 2.166800e+01 -8.752000e+00 0.000000e+00
    endloop
  endfacet
  facet normal -9.660169e-01 2.584790e-01 0.000000e+00
    outer loop
      vertex 2.200300e+01 -7.500000e+00 9.002000e+00
      vertex 2.166800e+01 -8.752000e+00 0.000000e+00
      vertex 2.166800e+01 -8.752000e+00 9.002000e+00
    endloop
  endfacet
  facet normal 0.000000e+00 6.343479e-01 7.730477e-01
    outer loop
      vertex 2.900000e+01 -3.544600e+01 6.105000e+00
      vertex 9.000000e+00 -3.544600e+01 6.105000e+00
      vertex 9.000000e+00 -3.734100e+01 7.660000e+00
    endloop
  endfacet
  facet normal 0.000000e+00 4.713718e-01 8.819346e-01
    outer loop
      vertex 9.000000e+00 -3.328500e+01 4.950000e+00
      vertex 9.000000e+00 -3.544600e+01 6.105000e+00
      vertex 2.900000e+01 -3.544600e+01 6.105000e+00
    endloop
  endfacet
  facet normal 0.000000e+00 4.713718e-01 -8.819346e-01
    outer loop
      vertex 9.000000e+00 -3.328500e+01 2.805200e+01
      vertex 2.900000e+01 -3.544600e+01 2.689700e+01
      vertex 9.000000e+00 -3.544600e+01 2.689700e+01
    endloop
  endfacet
  facet normal 0.000000e+00 6.343479e-01 -7.730477e-01
    outer loop
      vertex 2.900000e+01 -3.734100e+01 2.534200e+01
      vertex 9.000000e+00 -3.734100e+01 2.534200e+01
      vertex 2.900000e+01 -3.544600e+01 2.689700e+01
    endloop
  endfacet
  facet normal 0.000000e+00 6.343479e-01 -7.730477e-01
    outer loop
      vertex 9.000000e+00 -3.544600e+01 2.689700e+01
      vertex 2.900000e+01 -3.544600e+01 2.689700e+01
      vertex 9.000000e+00 -3.734100e+01 2.534200e+01
    endloop
  endfacet
  facet normal 0.000000e+00 7.730477e-01 -6.343479e-01
    outer loop
      vertex 9.000000e+00 -3.734100e+01 2.534200e+01
      vertex 2.900000e+01 -3.734100e+01 2.534200e+01
      vertex 9.000000e+00 -3.889600e+01 2.344700e+01
    endloop
  endfacet
  facet normal 0.000000e+00 -9.792802e-02 9.951935e-01
    outer loop
      vertex 2.900000e+01 -2.606100e+01 4.238000e+00
      vertex 9.000000e+00 -2.606100e+01 4.238000e+00
      vertex 9.000000e+00 -2.850000e+01 3.998000e+00
    endloop
  endfacet
  facet normal 0.000000e+00 9.951935e-01 -9.792802e-02
    outer loop
      vertex 9.000000e+00 -4.076300e+01 1.894000e+01
      vertex 2.900000e+01 -4.100300e+01 1.650100e+01
      vertex 9.000000e+00 -4.100300e+01 1.650100e+01
    endloop
  endfacet
  facet normal 0.000000e+00 -2.904149e-01 9.569008e-01
    outer loop
      vertex 9.000000e+00 -2.371500e+01 4.950000e+00
      vertex 9.000000e+00 -2.606100e+01 4.238000e+00
      vertex 2.900000e+01 -2.606100e+01 4.238000e+00
    endloop
  endfacet
  facet normal 0.000000e+00 9.951935e-01 9.792802e-02
    outer loop
      vertex 9.000000e+00 -4.100300e+01 1.650100e+01
      vertex 2.900000e+01 -4.100300e+01 1.650100e+01
      vertex 9.000000e+00 -4.076300e+01 1.406200e+01
    endloop
  endfacet
  facet normal 0.000000e+00 -7.730477e-01 6.343479e-01
    outer loop
      vertex 9.000000e+00 -1.965900e+01 7.660000e+00
      vertex 2.900000e+01 -1.965900e+01 7.660000e+00
      vertex 9.000000e+00 -1.810400e+01 9.555000e+00
    endloop
  endfacet
  facet normal 0.000000e+00 9.569008e-01 2.904149e-01
    outer loop
      vertex 2.900000e+01 -4.005100e+01 1.171600e+01
      vertex 9.000000e+00 -4.076300e+01 1.406200e+01
      vertex 2.900000e+01 -4.076300e+01 1.406200e+01
    endloop
  endfacet
  facet normal 0.000000e+00 8.819346e-01 4.713718e-01
    outer loop
      vertex 2.900000e+01 -3.889600e+01 9.555000e+00
      vertex 9.000000e+00 -3.889600e+01 9.555000e+00
      vertex 2.900000e+01 -4.005100e+01 1.171600e+01
    endloop
  endfacet
  facet normal 0.000000e+00 7.730477e-01 6.343479e-01
    outer loop
      vertex 2.900000e+01 -3.734100e+01 7.660000e+00
      vertex 9.000000e+00 -3.734100e+01 7.660000e+00
      vertex 9.000000e+00 -3.889600e+01 9.555000e+00
    endloop
  endfacet
  facet normal 0.000000e+00 7.730477e-01 6.343479e-01
    outer loop
      vertex 2.900000e+01 -3.734100e+01 7.660000e+00
      vertex 9.000000e+00 -3.889600e+01 9.555000e+00
      vertex 2.900000e+01 -3.889600e+01 9.555000e+00
    endloop
  endfacet
  facet normal 0.000000e+00 6.343479e-01 7.730477e-01
    outer loop
      vertex 9.000000e+00 -3.734100e+01 7.660000e+00
      vertex 2.900000e+01 -3.734100e+01 7.660000e+00
      vertex 2.900000e+01 -3.544600e+01 6.105000e+00
    endloop
  endfacet
  facet normal 0.000000e+00 0.000000e+00 -1.000000e+00
    outer loop
      vertex 1.950000e+01 -5.450300e+01 0.000000e+00
      vertex 1.100000e+01 -5.800000e+01 0.000000e+00
      vertex 1.824900e+01 -5.416800e+01 0.000000e+00
    endloop
  endfacet
  facet normal 0.000000e+00 4.713718e-01 8.819346e-01
    outer loop
      vertex 2.900000e+01 -3.328500e+01 4.950000e+00
      vertex 9.000000e+00 -3.328500e+01 4.950000e+00
      vertex 2.900000e+01 -3.544600e+01 6.105000e+00
    endloop
  endfacet
  facet normal 0.000000e+00 0.000000e+00 -1.000000e+00
    outer loop
      vertex 2.200300e+01 -5.200000e+01 0.000000e+00
      vertex 2.800000e+01 -5.800000e+01 0.000000e+00
      vertex 2.166800e+01 -5.325200e+01 0.000000e+00
    endloop
  endfacet
  facet normal 0.000000e+00 0.000000e+00 -1.000000e+00
    outer loop
      vertex 2.800000e+01 -3.050000e+01 0.000000e+00
      vertex 2.075200e+01 -4.983200e+01 0.000000e+00
      vertex 1.950000e+01 -4.949700e+01 0.000000e+00
    endloop
  endfacet
  facet normal 0.000000e+00 0.000000e+00 -1.000000e+00
    outer loop
      vertex 1.824900e+01 -4.983200e+01 0.000000e+00
      vertex 1.100000e+01 -3.050000e+01 0.000000e+00
      vertex 1.950000e+01 -4.949700e+01 0.000000e+00
    endloop
  endfacet
  facet normal 0.000000e+00 0.000000e+00 -1.000000e+00
    outer loop
      vertex 1.733200e+01 -5.074900e+01 0.000000e+00
      vertex 1.100000e+01 -3.050000e+01 0.000000e+00
      vertex 1.824900e+01 -4.983200e+01 0.000000e+00
    endloop
  endfacet
  facet normal 0.000000e+00 0.000000e+00 -1.000000e+00
    outer loop
      vertex 2.800000e+01 -3.050000e+01 0.000000e+00
      vertex 1.950000e+01 -4.949700e+01 0.000000e+00
      vertex 1.100000e+01 -3.050000e+01 0.000000e+00
    endloop
  endfacet
  facet normal 0.000000e+00 -9.792802e-02 9.951935e-01
    outer loop
      vertex 9.000000e+00 -2.850000e+01 3.998000e+00
      vertex 2.900000e+01 -2.850000e+01 3.998000e+00
      vertex 2.900000e+01 -2.606100e+01 4.238000e+00
    endloop
  endfacet
  facet normal 0.000000e+00 0.000000e+00 -1.000000e+00
    outer loop
      vertex 2.166800e+01 -5.074900e+01 0.000000e+00
      vertex 2.800000e+01 -3.050000e+01 0.000000e+00
      vertex 2.200300e+01 -5.200000e+01 0.000000e+00
    endloop
  endfacet
  facet normal 0.000000e+00 0.000000e+00 -1.000000e+00
    outer loop
      vertex 2.800000e+01 -5.800000e+01 0.000000e+00
      vertex 2.200300e+01 -5.200000e+01 0.000000e+00
      vertex 2.800000e+01 -3.050000e+01 0.000000e+00
    endloop
  endfacet
  facet normal 0.000000e+00 0.000000e+00 -1.000000e+00
    outer loop
      vertex 2.800000e+01 -3.050000e+01 0.000000e+00
      vertex 2.166800e+01 -5.074900e+01 0.000000e+00
      vertex 2.075200e+01 -4.983200e+01 0.000000e+00
    endloop
  endfacet
  facet normal 0.000000e+00 2.904149e-01 9.569008e-01
    outer loop
      vertex 9.000000e+00 -3.328500e+01 4.950000e+00
      vertex 2.900000e+01 -3.328500e+01 4.950000e+00
      vertex 9.000000e+00 -3.093900e+01 4.238000e+00
    endloop
  endfacet
  facet normal 0.000000e+00 2.904149e-01 9.569008e-01
    outer loop
      vertex 2.900000e+01 -3.093900e+01 4.238000e+00
      vertex 9.000000e+00 -3.093900e+01 4.238000e+00
      vertex 2.900000e+01 -3.328500e+01 4.950000e+00
    endloop
  endfacet
  facet normal 0.000000e+00 0.000000e+00 -1.000000e+00
    outer loop
      vertex 2.800000e+01 -5.800000e+01 0.000000e+00
      vertex 1.950000e+01 -5.450300e+01 0.000000e+00
      vertex 2.075200e+01 -5.416800e+01 0.000000e+00
    endloop
  endfacet
  facet normal 0.000000e+00 0.000000e+00 -1.000000e+00
    outer loop
      vertex 2.075200e+01 -5.416800e+01 0.000000e+00
      vertex 2.166800e+01 -5.325200e+01 0.000000e+00
      vertex 2.800000e+01 -5.800000e+01 0.000000e+00
    endloop
  endfacet
  facet normal 0.000000e+00 9.792802e-02 9.951935e-01
    outer loop
      vertex 2.900000e+01 -2.850000e+01 3.998000e+00
      vertex 9.000000e+00 -2.850000e+01 3.998000e+00
      vertex 9.000000e+00 -3.093900e+01 4.238000e+00
    endloop
  endfacet
  facet normal 0.000000e+00 9.792802e-02 9.951935e-01
    outer loop
      vertex 2.900000e+01 -2.850000e+01 3.998000e+00
      vertex 9.000000e+00 -3.093900e+01 4.238000e+00
      vertex 2.900000e+01 -3.093900e+01 4.238000e+00
    endloop
  endfacet
  facet normal 0.000000e+00 0.000000e+00 -1.000000e+00
    outer loop
      vertex 1.100000e+01 -3.050000e+01 0.000000e+00
      vertex 1.733200e+01 -5.074900e+01 0.000000e+00
      vertex 1.699700e+01 -5.200000e+01 0.000000e+00
    endloop
  endfacet
  facet normal 0.000000e+00 0.000000e+00 -1.000000e+00
    outer loop
      vertex 1.733200e+01 -5.325200e+01 0.000000e+00
      vertex 1.100000e+01 -5.800000e+01 0.000000e+00
      vertex 1.699700e+01 -5.200000e+01 0.000000e+00
    endloop
  endfacet
  facet normal 0.000000e+00 0.000000e+00 -1.000000e+00
    outer loop
      vertex 1.733200e+01 -5.325200e+01 0.000000e+00
      vertex 1.824900e+01 -5.416800e+01 0.000000e+00
      vertex 1.100000e+01 -5.800000e+01 0.000000e+00
    endloop
  endfacet
  facet normal 0.000000e+00 0.000000e+00 -1.000000e+00
    outer loop
      vertex 2.800000e+01 -5.800000e+01 0.000000e+00
      vertex 1.100000e+01 -5.800000e+01 0.000000e+00
      vertex 1.950000e+01 -5.450300e+01 0.000000e+00
    endloop
  endfacet
  facet normal 0.000000e+00 0.000000e+00 -1.000000e+00
    outer loop
      vertex 1.100000e+01 -3.050000e+01 0.000000e+00
      vertex 1.699700e+01 -5.200000e+01 0.000000e+00
      vertex 1.100000e+01 -5.800000e+01 0.000000e+00
    endloop
  endfacet
  facet normal 0.000000e+00 2.904149e-01 -9.569008e-01
    outer loop
      vertex 9.000000e+00 -3.328500e+01 2.805200e+01
      vertex 9.000000e+00 -3.093900e+01 2.876400e+01
      vertex 2.900000e+01 -3.328500e+01 2.805200e+01
    endloop
  endfacet
  facet normal 1.000000e+00 0.000000e+00 0.000000e+00
    outer loop
      vertex 2.800000e+01 -4.600100e+01 9.002000e+00
      vertex 2.800000e+01 -5.800000e+01 9.002000e+00
      vertex 2.800000e+01 -4.600100e+01 1.000000e-03
    endloop
  endfacet
  facet normal 1.000000e+00 0.000000e+00 0.000000e+00
    outer loop
      vertex 2.800000e+01 -3.050000e+01 0.000000e+00
      vertex 2.800000e+01 -4.600100e+01 1.000000e-03
      vertex 2.800000e+01 -5.800000e+01 0.000000e+00
    endloop
  endfacet
  facet normal 0.000000e+00 4.713718e-01 -8.819346e-01
    outer loop
      vertex 9.000000e+00 -3.328500e+01 2.805200e+01
      vertex 2.900000e+01 -3.328500e+01 2.805200e+01
      vertex 2.900000e+01 -3.544600e+01 2.689700e+01
    endloop
  endfacet
  facet normal 1.000000e+00 0.000000e+00 0.000000e+00
    outer loop
      vertex 2.800000e+01 -5.800000e+01 0.000000e+00
      vertex 2.800000e+01 -4.600100e+01 1.000000e-03
      vertex 2.800000e+01 -5.800000e+01 9.002000e+00
    endloop
  endfacet
  facet normal 0.000000e+00 0.000000e+00 1.000000e+00
    outer loop
      vertex 2.800000e+01 -4.600100e+01 9.002000e+00
      vertex 2.166800e+01 -5.074900e+01 9.002000e+00
      vertex 2.200300e+01 -5.200000e+01 9.002000e+00
    endloop
  endfacet
  facet normal 0.000000e+00 7.730477e-01 -6.343479e-01
    outer loop
      vertex 2.900000e+01 -3.889600e+01 2.344700e+01
      vertex 9.000000e+00 -3.889600e+01 2.344700e+01
      vertex 2.900000e+01 -3.734100e+01 2.534200e+01
    endloop
  endfacet
  facet normal 0.000000e+00 0.000000e+00 1.000000e+00
    outer loop
      vertex 2.166800e+01 -5.074900e+01 9.002000e+00
      vertex 2.800000e+01 -4.600100e+01 9.002000e+00
      vertex 2.075200e+01 -4.983200e+01 9.002000e+00
    endloop
  endfacet
  facet normal 0.000000e+00 8.819346e-01 -4.713718e-01
    outer loop
      vertex 9.000000e+00 -3.889600e+01 2.344700e+01
      vertex 2.900000e+01 -3.889600e+01 2.344700e+01
      vertex 9.000000e+00 -4.005100e+01 2.128600e+01
    endloop
  endfacet
  facet normal 0.000000e+00 8.819346e-01 -4.713718e-01
    outer loop
      vertex 2.900000e+01 -4.005100e+01 2.128600e+01
      vertex 9.000000e+00 -4.005100e+01 2.128600e+01
      vertex 2.900000e+01 -3.889600e+01 2.344700e+01
    endloop
  endfacet
  facet normal 0.000000e+00 9.569008e-01 -2.904149e-01
    outer loop
      vertex 9.000000e+00 -4.005100e+01 2.128600e+01
      vertex 2.900000e+01 -4.005100e+01 2.128600e+01
      vertex 9.000000e+00 -4.076300e+01 1.894000e+01
    endloop
  endfacet
  facet normal 0.000000e+00 9.569008e-01 -2.904149e-01
    outer loop
      vertex 2.900000e+01 -4.076300e+01 1.894000e+01
      vertex 9.000000e+00 -4.076300e+01 1.894000e+01
      vertex 2.900000e+01 -4.005100e+01 2.128600e+01
    endloop
  endfacet
  facet normal 0.000000e+00 0.000000e+00 1.000000e+00
    outer loop
      vertex 1.824900e+01 -4.983200e+01 9.002000e+00
      vertex 1.100000e+01 -4.600100e+01 9.002000e+00
      vertex 1.733200e+01 -5.074900e+01 9.002000e+00
    endloop
  endfacet
  facet normal 0.000000e+00 9.951935e-01 -9.792802e-02
    outer loop
      vertex 2.900000e+01 -4.100300e+01 1.650100e+01
      vertex 9.000000e+00 -4.076300e+01 1.894000e+01
      vertex 2.900000e+01 -4.076300e+01 1.894000e+01
    endloop
  endfacet
  facet normal 0.000000e+00 9.951935e-01 9.792802e-02
    outer loop
      vertex 9.000000e+00 -4.076300e+01 1.406200e+01
      vertex 2.900000e+01 -4.100300e+01 1.650100e+01
      vertex 2.900000e+01 -4.076300e+01 1.406200e+01
    endloop
  endfacet
  facet normal 0.000000e+00 0.000000e+00 1.000000e+00
    outer loop
      vertex 1.733200e+01 -5.325200e+01 9.002000e+00
      vertex 1.100000e+01 -5.800000e+01 9.002000e+00
      vertex 1.824900e+01 -5.416800e+01 9.002000e+00
    endloop
  endfacet
  facet normal 0.000000e+00 9.792802e-02 -9.951935e-01
    outer loop
      vertex 9.000000e+00 -2.850000e+01 2.900400e+01
      vertex 2.900000e+01 -2.850000e+01 2.900400e+01
      vertex 9.000000e+00 -3.093900e+01 2.876400e+01
    endloop
  endfacet
  facet normal 0.000000e+00 9.792802e-02 -9.951935e-01
    outer loop
      vertex 2.900000e+01 -3.093900e+01 2.876400e+01
      vertex 9.000000e+00 -3.093900e+01 2.876400e+01
      vertex 2.900000e+01 -2.850000e+01 2.900400e+01
    endloop
  endfacet
  facet normal 0.000000e+00 0.000000e+00 1.000000e+00
    outer loop
      vertex 2.075200e+01 -5.416800e+01 9.002000e+00
      vertex 2.800000e+01 -5.800000e+01 9.002000e+00
      vertex 2.166800e+01 -5.325200e+01 9.002000e+00
    endloop
  endfacet
  facet normal 0.000000e+00 0.000000e+00 1.000000e+00
    outer loop
      vertex 2.800000e+01 -4.600100e+01 9.002000e+00
      vertex 2.200300e+01 -5.200000e+01 9.002000e+00
      vertex 2.800000e+01 -5.800000e+01 9.002000e+00
    endloop
  endfacet
  facet normal 0.000000e+00 2.904149e-01 -9.569008e-01
    outer loop
      vertex 2.900000e+01 -3.093900e+01 2.876400e+01
      vertex 2.900000e+01 -3.328500e+01 2.805200e+01
      vertex 9.000000e+00 -3.093900e+01 2.876400e+01
    endloop
  endfacet
  facet normal 0.000000e+00 0.000000e+00 1.000000e+00
    outer loop
      vertex 1.100000e+01 -4.600100e+01 9.002000e+00
      vertex 1.824900e+01 -4.983200e+01 9.002000e+00
      vertex 1.950000e+01 -4.949700e+01 9.002000e+00
    endloop
  endfacet
  facet normal 0.000000e+00 0.000000e+00 1.000000e+00
    outer loop
      vertex 2.075200e+01 -4.983200e+01 9.002000e+00
      vertex 2.800000e+01 -4.600100e+01 9.002000e+00
      vertex 1.950000e+01 -4.949700e+01 9.002000e+00
    endloop
  endfacet
  facet normal 0.000000e+00 -1.000000e+00 0.000000e+00
    outer loop
      vertex 9.999000e+00 -2.800000e+01 1.000000e-03
      vertex 2.800100e+01 -2.800000e+01 0.000000e+00
      vertex 2.800100e+01 -2.800000e+01 1.000000e-03
    endloop
  endfacet
  facet normal 0.000000e+00 -1.000000e+00 0.000000e+00
    outer loop
      vertex 9.999000e+00 -2.800000e+01 1.000000e-03
      vertex 9.999000e+00 -2.800000e+01 0.000000e+00
      vertex 2.800100e+01 -2.800000e+01 0.000000e+00
    endloop
  endfacet
  facet normal 0.000000e+00 0.000000e+00 1.000000e+00
    outer loop
      vertex 2.166800e+01 -5.325200e+01 9.002000e+00
      vertex 2.800000e+01 -5.800000e+01 9.002000e+00
      vertex 2.200300e+01 -5.200000e+01 9.002000e+00
    endloop
  endfacet
  facet normal 0.000000e+00 0.000000e+00 1.000000e+00
    outer loop
      vertex 1.100000e+01 -4.600100e+01 9.002000e+00
      vertex 1.950000e+01 -4.949700e+01 9.002000e+00
      vertex 2.800000e+01 -4.600100e+01 9.002000e+00
    endloop
  endfacet
  facet normal 0.000000e+00 0.000000e+00 1.000000e+00
    outer loop
      vertex 2.075200e+01 -5.416800e+01 9.002000e+00
      vertex 1.950000e+01 -5.450300e+01 9.002000e+00
      vertex 2.800000e+01 -5.800000e+01 9.002000e+00
    endloop
  endfacet
  facet normal 0.000000e+00 0.000000e+00 1.000000e+00
    outer loop
      vertex 1.824900e+01 -5.416800e+01 9.002000e+00
      vertex 1.100000e+01 -5.800000e+01 9.002000e+00
      vertex 1.950000e+01 -5.450300e+01 9.002000e+00
    endloop
  endfacet
  facet normal 0.000000e+00 1.000000e+00 0.000000e+00
    outer loop
      vertex 2.800100e+01 -1.000000e+00 0.000000e+00
      vertex 9.999000e+00 -1.000000e+00 9.002000e+00
      vertex 2.800100e+01 -1.000000e+00 9.002000e+00
    endloop
  endfacet
  facet normal 0.000000e+00 0.000000e+00 1.000000e+00
    outer loop
      vertex 2.800000e+01 -5.800000e+01 9.002000e+00
      vertex 1.950000e+01 -5.450300e+01 9.002000e+00
      vertex 1.100000e+01 -5.800000e+01 9.002000e+00
    endloop
  endfacet
  facet normal 0.000000e+00 0.000000e+00 1.000000e+00
    outer loop
      vertex 1.733200e+01 -5.325200e+01 9.002000e+00
      vertex 1.699700e+01 -5.200000e+01 9.002000e+00
      vertex 1.100000e+01 -5.800000e+01 9.002000e+00
    endloop
  endfacet
  facet normal 0.000000e+00 0.000000e+00 1.000000e+00
    outer loop
      vertex 1.100000e+01 -4.600100e+01 9.002000e+00
      vertex 1.100000e+01 -5.800000e+01 9.002000e+00
      vertex 1.699700e+01 -5.200000e+01 9.002000e+00
    endloop
  endfacet
  facet normal 0.000000e+00 0.000000e+00 1.000000e+00
    outer loop
      vertex 1.699700e+01 -5.200000e+01 9.002000e+00
      vertex 1.733200e+01 -5.074900e+01 9.002000e+00
      vertex 1.100000e+01 -4.600100e+01 9.002000e+00
    endloop
  endfacet
  facet normal 0.000000e+00 1.000000e+00 0.000000e+00
    outer loop
      vertex 2.800100e+01 -1.000000e+00 0.000000e+00
      vertex 9.999000e+00 -1.000000e+00 0.000000e+00
      vertex 9.999000e+00 -1.000000e+00 9.002000e+00
    endloop
  endfacet
  facet normal -1.000000e+00 0.000000e+00 0.000000e+00
    outer loop
      vertex 1.100000e+01 -3.050000e+01 0.000000e+00
      vertex 1.100000e+01 -5.800000e+01 0.000000e+00
      vertex 1.100000e+01 -4.600100e+01 1.000000e-03
    endloop
  endfacet
  facet normal -1.000000e+00 0.000000e+00 0.000000e+00
    outer loop
      vertex 1.100000e+01 -5.800000e+01 0.000000e+00
      vertex 1.100000e+01 -5.800000e+01 9.002000e+00
      vertex 1.100000e+01 -4.600100e+01 1.000000e-03
    endloop
  endfacet
  facet normal -1.000000e+00 0.000000e+00 0.000000e+00
    outer loop
      vertex 1.100000e+01 -4.600100e+01 9.002000e+00
      vertex 1.100000e+01 -4.600100e+01 1.000000e-03
      vertex 1.100000e+01 -5.800000e+01 9.002000e+00
    endloop
  endfacet
  facet normal -9.659653e-01 -2.586718e-01 0.000000e+00
    outer loop
      vertex 2.166800e+01 -5.074900e+01 9.002000e+00
      vertex 2.166800e+01 -5.074900e+01 0.000000e+00
      vertex 2.200300e+01 -5.200000e+01 0.000000e+00
    endloop
  endfacet
  facet normal -9.659653e-01 -2.586718e-01 0.000000e+00
    outer loop
      vertex 2.166800e+01 -5.074900e+01 9.002000e+00
      vertex 2.200300e+01 -5.200000e+01 0.000000e+00
      vertex 2.200300e+01 -5.200000e+01 9.002000e+00
    endloop
  endfacet
  facet normal -7.074925e-01 -7.067209e-01 0.000000e+00
    outer loop
      vertex 2.075200e+01 -4.983200e+01 9.002000e+00
      vertex 2.075200e+01 -4.983200e+01 0.000000e+00
      vertex 2.166800e+01 -5.074900e+01 0.000000e+00
    endloop
  endfacet
  facet normal -7.074925e-01 -7.067209e-01 0.000000e+00
    outer loop
      vertex 2.075200e+01 -4.983200e+01 9.002000e+00
      vertex 2.166800e+01 -5.074900e+01 0.000000e+00
      vertex 2.166800e+01 -5.074900e+01 9.002000e+00
    endloop
  endfacet
  facet normal -2.584790e-01 -9.660169e-01 0.000000e+00
    outer loop
      vertex 2.075200e+01 -4.983200e+01 0.000000e+00
      vertex 2.075200e+01 -4.983200e+01 9.002000e+00
      vertex 1.950000e+01 -4.949700e+01 9.002000e+00
    endloop
  endfacet
  facet normal -2.584790e-01 -9.660169e-01 0.000000e+00
    outer loop
      vertex 2.075200e+01 -4.983200e+01 0.000000e+00
      vertex 1.950000e+01 -4.949700e+01 9.002000e+00
      vertex 1.950000e+01 -4.949700e+01 0.000000e+00
    endloop
  endfacet
  facet normal 2.586718e-01 -9.659653e-01 0.000000e+00
    outer loop
      vertex 1.950000e+01 -4.949700e+01 0.000000e+00
      vertex 1.950000e+01 -4.949700e+01 9.002000e+00
      vertex 1.824900e+01 -4.983200e+01 9.002000e+00
    endloop
  endfacet
  facet normal 2.586718e-01 -9.659653e-01 0.000000e+00
    outer loop
      vertex 1.950000e+01 -4.949700e+01 0.000000e+00
      vertex 1.824900e+01 -4.983200e+01 9.002000e+00
      vertex 1.824900e+01 -4.983200e+01 0.000000e+00
    endloop
  endfacet
  facet normal 0.000000e+00 0.000000e+00 -1.000000e+00
    outer loop
      vertex 1.950000e+01 -1.000300e+01 0.000000e+00
      vertex 9.999000e+00 -2.800000e+01 0.000000e+00
      vertex 1.824900e+01 -9.668000e+00 0.000000e+00
    endloop
  endfacet
  facet normal 0.000000e+00 0.000000e+00 -1.000000e+00
    outer loop
      vertex 2.166800e+01 -8.752000e+00 0.000000e+00
      vertex 2.800100e+01 -2.800000e+01 0.000000e+00
      vertex 2.075200e+01 -9.668000e+00 0.000000e+00
    endloop
  endfacet
  facet normal 0.000000e+00 0.000000e+00 -1.000000e+00
    outer loop
      vertex 2.200300e+01 -7.500000e+00 0.000000e+00
      vertex 2.800100e+01 -2.800000e+01 0.000000e+00
      vertex 2.166800e+01 -8.752000e+00 0.000000e+00
    endloop
  endfacet
  facet normal 0.000000e+00 0.000000e+00 -1.000000e+00
    outer loop
      vertex 2.800100e+01 -1.000000e+00 0.000000e+00
      vertex 2.075200e+01 -5.332000e+00 0.000000e+00
      vertex 1.950000e+01 -4.997000e+00 0.000000e+00
    endloop
  endfacet
  facet normal 0.000000e+00 0.000000e+00 -1.000000e+00
    outer loop
      vertex 1.824900e+01 -5.332000e+00 0.000000e+00
      vertex 9.999000e+00 -1.000000e+00 0.000000e+00
      vertex 1.950000e+01 -4.997000e+00 0.000000e+00
    endloop
  endfacet
  facet normal 0.000000e+00 0.000000e+00 -1.000000e+00
    outer loop
      vertex 1.733200e+01 -6.249000e+00 0.000000e+00
      vertex 9.999000e+00 -1.000000e+00 0.000000e+00
      vertex 1.824900e+01 -5.332000e+00 0.000000e+00
    endloop
  endfacet
  facet normal 0.000000e+00 0.000000e+00 -1.000000e+00
    outer loop
      vertex 2.800100e+01 -1.000000e+00 0.000000e+00
      vertex 1.950000e+01 -4.997000e+00 0.000000e+00
      vertex 9.999000e+00 -1.000000e+00 0.000000e+00
    endloop
  endfacet
  facet normal 0.000000e+00 0.000000e+00 -1.000000e+00
    outer loop
      vertex 2.800100e+01 -1.000000e+00 0.000000e+00
      vertex 2.800100e+01 -2.800000e+01 0.000000e+00
      vertex 2.200300e+01 -7.500000e+00 0.000000e+00
    endloop
  endfacet
  facet normal 0.000000e+00 0.000000e+00 -1.000000e+00
    outer loop
      vertex 2.800100e+01 -1.000000e+00 0.000000e+00
      vertex 2.200300e+01 -7.500000e+00 0.000000e+00
      vertex 2.166800e+01 -6.249000e+00 0.000000e+00
    endloop
  endfacet
  facet normal 0.000000e+00 0.000000e+00 -1.000000e+00
    outer loop
      vertex 2.800100e+01 -1.000000e+00 0.000000e+00
      vertex 2.166800e+01 -6.249000e+00 0.000000e+00
      vertex 2.075200e+01 -5.332000e+00 0.000000e+00
    endloop
  endfacet
  facet normal 0.000000e+00 0.000000e+00 -1.000000e+00
    outer loop
      vertex 9.999000e+00 -2.800000e+01 0.000000e+00
      vertex 1.950000e+01 -1.000300e+01 0.000000e+00
      vertex 2.800100e+01 -2.800000e+01 0.000000e+00
    endloop
  endfacet
  facet normal 0.000000e+00 0.000000e+00 -1.000000e+00
    outer loop
      vertex 9.999000e+00 -1.000000e+00 0.000000e+00
      vertex 1.733200e+01 -6.249000e+00 0.000000e+00
      vertex 1.699700e+01 -7.500000e+00 0.000000e+00
    endloop
  endfacet
  facet normal 0.000000e+00 0.000000e+00 -1.000000e+00
    outer loop
      vertex 9.999000e+00 -1.000000e+00 0.000000e+00
      vertex 1.699700e+01 -7.500000e+00 0.000000e+00
      vertex 9.999000e+00 -2.800000e+01 0.000000e+00
    endloop
  endfacet
  facet normal 0.000000e+00 0.000000e+00 -1.000000e+00
    outer loop
      vertex 1.733200e+01 -8.752000e+00 0.000000e+00
      vertex 1.824900e+01 -9.668000e+00 0.000000e+00
      vertex 9.999000e+00 -2.800000e+01 0.000000e+00
    endloop
  endfacet
  facet normal 0.000000e+00 0.000000e+00 -1.000000e+00
    outer loop
      vertex 2.075200e+01 -9.668000e+00 0.000000e+00
      vertex 2.800100e+01 -2.800000e+01 0.000000e+00
      vertex 1.950000e+01 -1.000300e+01 0.000000e+00
    endloop
  endfacet
  facet normal 0.000000e+00 0.000000e+00 -1.000000e+00
    outer loop
      vertex 1.733200e+01 -8.752000e+00 0.000000e+00
      vertex 9.999000e+00 -2.800000e+01 0.000000e+00
      vertex 1.699700e+01 -7.500000e+00 0.000000e+00
    endloop
  endfacet
  facet normal 0.000000e+00 1.000000e+00 0.000000e+00
    outer loop
      vertex 2.800100e+01 -1.300000e+01 1.000000e-03
      vertex 2.800100e+01 -1.300000e+01 9.002000e+00
      vertex 2.900000e+01 -1.300000e+01 1.000000e-03
    endloop
  endfacet
  facet normal 0.000000e+00 1.000000e+00 0.000000e+00
    outer loop
      vertex 2.900000e+01 -1.300000e+01 3.200200e+01
      vertex 2.900000e+01 -1.300000e+01 1.000000e-03
      vertex 2.800100e+01 -1.300000e+01 9.002000e+00
    endloop
  endfacet
  facet normal 0.000000e+00 -9.792802e-02 -9.951935e-01
    outer loop
      vertex 9.000000e+00 -2.850000e+01 2.900400e+01
      vertex 9.000000e+00 -2.606100e+01 2.876400e+01
      vertex 2.900000e+01 -2.850000e+01 2.900400e+01
    endloop
  endfacet
  facet normal 0.000000e+00 0.000000e+00 -1.000000e+00
    outer loop
      vertex 2.900000e+01 -1.300000e+01 1.000000e-03
      vertex 2.800100e+01 -2.800000e+01 1.000000e-03
      vertex 2.800100e+01 -1.300000e+01 1.000000e-03
    endloop
  endfacet
  facet normal 1.000000e+00 0.000000e+00 0.000000e+00
    outer loop
      vertex 2.800100e+01 -2.800000e+01 0.000000e+00
      vertex 2.800100e+01 -1.000000e+00 0.000000e+00
      vertex 2.800100e+01 -1.300000e+01 1.000000e-03
    endloop
  endfacet
  facet normal 1.000000e+00 0.000000e+00 0.000000e+00
    outer loop
      vertex 2.800100e+01 -1.000000e+00 9.002000e+00
      vertex 2.800100e+01 -1.300000e+01 1.000000e-03
      vertex 2.800100e+01 -1.000000e+00 0.000000e+00
    endloop
  endfacet
  facet normal 1.000000e+00 0.000000e+00 0.000000e+00
    outer loop
      vertex 2.800100e+01 -1.000000e+00 9.002000e+00
      vertex 2.800100e+01 -1.300000e+01 9.002000e+00
      vertex 2.800100e+01 -1.300000e+01 1.000000e-03
    endloop
  endfacet
  facet normal 1.000000e+00 0.000000e+00 0.000000e+00
    outer loop
      vertex 2.800100e+01 -1.300000e+01 1.000000e-03
      vertex 2.800100e+01 -2.800000e+01 1.000000e-03
      vertex 2.800100e+01 -2.800000e+01 0.000000e+00
    endloop
  endfacet
  facet normal 0.000000e+00 1.000000e+00 0.000000e+00
    outer loop
      vertex 2.900000e+01 -1.300000e+01 3.200200e+01
      vertex 2.800100e+01 -1.300000e+01 9.002000e+00
      vertex 9.000000e+00 -1.300000e+01 3.200200e+01
    endloop
  endfacet
  facet normal 0.000000e+00 1.000000e+00 0.000000e+00
    outer loop
      vertex 9.999000e+00 -1.300000e+01 9.002000e+00
      vertex 9.000000e+00 -1.300000e+01 3.200200e+01
      vertex 2.800100e+01 -1.300000e+01 9.002000e+00
    endloop
  endfacet
  facet normal 0.000000e+00 1.000000e+00 0.000000e+00
    outer loop
      vertex 9.000000e+00 -1.300000e+01 1.000000e-03
      vertex 9.000000e+00 -1.300000e+01 3.200200e+01
      vertex 9.999000e+00 -1.300000e+01 9.002000e+00
    endloop
  endfacet
  facet normal 1.000000e+00 0.000000e+00 0.000000e+00
    outer loop
      vertex 2.900000e+01 -2.371500e+01 4.950000e+00
      vertex 2.900000e+01 -1.300000e+01 1.000000e-03
      vertex 2.900000e+01 -2.155400e+01 6.105000e+00
    endloop
  endfacet
  facet normal 0.000000e+00 0.000000e+00 1.000000e+00
    outer loop
      vertex 9.000000e+00 -4.600100e+01 3.200200e+01
      vertex 2.900000e+01 -1.300000e+01 3.200200e+01
      vertex 9.000000e+00 -1.300000e+01 3.200200e+01
    endloop
  endfacet
  facet normal 1.000000e+00 0.000000e+00 0.000000e+00
    outer loop
      vertex 2.900000e+01 -1.965900e+01 7.660000e+00
      vertex 2.900000e+01 -1.300000e+01 1.000000e-03
      vertex 2.900000e+01 -1.810400e+01 9.555000e+00
    endloop
  endfacet
  facet normal 1.000000e+00 0.000000e+00 0.000000e+00
    outer loop
      vertex 2.900000e+01 -1.694900e+01 1.171600e+01
      vertex 2.900000e+01 -1.300000e+01 1.000000e-03
      vertex 2.900000e+01 -1.623700e+01 1.406200e+01
    endloop
  endfacet
  facet normal -1.000000e+00 0.000000e+00 0.000000e+00
    outer loop
      vertex 9.000000e+00 -1.623700e+01 1.406200e+01
      vertex 9.000000e+00 -1.300000e+01 1.000000e-03
      vertex 9.000000e+00 -1.694900e+01 1.171600e+01
    endloop
  endfacet
  facet normal -1.000000e+00 0.000000e+00 0.000000e+00
    outer loop
      vertex 9.000000e+00 -1.300000e+01 3.200200e+01
      vertex 9.000000e+00 -1.300000e+01 1.000000e-03
      vertex 9.000000e+00 -1.599700e+01 1.650100e+01
    endloop
  endfacet
  facet normal 1.000000e+00 0.000000e+00 0.000000e+00
    outer loop
      vertex 2.900000e+01 -1.694900e+01 2.128600e+01
      vertex 2.900000e+01 -1.300000e+01 3.200200e+01
      vertex 2.900000e+01 -1.810400e+01 2.344700e+01
    endloop
  endfacet
  facet normal 1.000000e+00 0.000000e+00 0.000000e+00
    outer loop
      vertex 2.900000e+01 -1.965900e+01 2.534200e+01
      vertex 2.900000e+01 -1.810400e+01 2.344700e+01
      vertex 2.900000e+01 -1.300000e+01 3.200200e+01
    endloop
  endfacet
  facet normal 1.000000e+00 0.000000e+00 0.000000e+00
    outer loop
      vertex 2.900000e+01 -2.155400e+01 2.689700e+01
      vertex 2.900000e+01 -1.965900e+01 2.534200e+01
      vertex 2.900000e+01 -1.300000e+01 3.200200e+01
    endloop
  endfacet
  facet normal -1.000000e+00 0.000000e+00 0.000000e+00
    outer loop
      vertex 9.000000e+00 -1.694900e+01 2.128600e+01
      vertex 9.000000e+00 -1.810400e+01 2.344700e+01
      vertex 9.000000e+00 -1.300000e+01 3.200200e+01
    endloop
  endfacet
  facet normal -1.000000e+00 0.000000e+00 0.000000e+00
    outer loop
      vertex 9.000000e+00 -2.371500e+01 2.805200e+01
      vertex 9.000000e+00 -1.300000e+01 3.200200e+01
      vertex 9.000000e+00 -2.155400e+01 2.689700e+01
    endloop
  endfacet
  facet normal -1.000000e+00 0.000000e+00 0.000000e+00
    outer loop
      vertex 9.000000e+00 -1.300000e+01 3.200200e+01
      vertex 9.000000e+00 -1.810400e+01 2.344700e+01
      vertex 9.000000e+00 -1.965900e+01 2.534200e+01
    endloop
  endfacet
  facet normal 1.000000e+00 0.000000e+00 0.000000e+00
    outer loop
      vertex 2.900000e+01 -2.606100e+01 2.876400e+01
      vertex 2.900000e+01 -2.371500e+01 2.805200e+01
      vertex 2.900000e+01 -1.300000e+01 3.200200e+01
    endloop
  endfacet
  facet normal 1.000000e+00 0.000000e+00 0.000000e+00
    outer loop
      vertex 2.900000e+01 -2.850000e+01 2.900400e+01
      vertex 2.900000e+01 -2.606100e+01 2.876400e+01
      vertex 2.900000e+01 -1.300000e+01 3.200200e+01
    endloop
  endfacet
  facet normal -1.000000e+00 0.000000e+00 0.000000e+00
    outer loop
      vertex 9.000000e+00 -2.371500e+01 2.805200e+01
      vertex 9.000000e+00 -2.606100e+01 2.876400e+01
      vertex 9.000000e+00 -1.300000e+01 3.200200e+01
    endloop
  endfacet
  facet normal -1.000000e+00 0.000000e+00 0.000000e+00
    outer loop
      vertex 9.000000e+00 -2.606100e+01 2.876400e+01
      vertex 9.000000e+00 -2.850000e+01 2.900400e+01
      vertex 9.000000e+00 -1.300000e+01 3.200200e+01
    endloop
  endfacet
  facet normal 1.000000e+00 0.000000e+00 0.000000e+00
    outer loop
      vertex 2.900000e+01 -2.371500e+01 2.805200e+01
      vertex 2.900000e+01 -2.155400e+01 2.689700e+01
      vertex 2.900000e+01 -1.300000e+01 3.200200e+01
    endloop
  endfacet
  facet normal 1.000000e+00 0.000000e+00 0.000000e+00
    outer loop
      vertex 2.900000e+01 -1.623700e+01 1.894000e+01
      vertex 2.900000e+01 -1.300000e+01 3.200200e+01
      vertex 2.900000e+01 -1.694900e+01 2.128600e+01
    endloop
  endfacet
  facet normal 1.000000e+00 0.000000e+00 0.000000e+00
    outer loop
      vertex 2.900000e+01 -1.300000e+01 1.000000e-03
      vertex 2.900000e+01 -1.300000e+01 3.200200e+01
      vertex 2.900000e+01 -1.599700e+01 1.650100e+01
    endloop
  endfacet
  facet normal 1.000000e+00 0.000000e+00 0.000000e+00
    outer loop
      vertex 2.900000e+01 -1.623700e+01 1.406200e+01
      vertex 2.900000e+01 -1.300000e+01 1.000000e-03
      vertex 2.900000e+01 -1.599700e+01 1.650100e+01
    endloop
  endfacet
  facet normal 1.000000e+00 0.000000e+00 0.000000e+00
    outer loop
      vertex 2.900000e+01 -1.300000e+01 3.200200e+01
      vertex 2.900000e+01 -1.623700e+01 1.894000e+01
      vertex 2.900000e+01 -1.599700e+01 1.650100e+01
    endloop
  endfacet
  facet normal 1.000000e+00 0.000000e+00 0.000000e+00
    outer loop
      vertex 2.900000e+01 -1.694900e+01 1.171600e+01
      vertex 2.900000e+01 -1.810400e+01 9.555000e+00
      vertex 2.900000e+01 -1.300000e+01 1.000000e-03
    endloop
  endfacet
  facet normal 1.000000e+00 0.000000e+00 0.000000e+00
    outer loop
      vertex 2.900000e+01 -2.155400e+01 6.105000e+00
      vertex 2.900000e+01 -1.300000e+01 1.000000e-03
      vertex 2.900000e+01 -1.965900e+01 7.660000e+00
    endloop
  endfacet
  facet normal 1.000000e+00 0.000000e+00 0.000000e+00
    outer loop
      vertex 2.900000e+01 -2.371500e+01 4.950000e+00
      vertex 2.900000e+01 -2.606100e+01 4.238000e+00
      vertex 2.900000e+01 -1.300000e+01 1.000000e-03
    endloop
  endfacet
  facet normal 1.000000e+00 0.000000e+00 0.000000e+00
    outer loop
      vertex 2.900000e+01 -2.606100e+01 4.238000e+00
      vertex 2.900000e+01 -2.850000e+01 3.998000e+00
      vertex 2.900000e+01 -1.300000e+01 1.000000e-03
    endloop
  endfacet
  facet normal -1.000000e+00 0.000000e+00 0.000000e+00
    outer loop
      vertex 9.000000e+00 -1.623700e+01 1.406200e+01
      vertex 9.000000e+00 -1.599700e+01 1.650100e+01
      vertex 9.000000e+00 -1.300000e+01 1.000000e-03
    endloop
  endfacet
  facet normal -1.000000e+00 0.000000e+00 0.000000e+00
    outer loop
      vertex 9.000000e+00 -1.300000e+01 3.200200e+01
      vertex 9.000000e+00 -1.599700e+01 1.650100e+01
      vertex 9.000000e+00 -1.623700e+01 1.894000e+01
    endloop
  endfacet
  facet normal -1.000000e+00 0.000000e+00 0.000000e+00
    outer loop
      vertex 9.000000e+00 -1.694900e+01 2.128600e+01
      vertex 9.000000e+00 -1.300000e+01 3.200200e+01
      vertex 9.000000e+00 -1.623700e+01 1.894000e+01
    endloop
  endfacet
  facet normal -1.000000e+00 0.000000e+00 0.000000e+00
    outer loop
      vertex 9.000000e+00 -1.965900e+01 2.534200e+01
      vertex 9.000000e+00 -2.155400e+01 2.689700e+01
      vertex 9.000000e+00 -1.300000e+01 3.200200e+01
    endloop
  endfacet
  facet normal 0.000000e+00 -9.569008e-01 2.904149e-01
    outer loop
      vertex 9.000000e+00 -1.694900e+01 1.171600e+01
      vertex 2.900000e+01 -1.694900e+01 1.171600e+01
      vertex 9.000000e+00 -1.623700e+01 1.406200e+01
    endloop
  endfacet
  facet normal 0.000000e+00 -2.904149e-01 9.569008e-01
    outer loop
      vertex 9.000000e+00 -2.371500e+01 4.950000e+00
      vertex 2.900000e+01 -2.606100e+01 4.238000e+00
      vertex 2.900000e+01 -2.371500e+01 4.950000e+00
    endloop
  endfacet
  facet normal 0.000000e+00 -4.713718e-01 8.819346e-01
    outer loop
      vertex 9.000000e+00 -2.371500e+01 4.950000e+00
      vertex 2.900000e+01 -2.371500e+01 4.950000e+00
      vertex 9.000000e+00 -2.155400e+01 6.105000e+00
    endloop
  endfacet
  facet normal 0.000000e+00 -4.713718e-01 8.819346e-01
    outer loop
      vertex 2.900000e+01 -2.155400e+01 6.105000e+00
      vertex 9.000000e+00 -2.155400e+01 6.105000e+00
      vertex 2.900000e+01 -2.371500e+01 4.950000e+00
    endloop
  endfacet
  facet normal 0.000000e+00 -6.343479e-01 7.730477e-01
    outer loop
      vertex 2.900000e+01 -2.155400e+01 6.105000e+00
      vertex 2.900000e+01 -1.965900e+01 7.660000e+00
      vertex 9.000000e+00 -2.155400e+01 6.105000e+00
    endloop
  endfacet
  facet normal 0.000000e+00 -6.343479e-01 7.730477e-01
    outer loop
      vertex 9.000000e+00 -1.965900e+01 7.660000e+00
      vertex 9.000000e+00 -2.155400e+01 6.105000e+00
      vertex 2.900000e+01 -1.965900e+01 7.660000e+00
    endloop
  endfacet
  facet normal 0.000000e+00 -7.730477e-01 6.343479e-01
    outer loop
      vertex 2.900000e+01 -1.810400e+01 9.555000e+00
      vertex 9.000000e+00 -1.810400e+01 9.555000e+00
      vertex 2.900000e+01 -1.965900e+01 7.660000e+00
    endloop
  endfacet
  facet normal 0.000000e+00 -8.819346e-01 4.713718e-01
    outer loop
      vertex 2.900000e+01 -1.694900e+01 1.171600e+01
      vertex 9.000000e+00 -1.694900e+01 1.171600e+01
      vertex 9.000000e+00 -1.810400e+01 9.555000e+00
    endloop
  endfacet
  facet normal 0.000000e+00 -8.819346e-01 4.713718e-01
    outer loop
      vertex 2.900000e+01 -1.694900e+01 1.171600e+01
      vertex 9.000000e+00 -1.810400e+01 9.555000e+00
      vertex 2.900000e+01 -1.810400e+01 9.555000e+00
    endloop
  endfacet
  facet normal 0.000000e+00 -9.569008e-01 2.904149e-01
    outer loop
      vertex 2.900000e+01 -1.623700e+01 1.406200e+01
      vertex 9.000000e+00 -1.623700e+01 1.406200e+01
      vertex 2.900000e+01 -1.694900e+01 1.171600e+01
    endloop
  endfacet
  facet normal 0.000000e+00 -9.951935e-01 9.792802e-02
    outer loop
      vertex 9.000000e+00 -1.599700e+01 1.650100e+01
      vertex 9.000000e+00 -1.623700e+01 1.406200e+01
      vertex 2.900000e+01 -1.599700e+01 1.650100e+01
    endloop
  endfacet
  facet normal 0.000000e+00 -9.951935e-01 9.792802e-02
    outer loop
      vertex 2.900000e+01 -1.623700e+01 1.406200e+01
      vertex 2.900000e+01 -1.599700e+01 1.650100e+01
      vertex 9.000000e+00 -1.623700e+01 1.406200e+01
    endloop
  endfacet
  facet normal 0.000000e+00 -9.951935e-01 -9.792802e-02
    outer loop
      vertex 9.000000e+00 -1.599700e+01 1.650100e+01
      vertex 2.900000e+01 -1.599700e+01 1.650100e+01
      vertex 9.000000e+00 -1.623700e+01 1.894000e+01
    endloop
  endfacet
  facet normal 0.000000e+00 -9.951935e-01 -9.792802e-02
    outer loop
      vertex 2.900000e+01 -1.623700e+01 1.894000e+01
      vertex 9.000000e+00 -1.623700e+01 1.894000e+01
      vertex 2.900000e+01 -1.599700e+01 1.650100e+01
    endloop
  endfacet
  facet normal 0.000000e+00 -9.569008e-01 -2.904149e-01
    outer loop
      vertex 9.000000e+00 -1.623700e+01 1.894000e+01
      vertex 2.900000e+01 -1.623700e+01 1.894000e+01
      vertex 9.000000e+00 -1.694900e+01 2.128600e+01
    endloop
  endfacet
  facet normal 0.000000e+00 -9.569008e-01 -2.904149e-01
    outer loop
      vertex 2.900000e+01 -1.694900e+01 2.128600e+01
      vertex 9.000000e+00 -1.694900e+01 2.128600e+01
      vertex 2.900000e+01 -1.623700e+01 1.894000e+01
    endloop
  endfacet
  facet normal 0.000000e+00 -8.819346e-01 -4.713718e-01
    outer loop
      vertex 2.900000e+01 -1.694900e+01 2.128600e+01
      vertex 2.900000e+01 -1.810400e+01 2.344700e+01
      vertex 9.000000e+00 -1.694900e+01 2.128600e+01
    endloop
  endfacet
  facet normal 0.000000e+00 -8.819346e-01 -4.713718e-01
    outer loop
      vertex 9.000000e+00 -1.810400e+01 2.344700e+01
      vertex 9.000000e+00 -1.694900e+01 2.128600e+01
      vertex 2.900000e+01 -1.810400e+01 2.344700e+01
    endloop
  endfacet
  facet normal 0.000000e+00 -7.730477e-01 -6.343479e-01
    outer loop
      vertex 2.900000e+01 -1.965900e+01 2.534200e+01
      vertex 9.000000e+00 -1.965900e+01 2.534200e+01
      vertex 9.000000e+00 -1.810400e+01 2.344700e+01
    endloop
  endfacet
  facet normal 0.000000e+00 -7.730477e-01 -6.343479e-01
    outer loop
      vertex 2.900000e+01 -1.965900e+01 2.534200e+01
      vertex 9.000000e+00 -1.810400e+01 2.344700e+01
      vertex 2.900000e+01 -1.810400e+01 2.344700e+01
    endloop
  endfacet
  facet normal 0.000000e+00 -6.343479e-01 -7.730477e-01
    outer loop
      vertex 9.000000e+00 -1.965900e+01 2.534200e+01
      vertex 2.900000e+01 -1.965900e+01 2.534200e+01
      vertex 9.000000e+00 -2.155400e+01 2.689700e+01
    endloop
  endfacet
  facet normal 0.000000e+00 -6.343479e-01 -7.730477e-01
    outer loop
      vertex 2.900000e+01 -2.155400e+01 2.689700e+01
      vertex 9.000000e+00 -2.155400e+01 2.689700e+01
      vertex 2.900000e+01 -1.965900e+01 2.534200e+01
    endloop
  endfacet
  facet normal 0.000000e+00 -4.713718e-01 -8.819346e-01
    outer loop
      vertex 2.900000e+01 -2.371500e+01 2.805200e+01
      vertex 9.000000e+00 -2.371500e+01 2.805200e+01
      vertex 9.000000e+00 -2.155400e+01 2.689700e+01
    endloop
  endfacet
  facet normal 0.000000e+00 -4.713718e-01 -8.819346e-01
    outer loop
      vertex 2.900000e+01 -2.371500e+01 2.805200e+01
      vertex 9.000000e+00 -2.155400e+01 2.689700e+01
      vertex 2.900000e+01 -2.155400e+01 2.689700e+01
    endloop
  endfacet
  facet normal 0.000000e+00 -2.904149e-01 -9.569008e-01
    outer loop
      vertex 9.000000e+00 -2.371500e+01 2.805200e+01
      vertex 2.900000e+01 -2.371500e+01 2.805200e+01
      vertex 9.000000e+00 -2.606100e+01 2.876400e+01
    endloop
  endfacet
  facet normal 0.000000e+00 -2.904149e-01 -9.569008e-01
    outer loop
      vertex 2.900000e+01 -2.606100e+01 2.876400e+01
      vertex 9.000000e+00 -2.606100e+01 2.876400e+01
      vertex 2.900000e+01 -2.371500e+01 2.805200e+01
    endloop
  endfacet
  facet normal 0.000000e+00 -9.792802e-02 -9.951935e-01
    outer loop
      vertex 2.900000e+01 -2.606100e+01 2.876400e+01
      vertex 2.900000e+01 -2.850000e+01 2.900400e+01
      vertex 9.000000e+00 -2.606100e+01 2.876400e+01
    endloop
  endfacet
  facet normal 0.000000e+00 0.000000e+00 1.000000e+00
    outer loop
      vertex 2.800100e+01 -1.000000e+00 9.002000e+00
      vertex 2.075200e+01 -5.332000e+00 9.002000e+00
      vertex 2.166800e+01 -6.249000e+00 9.002000e+00
    endloop
  endfacet
  facet normal 0.000000e+00 0.000000e+00 1.000000e+00
    outer loop
      vertex 1.824900e+01 -5.332000e+00 9.002000e+00
      vertex 9.999000e+00 -1.000000e+00 9.002000e+00
      vertex 1.733200e+01 -6.249000e+00 9.002000e+00
    endloop
  endfacet
  facet normal 0.000000e+00 0.000000e+00 1.000000e+00
    outer loop
      vertex 1.733200e+01 -8.752000e+00 9.002000e+00
      vertex 9.999000e+00 -1.300000e+01 9.002000e+00
      vertex 1.824900e+01 -9.668000e+00 9.002000e+00
    endloop
  endfacet
  facet normal 0.000000e+00 0.000000e+00 1.000000e+00
    outer loop
      vertex 2.075200e+01 -9.668000e+00 9.002000e+00
      vertex 2.800100e+01 -1.300000e+01 9.002000e+00
      vertex 2.166800e+01 -8.752000e+00 9.002000e+00
    endloop
  endfacet
  facet normal 0.000000e+00 0.000000e+00 1.000000e+00
    outer loop
      vertex 2.800100e+01 -1.000000e+00 9.002000e+00
      vertex 9.999000e+00 -1.000000e+00 9.002000e+00
      vertex 1.950000e+01 -4.997000e+00 9.002000e+00
    endloop
  endfacet
  facet normal 0.000000e+00 0.000000e+00 1.000000e+00
    outer loop
      vertex 2.075200e+01 -5.332000e+00 9.002000e+00
      vertex 2.800100e+01 -1.000000e+00 9.002000e+00
      vertex 1.950000e+01 -4.997000e+00 9.002000e+00
    endloop
  endfacet
  facet normal 0.000000e+00 0.000000e+00 1.000000e+00
    outer loop
      vertex 2.200300e+01 -7.500000e+00 9.002000e+00
      vertex 2.800100e+01 -1.000000e+00 9.002000e+00
      vertex 2.166800e+01 -6.249000e+00 9.002000e+00
    endloop
  endfacet
  facet normal 0.000000e+00 0.000000e+00 1.000000e+00
    outer loop
      vertex 2.166800e+01 -8.752000e+00 9.002000e+00
      vertex 2.800100e+01 -1.300000e+01 9.002000e+00
      vertex 2.200300e+01 -7.500000e+00 9.002000e+00
    endloop
  endfacet
  facet normal 0.000000e+00 0.000000e+00 1.000000e+00
    outer loop
      vertex 9.999000e+00 -1.300000e+01 9.002000e+00
      vertex 2.800100e+01 -1.300000e+01 9.002000e+00
      vertex 1.950000e+01 -1.000300e+01 9.002000e+00
    endloop
  endfacet
  facet normal 0.000000e+00 0.000000e+00 1.000000e+00
    outer loop
      vertex 2.075200e+01 -9.668000e+00 9.002000e+00
      vertex 1.950000e+01 -1.000300e+01 9.002000e+00
      vertex 2.800100e+01 -1.300000e+01 9.002000e+00
    endloop
  endfacet
  facet normal 0.000000e+00 0.000000e+00 1.000000e+00
    outer loop
      vertex 2.800100e+01 -1.000000e+00 9.002000e+00
      vertex 2.200300e+01 -7.500000e+00 9.002000e+00
      vertex 2.800100e+01 -1.300000e+01 9.002000e+00
    endloop
  endfacet
  facet normal 0.000000e+00 0.000000e+00 1.000000e+00
    outer loop
      vertex 1.950000e+01 -1.000300e+01 9.002000e+00
      vertex 1.824900e+01 -9.668000e+00 9.002000e+00
      vertex 9.999000e+00 -1.300000e+01 9.002000e+00
    endloop
  endfacet
  facet normal 0.000000e+00 0.000000e+00 1.000000e+00
    outer loop
      vertex 1.733200e+01 -8.752000e+00 9.002000e+00
      vertex 1.699700e+01 -7.500000e+00 9.002000e+00
      vertex 9.999000e+00 -1.300000e+01 9.002000e+00
    endloop
  endfacet
  facet normal 0.000000e+00 0.000000e+00 1.000000e+00
    outer loop
      vertex 9.999000e+00 -1.000000e+00 9.002000e+00
      vertex 9.999000e+00 -1.300000e+01 9.002000e+00
      vertex 1.699700e+01 -7.500000e+00 9.002000e+00
    endloop
  endfacet
  facet normal 0.000000e+00 0.000000e+00 1.000000e+00
    outer loop
      vertex 1.699700e+01 -7.500000e+00 9.002000e+00
      vertex 1.733200e+01 -6.249000e+00 9.002000e+00
      vertex 9.999000e+00 -1.000000e+00 9.002000e+00
    endloop
  endfacet
  facet normal 0.000000e+00 0.000000e+00 1.000000e+00
    outer loop
      vertex 1.824900e+01 -5.332000e+00 9.002000e+00
      vertex 1.950000e+01 -4.997000e+00 9.002000e+00
      vertex 9.999000e+00 -1.000000e+00 9.002000e+00
    endloop
  endfacet
  facet normal 0.000000e+00 1.000000e+00 0.000000e+00
    outer loop
      vertex 9.000000e+00 -1.300000e+01 1.000000e-03
      vertex 9.999000e+00 -1.300000e+01 9.002000e+00
      vertex 9.999000e+00 -1.300000e+01 1.000000e-03
    endloop
  endfacet
  facet normal 0.000000e+00 0.000000e+00 -1.000000e+00
    outer loop
      vertex 9.000000e+00 -4.600100e+01 1.000000e-03
      vertex 9.000000e+00 -1.300000e+01 1.000000e-03
      vertex 9.999000e+00 -2.800000e+01 1.000000e-03
    endloop
  endfacet
  facet normal 0.000000e+00 0.000000e+00 -1.000000e+00
    outer loop
      vertex 9.999000e+00 -1.300000e+01 1.000000e-03
      vertex 9.999000e+00 -2.800000e+01 1.000000e-03
      vertex 9.000000e+00 -1.300000e+01 1.000000e-03
    endloop
  endfacet
  facet normal -1.000000e+00 0.000000e+00 0.000000e+00
    outer loop
      vertex 9.000000e+00 -4.600100e+01 1.000000e-03
      vertex 9.000000e+00 -2.850000e+01 3.998000e+00
      vertex 9.000000e+00 -1.300000e+01 1.000000e-03
    endloop
  endfacet
  facet normal -1.000000e+00 0.000000e+00 0.000000e+00
    outer loop
      vertex 9.000000e+00 -2.371500e+01 4.950000e+00
      vertex 9.000000e+00 -1.300000e+01 1.000000e-03
      vertex 9.000000e+00 -2.606100e+01 4.238000e+00
    endloop
  endfacet
  facet normal -1.000000e+00 0.000000e+00 0.000000e+00
    outer loop
      vertex 9.000000e+00 -2.155400e+01 6.105000e+00
      vertex 9.000000e+00 -1.300000e+01 1.000000e-03
      vertex 9.000000e+00 -2.371500e+01 4.950000e+00
    endloop
  endfacet
  facet normal -1.000000e+00 0.000000e+00 0.000000e+00
    outer loop
      vertex 9.000000e+00 -1.965900e+01 7.660000e+00
      vertex 9.000000e+00 -1.300000e+01 1.000000e-03
      vertex 9.000000e+00 -2.155400e+01 6.105000e+00
    endloop
  endfacet
  facet normal -1.000000e+00 0.000000e+00 0.000000e+00
    outer loop
      vertex 9.000000e+00 -1.300000e+01 1.000000e-03
      vertex 9.000000e+00 -1.965900e+01 7.660000e+00
      vertex 9.000000e+00 -1.810400e+01 9.555000e+00
    endloop
  endfacet
  facet normal -1.000000e+00 0.000000e+00 0.000000e+00
    outer loop
      vertex 9.000000e+00 -1.694900e+01 1.171600e+01
      vertex 9.000000e+00 -1.300000e+01 1.000000e-03
      vertex 9.000000e+00 -1.810400e+01 9.555000e+00
    endloop
  endfacet
endsolid Default
