solid Default
  facet normal 1.000000e+00 0.000000e+00 0.000000e+00
    outer loop
      vertex 1.200100e+01 -8.497000e+00 1.100100e+01
      vertex 1.200100e+01 1.100000e+01 2.000000e+01
      vertex 1.200100e+01 -8.698000e+00 1.200200e+01
    endloop
  endfacet
  facet normal 1.000000e+00 0.000000e+00 0.000000e+00
    outer loop
      vertex 1.200100e+01 -8.698000e+00 1.200200e+01
      vertex 1.200100e+01 1.100000e+01 2.000000e+01
      vertex 1.200100e+01 -9.248000e+00 1.273600e+01
    endloop
  endfacet
  facet normal 1.000000e+00 0.000000e+00 0.000000e+00
    outer loop
      vertex 1.200100e+01 -1.500100e+01 2.000000e+01
      vertex 1.200100e+01 -1.000000e+01 1.300400e+01
      vertex 1.200100e+01 1.100000e+01 2.000000e+01
    endloop
  endfacet
  facet normal 1.000000e+00 0.000000e+00 0.000000e+00
    outer loop
      vertex 1.200100e+01 -9.248000e+00 1.273600e+01
      vertex 1.200100e+01 1.100000e+01 2.000000e+01
      vertex 1.200100e+01 -1.000000e+01 1.300400e+01
    endloop
  endfacet
  facet normal 1.000000e+00 0.000000e+00 0.000000e+00
    outer loop
      vertex 1.200100e+01 -1.075200e+01 1.273600e+01
      vertex 1.200100e+01 -1.000000e+01 1.300400e+01
      vertex 1.200100e+01 -1.500100e+01 2.000000e+01
    endloop
  endfacet
  facet normal 1.000000e+00 0.000000e+00 0.000000e+00
    outer loop
      vertex 1.200100e+01 -1.130200e+01 1.200200e+01
      vertex 1.200100e+01 -1.075200e+01 1.273600e+01
      vertex 1.200100e+01 -1.500100e+01 2.000000e+01
    endloop
  endfacet
  facet normal 1.000000e+00 0.000000e+00 0.000000e+00
    outer loop
      vertex 1.200100e+01 -1.130200e+01 9.999000e+00
      vertex 1.200100e+01 -1.500100e+01 0.000000e+00
      vertex 1.200100e+01 -1.075200e+01 9.266000e+00
    endloop
  endfacet
  facet normal 1.000000e+00 0.000000e+00 0.000000e+00
    outer loop
      vertex 1.200100e+01 -8.698000e+00 9.999000e+00
      vertex 1.200100e+01 1.100000e+01 0.000000e+00
      vertex 1.200100e+01 -8.497000e+00 1.100100e+01
    endloop
  endfacet
  facet normal 1.000000e+00 0.000000e+00 0.000000e+00
    outer loop
      vertex 1.200100e+01 -9.248000e+00 9.266000e+00
      vertex 1.200100e+01 -1.000000e+01 8.998000e+00
      vertex 1.200100e+01 1.100000e+01 0.000000e+00
    endloop
  endfacet
  facet normal 1.000000e+00 0.000000e+00 0.000000e+00
    outer loop
      vertex 1.200100e+01 -1.500100e+01 0.000000e+00
      vertex 1.200100e+01 1.100000e+01 0.000000e+00
      vertex 1.200100e+01 -1.000000e+01 8.998000e+00
    endloop
  endfacet
  facet normal 1.000000e+00 0.000000e+00 0.000000e+00
    outer loop
      vertex 1.200100e+01 -1.000000e+01 8.998000e+00
      vertex 1.200100e+01 -1.075200e+01 9.266000e+00
      vertex 1.200100e+01 -1.500100e+01 0.000000e+00
    endloop
  endfacet
  facet normal 1.000000e+00 0.000000e+00 0.000000e+00
    outer loop
      vertex 1.200100e+01 -8.698000e+00 9.999000e+00
      vertex 1.200100e+01 -9.248000e+00 9.266000e+00
      vertex 1.200100e+01 1.100000e+01 0.000000e+00
    endloop
  endfacet
  facet normal 1.000000e+00 0.000000e+00 0.000000e+00
    outer loop
      vertex 1.200100e+01 1.100000e+01 2.000000e+01
      vertex 1.200100e+01 -8.497000e+00 1.100100e+01
      vertex 1.200100e+01 1.100000e+01 0.000000e+00
    endloop
  endfacet
  facet normal 1.000000e+00 0.000000e+00 0.000000e+00
    outer loop
      vertex 1.200100e+01 -1.130200e+01 9.999000e+00
      vertex 1.200100e+01 -1.150300e+01 1.100100e+01
      vertex 1.200100e+01 -1.500100e+01 0.000000e+00
    endloop
  endfacet
  facet normal 1.000000e+00 0.000000e+00 0.000000e+00
    outer loop
      vertex 1.200100e+01 -1.500100e+01 2.000000e+01
      vertex 1.200100e+01 -1.500100e+01 0.000000e+00
      vertex 1.200100e+01 -1.150300e+01 1.100100e+01
    endloop
  endfacet
  facet normal 1.000000e+00 0.000000e+00 0.000000e+00
    outer loop
      vertex 1.200100e+01 -1.150300e+01 1.100100e+01
      vertex 1.200100e+01 -1.130200e+01 1.200200e+01
      vertex 1.200100e+01 -1.500100e+01 2.000000e+01
    endloop
  endfacet
  facet normal -1.000000e+00 0.000000e+00 0.000000e+00
    outer loop
      vertex -3.600000e+01 -8.698000e+00 1.200200e+01
      vertex -3.600000e+01 1.299900e+01 2.000000e+01
      vertex -3.600000e+01 -8.497000e+00 1.100100e+01
    endloop
  endfacet
  facet normal -1.000000e+00 0.000000e+00 0.000000e+00
    outer loop
      vertex -3.600000e+01 -9.248000e+00 1.273600e+01
      vertex -3.600000e+01 1.299900e+01 2.000000e+01
      vertex -3.600000e+01 -8.698000e+00 1.200200e+01
    endloop
  endfacet
  facet normal -1.000000e+00 0.000000e+00 0.000000e+00
    outer loop
      vertex -3.600000e+01 1.299900e+01 2.000000e+01
      vertex -3.600000e+01 1.299900e+01 0.000000e+00
      vertex -3.600000e+01 -8.497000e+00 1.100100e+01
    endloop
  endfacet
  facet normal -1.000000e+00 0.000000e+00 0.000000e+00
    outer loop
      vertex -3.600000e+01 -1.500000e+01 2.000000e+01
      vertex -3.600000e+01 1.299900e+01 2.000000e+01
      vertex -3.600000e+01 -1.000000e+01 1.300400e+01
    endloop
  endfacet
  facet normal -1.000000e+00 0.000000e+00 0.000000e+00
    outer loop
      vertex -3.600000e+01 -1.075200e+01 1.273600e+01
      vertex -3.600000e+01 -1.500000e+01 2.000000e+01
      vertex -3.600000e+01 -1.000000e+01 1.300400e+01
    endloop
  endfacet
  facet normal -1.000000e+00 0.000000e+00 0.000000e+00
    outer loop
      vertex -3.600000e+01 -9.248000e+00 1.273600e+01
      vertex -3.600000e+01 -1.000000e+01 1.300400e+01
      vertex -3.600000e+01 1.299900e+01 2.000000e+01
    endloop
  endfacet
  facet normal -1.000000e+00 0.000000e+00 0.000000e+00
    outer loop
      vertex -3.600000e+01 -1.130200e+01 1.200200e+01
      vertex -3.600000e+01 -1.500000e+01 2.000000e+01
      vertex -3.600000e+01 -1.075200e+01 1.273600e+01
    endloop
  endfacet
  facet normal -1.000000e+00 0.000000e+00 0.000000e+00
    outer loop
      vertex -3.600000e+01 -1.150300e+01 1.100100e+01
      vertex -3.600000e+01 -1.500000e+01 2.000000e+01
      vertex -3.600000e+01 -1.130200e+01 1.200200e+01
    endloop
  endfacet
  facet normal -1.000000e+00 0.000000e+00 0.000000e+00
    outer loop
      vertex -3.600000e+01 -1.000000e+01 8.998000e+00
      vertex -3.600000e+01 -1.500000e+01 0.000000e+00
      vertex -3.600000e+01 -1.075200e+01 9.266000e+00
    endloop
  endfacet
  facet normal -1.000000e+00 0.000000e+00 0.000000e+00
    outer loop
      vertex -3.600000e+01 -9.248000e+00 9.266000e+00
      vertex -3.600000e+01 1.299900e+01 0.000000e+00
      vertex -3.600000e+01 -1.000000e+01 8.998000e+00
    endloop
  endfacet
  facet normal -1.000000e+00 0.000000e+00 0.000000e+00
    outer loop
      vertex -3.600000e+01 -8.698000e+00 9.999000e+00
      vertex -3.600000e+01 1.299900e+01 0.000000e+00
      vertex -3.600000e+01 -9.248000e+00 9.266000e+00
    endloop
  endfacet
  facet normal -1.000000e+00 0.000000e+00 0.000000e+00
    outer loop
      vertex -3.600000e+01 -8.698000e+00 9.999000e+00
      vertex -3.600000e+01 -8.497000e+00 1.100100e+01
      vertex -3.600000e+01 1.299900e+01 0.000000e+00
    endloop
  endfacet
  facet normal -1.000000e+00 0.000000e+00 0.000000e+00
    outer loop
      vertex -3.600000e+01 -1.500000e+01 0.000000e+00
      vertex -3.600000e+01 -1.000000e+01 8.998000e+00
      vertex -3.600000e+01 1.299900e+01 0.000000e+00
    endloop
  endfacet
  facet normal -1.000000e+00 0.000000e+00 0.000000e+00
    outer loop
      vertex -3.600000e+01 -1.130200e+01 9.999000e+00
      vertex -3.600000e+01 -1.500000e+01 0.000000e+00
      vertex -3.600000e+01 -1.150300e+01 1.100100e+01
    endloop
  endfacet
  facet normal -1.000000e+00 0.000000e+00 0.000000e+00
    outer loop
      vertex -3.600000e+01 -1.500000e+01 2.000000e+01
      vertex -3.600000e+01 -1.150300e+01 1.100100e+01
      vertex -3.600000e+01 -1.500000e+01 0.000000e+00
    endloop
  endfacet
  facet normal -1.000000e+00 0.000000e+00 0.000000e+00
    outer loop
      vertex -3.600000e+01 -1.500000e+01 0.000000e+00
      vertex -3.600000e+01 -1.130200e+01 9.999000e+00
      vertex -3.600000e+01 -1.075200e+01 9.266000e+00
    endloop
  endfacet
  facet normal 0.000000e+00 0.000000e+00 -1.000000e+00
    outer loop
      vertex -2.911300e+01 2.093000e+00 0.000000e+00
      vertex -3.600000e+01 -1.500000e+01 0.000000e+00
      vertex -3.009800e+01 2.902000e+00 0.000000e+00
    endloop
  endfacet
  facet normal 0.000000e+00 0.000000e+00 -1.000000e+00
    outer loop
      vertex -3.009800e+01 2.902000e+00 0.000000e+00
      vertex -3.600000e+01 -1.500000e+01 0.000000e+00
      vertex -3.090700e+01 3.887000e+00 0.000000e+00
    endloop
  endfacet
  facet normal 0.000000e+00 0.000000e+00 -1.000000e+00
    outer loop
      vertex -2.798800e+01 1.492000e+00 0.000000e+00
      vertex -3.600000e+01 -1.500000e+01 0.000000e+00
      vertex -2.911300e+01 2.093000e+00 0.000000e+00
    endloop
  endfacet
  facet normal 0.000000e+00 0.000000e+00 1.000000e+00
    outer loop
      vertex -3.600000e+01 1.299900e+01 2.000000e+01
      vertex -3.009800e+01 1.209800e+01 2.000000e+01
      vertex -2.911300e+01 1.290700e+01 2.000000e+01
    endloop
  endfacet
  facet normal 0.000000e+00 0.000000e+00 1.000000e+00
    outer loop
      vertex -3.600000e+01 1.299900e+01 2.000000e+01
      vertex -2.911300e+01 1.290700e+01 2.000000e+01
      vertex -2.894079e+01 1.299900e+01 2.000000e+01
    endloop
  endfacet
  facet normal 0.000000e+00 0.000000e+00 -1.000000e+00
    outer loop
      vertex -2.894079e+01 1.299900e+01 0.000000e+00
      vertex -2.911300e+01 1.290700e+01 0.000000e+00
      vertex -3.600000e+01 1.299900e+01 0.000000e+00
    endloop
  endfacet
  facet normal 0.000000e+00 0.000000e+00 -1.000000e+00
    outer loop
      vertex -3.009800e+01 1.209800e+01 0.000000e+00
      vertex -3.600000e+01 1.299900e+01 0.000000e+00
      vertex -2.911300e+01 1.290700e+01 0.000000e+00
    endloop
  endfacet
  facet normal 0.000000e+00 0.000000e+00 -1.000000e+00
    outer loop
      vertex -3.090700e+01 1.111200e+01 0.000000e+00
      vertex -3.600000e+01 1.299900e+01 0.000000e+00
      vertex -3.009800e+01 1.209800e+01 0.000000e+00
    endloop
  endfacet
  facet normal 0.000000e+00 0.000000e+00 -1.000000e+00
    outer loop
      vertex -3.150800e+01 9.988000e+00 0.000000e+00
      vertex -3.600000e+01 1.299900e+01 0.000000e+00
      vertex -3.090700e+01 1.111200e+01 0.000000e+00
    endloop
  endfacet
  facet normal 0.000000e+00 0.000000e+00 1.000000e+00
    outer loop
      vertex -3.090700e+01 1.111200e+01 2.000000e+01
      vertex -3.009800e+01 1.209800e+01 2.000000e+01
      vertex -3.600000e+01 1.299900e+01 2.000000e+01
    endloop
  endfacet
  facet normal 0.000000e+00 0.000000e+00 -1.000000e+00
    outer loop
      vertex -3.187800e+01 8.768000e+00 0.000000e+00
      vertex -3.600000e+01 1.299900e+01 0.000000e+00
      vertex -3.150800e+01 9.988000e+00 0.000000e+00
    endloop
  endfacet
  facet normal 0.000000e+00 0.000000e+00 1.000000e+00
    outer loop
      vertex -3.150800e+01 9.988000e+00 2.000000e+01
      vertex -3.090700e+01 1.111200e+01 2.000000e+01
      vertex -3.600000e+01 1.299900e+01 2.000000e+01
    endloop
  endfacet
  facet normal 0.000000e+00 0.000000e+00 -1.000000e+00
    outer loop
      vertex -3.200300e+01 7.500000e+00 0.000000e+00
      vertex -3.600000e+01 1.299900e+01 0.000000e+00
      vertex -3.187800e+01 8.768000e+00 0.000000e+00
    endloop
  endfacet
  facet normal 0.000000e+00 0.000000e+00 1.000000e+00
    outer loop
      vertex -3.187800e+01 8.768000e+00 2.000000e+01
      vertex -3.150800e+01 9.988000e+00 2.000000e+01
      vertex -3.600000e+01 1.299900e+01 2.000000e+01
    endloop
  endfacet
  facet normal 0.000000e+00 0.000000e+00 -1.000000e+00
    outer loop
      vertex -2.676800e+01 1.122000e+00 0.000000e+00
      vertex -3.600000e+01 -1.500000e+01 0.000000e+00
      vertex -2.798800e+01 1.492000e+00 0.000000e+00
    endloop
  endfacet
  facet normal 0.000000e+00 0.000000e+00 -1.000000e+00
    outer loop
      vertex -3.600000e+01 -1.500000e+01 0.000000e+00
      vertex -3.600000e+01 1.299900e+01 0.000000e+00
      vertex -3.187800e+01 6.231000e+00 0.000000e+00
    endloop
  endfacet
  facet normal 0.000000e+00 0.000000e+00 -1.000000e+00
    outer loop
      vertex -3.150800e+01 5.011000e+00 0.000000e+00
      vertex -3.600000e+01 -1.500000e+01 0.000000e+00
      vertex -3.187800e+01 6.231000e+00 0.000000e+00
    endloop
  endfacet
  facet normal 0.000000e+00 0.000000e+00 -1.000000e+00
    outer loop
      vertex -3.150800e+01 5.011000e+00 0.000000e+00
      vertex -3.090700e+01 3.887000e+00 0.000000e+00
      vertex -3.600000e+01 -1.500000e+01 0.000000e+00
    endloop
  endfacet
  facet normal 0.000000e+00 0.000000e+00 -1.000000e+00
    outer loop
      vertex -3.200300e+01 7.500000e+00 0.000000e+00
      vertex -3.187800e+01 6.231000e+00 0.000000e+00
      vertex -3.600000e+01 1.299900e+01 0.000000e+00
    endloop
  endfacet
  facet normal 0.000000e+00 0.000000e+00 -1.000000e+00
    outer loop
      vertex -2.550000e+01 9.970000e-01 0.000000e+00
      vertex -2.499900e+01 -1.500000e+01 0.000000e+00
      vertex -2.676800e+01 1.122000e+00 0.000000e+00
    endloop
  endfacet
  facet normal 0.000000e+00 0.000000e+00 -1.000000e+00
    outer loop
      vertex -3.600000e+01 -1.500000e+01 0.000000e+00
      vertex -2.676800e+01 1.122000e+00 0.000000e+00
      vertex -2.499900e+01 -1.500000e+01 0.000000e+00
    endloop
  endfacet
  facet normal 0.000000e+00 0.000000e+00 1.000000e+00
    outer loop
      vertex -3.200300e+01 7.500000e+00 2.000000e+01
      vertex -3.600000e+01 1.299900e+01 2.000000e+01
      vertex -3.187800e+01 6.231000e+00 2.000000e+01
    endloop
  endfacet
  facet normal 0.000000e+00 0.000000e+00 1.000000e+00
    outer loop
      vertex -3.150800e+01 5.011000e+00 2.000000e+01
      vertex -3.600000e+01 -1.500000e+01 2.000000e+01
      vertex -3.090700e+01 3.887000e+00 2.000000e+01
    endloop
  endfacet
  facet normal 0.000000e+00 1.000000e+00 0.000000e+00
    outer loop
      vertex -3.600000e+01 1.299900e+01 2.000000e+01
      vertex -2.894079e+01 1.299900e+01 2.000000e+01
      vertex -3.600000e+01 1.299900e+01 0.000000e+00
    endloop
  endfacet
  facet normal 0.000000e+00 0.000000e+00 1.000000e+00
    outer loop
      vertex -3.009800e+01 2.902000e+00 2.000000e+01
      vertex -3.600000e+01 -1.500000e+01 2.000000e+01
      vertex -2.911300e+01 2.093000e+00 2.000000e+01
    endloop
  endfacet
  facet normal 0.000000e+00 0.000000e+00 1.000000e+00
    outer loop
      vertex -2.798800e+01 1.492000e+00 2.000000e+01
      vertex -3.600000e+01 -1.500000e+01 2.000000e+01
      vertex -2.676800e+01 1.122000e+00 2.000000e+01
    endloop
  endfacet
  facet normal 0.000000e+00 1.000000e+00 0.000000e+00
    outer loop
      vertex -2.894079e+01 1.299900e+01 0.000000e+00
      vertex -3.600000e+01 1.299900e+01 0.000000e+00
      vertex -2.894079e+01 1.299900e+01 2.000000e+01
    endloop
  endfacet
  facet normal 0.000000e+00 0.000000e+00 1.000000e+00
    outer loop
      vertex -3.600000e+01 -1.500000e+01 2.000000e+01
      vertex -2.499900e+01 -1.500000e+01 2.000000e+01
      vertex -2.676800e+01 1.122000e+00 2.000000e+01
    endloop
  endfacet
  facet normal 0.000000e+00 0.000000e+00 1.000000e+00
    outer loop
      vertex -2.798800e+01 1.492000e+00 2.000000e+01
      vertex -2.911300e+01 2.093000e+00 2.000000e+01
      vertex -3.600000e+01 -1.500000e+01 2.000000e+01
    endloop
  endfacet
  facet normal 0.000000e+00 0.000000e+00 1.000000e+00
    outer loop
      vertex -3.009800e+01 2.902000e+00 2.000000e+01
      vertex -3.090700e+01 3.887000e+00 2.000000e+01
      vertex -3.600000e+01 -1.500000e+01 2.000000e+01
    endloop
  endfacet
  facet normal 0.000000e+00 0.000000e+00 1.000000e+00
    outer loop
      vertex -3.600000e+01 1.299900e+01 2.000000e+01
      vertex -3.600000e+01 -1.500000e+01 2.000000e+01
      vertex -3.187800e+01 6.231000e+00 2.000000e+01
    endloop
  endfacet
  facet normal 0.000000e+00 0.000000e+00 1.000000e+00
    outer loop
      vertex -3.187800e+01 8.768000e+00 2.000000e+01
      vertex -3.600000e+01 1.299900e+01 2.000000e+01
      vertex -3.200300e+01 7.500000e+00 2.000000e+01
    endloop
  endfacet
  facet normal 0.000000e+00 0.000000e+00 1.000000e+00
    outer loop
      vertex -3.150800e+01 5.011000e+00 2.000000e+01
      vertex -3.187800e+01 6.231000e+00 2.000000e+01
      vertex -3.600000e+01 -1.500000e+01 2.000000e+01
    endloop
  endfacet
  facet normal 0.000000e+00 -1.000000e+00 0.000000e+00
    outer loop
      vertex -3.600000e+01 -1.500000e+01 2.000000e+01
      vertex -3.600000e+01 -1.500000e+01 0.000000e+00
      vertex -2.499900e+01 -1.500000e+01 0.000000e+00
    endloop
  endfacet
  facet normal 0.000000e+00 -1.000000e+00 0.000000e+00
    outer loop
      vertex -3.600000e+01 -1.500000e+01 2.000000e+01
      vertex -2.499900e+01 -1.500000e+01 0.000000e+00
      vertex -2.499900e+01 -1.500000e+01 2.000000e+01
    endloop
  endfacet
  facet normal 6.346892e-01 -7.727675e-01 0.000000e+00
    outer loop
      vertex -3.009800e+01 1.209800e+01 0.000000e+00
      vertex -2.911300e+01 1.290700e+01 2.000000e+01
      vertex -3.009800e+01 1.209800e+01 2.000000e+01
    endloop
  endfacet
  facet normal 7.730833e-01 -6.343046e-01 0.000000e+00
    outer loop
      vertex -3.090700e+01 1.111200e+01 2.000000e+01
      vertex -3.090700e+01 1.111200e+01 0.000000e+00
      vertex -3.009800e+01 1.209800e+01 2.000000e+01
    endloop
  endfacet
  facet normal -1.000000e+00 0.000000e+00 0.000000e+00
    outer loop
      vertex 8.003000e+00 -1.500100e+01 1.700400e+01
      vertex 8.003000e+00 -1.099800e+01 1.700400e+01
      vertex 8.003000e+00 -1.099800e+01 1.299800e+01
    endloop
  endfacet
  facet normal -1.000000e+00 0.000000e+00 0.000000e+00
    outer loop
      vertex 8.003000e+00 -1.500100e+01 1.700400e+01
      vertex 8.003000e+00 -1.099800e+01 1.299800e+01
      vertex 8.003000e+00 -1.500100e+01 1.299800e+01
    endloop
  endfacet
  facet normal -1.000000e+00 0.000000e+00 0.000000e+00
    outer loop
      vertex 8.003000e+00 -1.500100e+01 8.004000e+00
      vertex 8.003000e+00 -1.099700e+01 8.004000e+00
      vertex 8.003000e+00 -1.099700e+01 3.998000e+00
    endloop
  endfacet
  facet normal -1.000000e+00 0.000000e+00 0.000000e+00
    outer loop
      vertex 8.003000e+00 -1.500100e+01 8.004000e+00
      vertex 8.003000e+00 -1.099700e+01 3.998000e+00
      vertex 8.003000e+00 -1.500100e+01 3.998000e+00
    endloop
  endfacet
  facet normal 9.951836e-01 9.802833e-02 0.000000e+00
    outer loop
      vertex -3.187800e+01 6.231000e+00 2.000000e+01
      vertex -3.200300e+01 7.500000e+00 0.000000e+00
      vertex -3.200300e+01 7.500000e+00 2.000000e+01
    endloop
  endfacet
  facet normal 0.000000e+00 -7.998690e-01 6.001745e-01
    outer loop
      vertex 1.200100e+01 -9.248000e+00 9.266000e+00
      vertex 1.200100e+01 -8.698000e+00 9.999000e+00
      vertex -3.600000e+01 -9.248000e+00 9.266000e+00
    endloop
  endfacet
  facet normal 9.951761e-01 -9.810489e-02 0.000000e+00
    outer loop
      vertex -3.200300e+01 7.500000e+00 2.000000e+01
      vertex -3.200300e+01 7.500000e+00 0.000000e+00
      vertex -3.187800e+01 8.768000e+00 2.000000e+01
    endloop
  endfacet
  facet normal 0.000000e+00 0.000000e+00 1.000000e+00
    outer loop
      vertex -2.090100e+01 2.902000e+00 2.000000e+01
      vertex 1.200100e+01 -1.500100e+01 2.000000e+01
      vertex -2.009200e+01 3.887000e+00 2.000000e+01
    endloop
  endfacet
  facet normal 0.000000e+00 0.000000e+00 1.000000e+00
    outer loop
      vertex -1.949200e+01 5.011000e+00 2.000000e+01
      vertex 1.200100e+01 -1.500100e+01 2.000000e+01
      vertex -1.912100e+01 6.231000e+00 2.000000e+01
    endloop
  endfacet
  facet normal 0.000000e+00 0.000000e+00 1.000000e+00
    outer loop
      vertex -1.899700e+01 7.500000e+00 2.000000e+01
      vertex -1.912100e+01 6.231000e+00 2.000000e+01
      vertex 1.200100e+01 1.100000e+01 2.000000e+01
    endloop
  endfacet
  facet normal 0.000000e+00 0.000000e+00 1.000000e+00
    outer loop
      vertex -1.912100e+01 8.768000e+00 2.000000e+01
      vertex -1.899700e+01 7.500000e+00 2.000000e+01
      vertex 1.200100e+01 1.100000e+01 2.000000e+01
    endloop
  endfacet
  facet normal 4.711985e-01 -8.820272e-01 0.000000e+00
    outer loop
      vertex -2.894079e+01 1.299900e+01 0.000000e+00
      vertex -2.911300e+01 1.290700e+01 2.000000e+01
      vertex -2.911300e+01 1.290700e+01 0.000000e+00
    endloop
  endfacet
  facet normal 6.346892e-01 -7.727675e-01 0.000000e+00
    outer loop
      vertex -2.911300e+01 1.290700e+01 0.000000e+00
      vertex -2.911300e+01 1.290700e+01 2.000000e+01
      vertex -3.009800e+01 1.209800e+01 0.000000e+00
    endloop
  endfacet
  facet normal 0.000000e+00 0.000000e+00 1.000000e+00
    outer loop
      vertex -2.009200e+01 3.887000e+00 2.000000e+01
      vertex 1.200100e+01 -1.500100e+01 2.000000e+01
      vertex -1.949200e+01 5.011000e+00 2.000000e+01
    endloop
  endfacet
  facet normal 0.000000e+00 0.000000e+00 1.000000e+00
    outer loop
      vertex -2.499900e+01 -1.500000e+01 2.000000e+01
      vertex 1.200100e+01 -1.500100e+01 2.000000e+01
      vertex -2.188700e+01 2.093000e+00 2.000000e+01
    endloop
  endfacet
  facet normal 0.000000e+00 0.000000e+00 1.000000e+00
    outer loop
      vertex -2.301100e+01 1.492000e+00 2.000000e+01
      vertex -2.423100e+01 1.122000e+00 2.000000e+01
      vertex -2.499900e+01 -1.500000e+01 2.000000e+01
    endloop
  endfacet
  facet normal 0.000000e+00 0.000000e+00 1.000000e+00
    outer loop
      vertex -2.301100e+01 1.492000e+00 2.000000e+01
      vertex -2.499900e+01 -1.500000e+01 2.000000e+01
      vertex -2.188700e+01 2.093000e+00 2.000000e+01
    endloop
  endfacet
  facet normal 0.000000e+00 0.000000e+00 1.000000e+00
    outer loop
      vertex -2.090100e+01 2.902000e+00 2.000000e+01
      vertex -2.188700e+01 2.093000e+00 2.000000e+01
      vertex 1.200100e+01 -1.500100e+01 2.000000e+01
    endloop
  endfacet
  facet normal 0.000000e+00 0.000000e+00 1.000000e+00
    outer loop
      vertex -2.499900e+01 -1.500100e+01 2.000000e+01
      vertex 1.200100e+01 -1.500100e+01 2.000000e+01
      vertex -2.499900e+01 -1.500000e+01 2.000000e+01
    endloop
  endfacet
  facet normal 0.000000e+00 0.000000e+00 -1.000000e+00
    outer loop
      vertex -2.009200e+01 3.887000e+00 0.000000e+00
      vertex -1.949200e+01 5.011000e+00 0.000000e+00
      vertex 1.200100e+01 -1.500100e+01 0.000000e+00
    endloop
  endfacet
  facet normal 0.000000e+00 0.000000e+00 -1.000000e+00
    outer loop
      vertex 1.200100e+01 1.100000e+01 0.000000e+00
      vertex 1.200100e+01 -1.500100e+01 0.000000e+00
      vertex -1.912100e+01 6.231000e+00 0.000000e+00
    endloop
  endfacet
  facet normal 0.000000e+00 0.000000e+00 -1.000000e+00
    outer loop
      vertex -1.899700e+01 7.500000e+00 0.000000e+00
      vertex 1.200100e+01 1.100000e+01 0.000000e+00
      vertex -1.912100e+01 6.231000e+00 0.000000e+00
    endloop
  endfacet
  facet normal 0.000000e+00 0.000000e+00 -1.000000e+00
    outer loop
      vertex -1.949200e+01 5.011000e+00 0.000000e+00
      vertex -1.912100e+01 6.231000e+00 0.000000e+00
      vertex 1.200100e+01 -1.500100e+01 0.000000e+00
    endloop
  endfacet
  facet normal 0.000000e+00 0.000000e+00 -1.000000e+00
    outer loop
      vertex -1.899700e+01 7.500000e+00 0.000000e+00
      vertex -1.912100e+01 8.768000e+00 0.000000e+00
      vertex 1.200100e+01 1.100000e+01 0.000000e+00
    endloop
  endfacet
  facet normal 0.000000e+00 -1.000000e+00 0.000000e+00
    outer loop
      vertex 8.003000e+00 -1.500100e+01 1.700400e+01
      vertex 1.200100e+01 -1.500100e+01 2.000000e+01
      vertex -1.500300e+01 -1.500100e+01 1.700400e+01
    endloop
  endfacet
  facet normal 0.000000e+00 0.000000e+00 -1.000000e+00
    outer loop
      vertex 1.200100e+01 1.100000e+01 0.000000e+00
      vertex -1.912100e+01 8.768000e+00 0.000000e+00
      vertex -1.949200e+01 9.988000e+00 0.000000e+00
    endloop
  endfacet
  facet normal 0.000000e+00 -1.000000e+00 0.000000e+00
    outer loop
      vertex 8.003000e+00 -1.500100e+01 1.299800e+01
      vertex -1.500300e+01 -1.500100e+01 1.299800e+01
      vertex -1.500300e+01 -1.500100e+01 8.004000e+00
    endloop
  endfacet
  facet normal 0.000000e+00 -1.000000e+00 0.000000e+00
    outer loop
      vertex 8.003000e+00 -1.500100e+01 1.299800e+01
      vertex -1.500300e+01 -1.500100e+01 8.004000e+00
      vertex 8.003000e+00 -1.500100e+01 8.004000e+00
    endloop
  endfacet
  facet normal 0.000000e+00 -1.000000e+00 0.000000e+00
    outer loop
      vertex -2.499900e+01 -1.500100e+01 0.000000e+00
      vertex 1.200100e+01 -1.500100e+01 0.000000e+00
      vertex -1.500300e+01 -1.500100e+01 3.998000e+00
    endloop
  endfacet
  facet normal 0.000000e+00 -1.000000e+00 0.000000e+00
    outer loop
      vertex -1.500300e+01 -1.500100e+01 3.998000e+00
      vertex -1.500300e+01 -1.500100e+01 8.004000e+00
      vertex -2.499900e+01 -1.500100e+01 0.000000e+00
    endloop
  endfacet
  facet normal 0.000000e+00 -1.000000e+00 0.000000e+00
    outer loop
      vertex -2.499900e+01 -1.500100e+01 2.000000e+01
      vertex -2.499900e+01 -1.500100e+01 0.000000e+00
      vertex -1.500300e+01 -1.500100e+01 8.004000e+00
    endloop
  endfacet
  facet normal 0.000000e+00 -1.000000e+00 0.000000e+00
    outer loop
      vertex -2.499900e+01 -1.500100e+01 2.000000e+01
      vertex -1.500300e+01 -1.500100e+01 8.004000e+00
      vertex -1.500300e+01 -1.500100e+01 1.299800e+01
    endloop
  endfacet
  facet normal 0.000000e+00 -1.000000e+00 0.000000e+00
    outer loop
      vertex -2.499900e+01 -1.500100e+01 2.000000e+01
      vertex -1.500300e+01 -1.500100e+01 1.299800e+01
      vertex -1.500300e+01 -1.500100e+01 1.700400e+01
    endloop
  endfacet
  facet normal 0.000000e+00 -1.000000e+00 0.000000e+00
    outer loop
      vertex 8.003000e+00 -1.500100e+01 1.299800e+01
      vertex 8.003000e+00 -1.500100e+01 8.004000e+00
      vertex 1.200100e+01 -1.500100e+01 2.000000e+01
    endloop
  endfacet
  facet normal 0.000000e+00 -1.000000e+00 0.000000e+00
    outer loop
      vertex 1.200100e+01 -1.500100e+01 0.000000e+00
      vertex 1.200100e+01 -1.500100e+01 2.000000e+01
      vertex 8.003000e+00 -1.500100e+01 8.004000e+00
    endloop
  endfacet
  facet normal 0.000000e+00 -1.000000e+00 0.000000e+00
    outer loop
      vertex 8.003000e+00 -1.500100e+01 3.998000e+00
      vertex 1.200100e+01 -1.500100e+01 0.000000e+00
      vertex 8.003000e+00 -1.500100e+01 8.004000e+00
    endloop
  endfacet
  facet normal 0.000000e+00 -1.000000e+00 0.000000e+00
    outer loop
      vertex 8.003000e+00 -1.500100e+01 3.998000e+00
      vertex -1.500300e+01 -1.500100e+01 3.998000e+00
      vertex 1.200100e+01 -1.500100e+01 0.000000e+00
    endloop
  endfacet
  facet normal 0.000000e+00 -1.000000e+00 0.000000e+00
    outer loop
      vertex 8.003000e+00 -1.500100e+01 1.700400e+01
      vertex 8.003000e+00 -1.500100e+01 1.299800e+01
      vertex 1.200100e+01 -1.500100e+01 2.000000e+01
    endloop
  endfacet
  facet normal 0.000000e+00 -1.000000e+00 0.000000e+00
    outer loop
      vertex -2.499900e+01 -1.500100e+01 2.000000e+01
      vertex -1.500300e+01 -1.500100e+01 1.700400e+01
      vertex 1.200100e+01 -1.500100e+01 2.000000e+01
    endloop
  endfacet
  facet normal 0.000000e+00 0.000000e+00 -1.000000e+00
    outer loop
      vertex 1.200100e+01 1.100000e+01 0.000000e+00
      vertex -1.949200e+01 9.988000e+00 0.000000e+00
      vertex -2.003221e+01 1.100000e+01 0.000000e+00
    endloop
  endfacet
  facet normal 0.000000e+00 0.000000e+00 -1.000000e+00
    outer loop
      vertex -1.500300e+01 -1.099800e+01 1.700400e+01
      vertex 8.003000e+00 -1.099800e+01 1.700400e+01
      vertex 8.003000e+00 -1.500100e+01 1.700400e+01
    endloop
  endfacet
  facet normal 0.000000e+00 0.000000e+00 -1.000000e+00
    outer loop
      vertex -1.500300e+01 -1.099800e+01 1.700400e+01
      vertex 8.003000e+00 -1.500100e+01 1.700400e+01
      vertex -1.500300e+01 -1.500100e+01 1.700400e+01
    endloop
  endfacet
  facet normal 0.000000e+00 -1.000000e+00 0.000000e+00
    outer loop
      vertex 8.003000e+00 -1.099800e+01 1.299800e+01
      vertex -1.500300e+01 -1.099800e+01 1.700400e+01
      vertex -1.500300e+01 -1.099800e+01 1.299800e+01
    endloop
  endfacet
  facet normal 0.000000e+00 0.000000e+00 -1.000000e+00
    outer loop
      vertex -2.301100e+01 1.492000e+00 0.000000e+00
      vertex -2.188700e+01 2.093000e+00 0.000000e+00
      vertex -2.499900e+01 -1.500000e+01 0.000000e+00
    endloop
  endfacet
  facet normal 0.000000e+00 0.000000e+00 -1.000000e+00
    outer loop
      vertex -2.090100e+01 2.902000e+00 0.000000e+00
      vertex 1.200100e+01 -1.500100e+01 0.000000e+00
      vertex -2.188700e+01 2.093000e+00 0.000000e+00
    endloop
  endfacet
  facet normal 0.000000e+00 -1.000000e+00 0.000000e+00
    outer loop
      vertex 8.003000e+00 -1.099800e+01 1.700400e+01
      vertex -1.500300e+01 -1.099800e+01 1.700400e+01
      vertex 8.003000e+00 -1.099800e+01 1.299800e+01
    endloop
  endfacet
  facet normal 0.000000e+00 -3.357015e-01 -9.419684e-01
    outer loop
      vertex 1.200100e+01 -1.000000e+01 1.300400e+01
      vertex -3.600000e+01 -1.000000e+01 1.300400e+01
      vertex 1.200100e+01 -9.248000e+00 1.273600e+01
    endloop
  endfacet
  facet normal 0.000000e+00 0.000000e+00 -1.000000e+00
    outer loop
      vertex -2.499900e+01 -1.500100e+01 0.000000e+00
      vertex -2.499900e+01 -1.500000e+01 0.000000e+00
      vertex 1.200100e+01 -1.500100e+01 0.000000e+00
    endloop
  endfacet
  facet normal 0.000000e+00 0.000000e+00 1.000000e+00
    outer loop
      vertex -1.500300e+01 -1.500100e+01 1.299800e+01
      vertex 8.003000e+00 -1.500100e+01 1.299800e+01
      vertex -1.500300e+01 -1.099800e+01 1.299800e+01
    endloop
  endfacet
  facet normal 0.000000e+00 0.000000e+00 1.000000e+00
    outer loop
      vertex 8.003000e+00 -1.099800e+01 1.299800e+01
      vertex -1.500300e+01 -1.099800e+01 1.299800e+01
      vertex 8.003000e+00 -1.500100e+01 1.299800e+01
    endloop
  endfacet
  facet normal 0.000000e+00 0.000000e+00 -1.000000e+00
    outer loop
      vertex -1.500300e+01 -1.099700e+01 8.004000e+00
      vertex 8.003000e+00 -1.099700e+01 8.004000e+00
      vertex -1.500300e+01 -1.500100e+01 8.004000e+00
    endloop
  endfacet
  facet normal 0.000000e+00 0.000000e+00 -1.000000e+00
    outer loop
      vertex -1.500300e+01 -1.500100e+01 8.004000e+00
      vertex 8.003000e+00 -1.099700e+01 8.004000e+00
      vertex 8.003000e+00 -1.500100e+01 8.004000e+00
    endloop
  endfacet
  facet normal 0.000000e+00 9.804676e-01 1.966806e-01
    outer loop
      vertex -3.600000e+01 -1.130200e+01 9.999000e+00
      vertex -3.600000e+01 -1.150300e+01 1.100100e+01
      vertex 1.200100e+01 -1.130200e+01 9.999000e+00
    endloop
  endfacet
  facet normal 0.000000e+00 -1.000000e+00 0.000000e+00
    outer loop
      vertex 8.003000e+00 -1.099700e+01 8.004000e+00
      vertex -1.500300e+01 -1.099700e+01 8.004000e+00
      vertex -1.500300e+01 -1.099700e+01 3.998000e+00
    endloop
  endfacet
  facet normal 0.000000e+00 -1.000000e+00 0.000000e+00
    outer loop
      vertex 8.003000e+00 -1.099700e+01 8.004000e+00
      vertex -1.500300e+01 -1.099700e+01 3.998000e+00
      vertex 8.003000e+00 -1.099700e+01 3.998000e+00
    endloop
  endfacet
  facet normal 0.000000e+00 -3.357015e-01 9.419684e-01
    outer loop
      vertex 1.200100e+01 -9.248000e+00 9.266000e+00
      vertex -3.600000e+01 -9.248000e+00 9.266000e+00
      vertex 1.200100e+01 -1.000000e+01 8.998000e+00
    endloop
  endfacet
  facet normal 0.000000e+00 -7.998690e-01 6.001745e-01
    outer loop
      vertex -3.600000e+01 -8.698000e+00 9.999000e+00
      vertex -3.600000e+01 -9.248000e+00 9.266000e+00
      vertex 1.200100e+01 -8.698000e+00 9.999000e+00
    endloop
  endfacet
  facet normal 0.000000e+00 -9.804676e-01 1.966806e-01
    outer loop
      vertex -3.600000e+01 -8.698000e+00 9.999000e+00
      vertex 1.200100e+01 -8.698000e+00 9.999000e+00
      vertex -3.600000e+01 -8.497000e+00 1.100100e+01
    endloop
  endfacet
  facet normal 0.000000e+00 -9.804676e-01 1.966806e-01
    outer loop
      vertex 1.200100e+01 -8.497000e+00 1.100100e+01
      vertex -3.600000e+01 -8.497000e+00 1.100100e+01
      vertex 1.200100e+01 -8.698000e+00 9.999000e+00
    endloop
  endfacet
  facet normal 0.000000e+00 -9.804297e-01 -1.968695e-01
    outer loop
      vertex 1.200100e+01 -8.497000e+00 1.100100e+01
      vertex 1.200100e+01 -8.698000e+00 1.200200e+01
      vertex -3.600000e+01 -8.497000e+00 1.100100e+01
    endloop
  endfacet
  facet normal 0.000000e+00 -9.804297e-01 -1.968695e-01
    outer loop
      vertex -3.600000e+01 -8.698000e+00 1.200200e+01
      vertex -3.600000e+01 -8.497000e+00 1.100100e+01
      vertex 1.200100e+01 -8.698000e+00 1.200200e+01
    endloop
  endfacet
  facet normal 0.000000e+00 -8.002616e-01 -5.996510e-01
    outer loop
      vertex 1.200100e+01 -9.248000e+00 1.273600e+01
      vertex -3.600000e+01 -9.248000e+00 1.273600e+01
      vertex -3.600000e+01 -8.698000e+00 1.200200e+01
    endloop
  endfacet
  facet normal 0.000000e+00 -8.002616e-01 -5.996510e-01
    outer loop
      vertex 1.200100e+01 -9.248000e+00 1.273600e+01
      vertex -3.600000e+01 -8.698000e+00 1.200200e+01
      vertex 1.200100e+01 -8.698000e+00 1.200200e+01
    endloop
  endfacet
  facet normal 0.000000e+00 -3.357015e-01 -9.419684e-01
    outer loop
      vertex -3.600000e+01 -9.248000e+00 1.273600e+01
      vertex 1.200100e+01 -9.248000e+00 1.273600e+01
      vertex -3.600000e+01 -1.000000e+01 1.300400e+01
    endloop
  endfacet
  facet normal 0.000000e+00 1.000000e+00 0.000000e+00
    outer loop
      vertex 1.200100e+01 1.100000e+01 2.000000e+01
      vertex 1.200100e+01 1.100000e+01 0.000000e+00
      vertex -2.003221e+01 1.100000e+01 2.000000e+01
    endloop
  endfacet
  facet normal 0.000000e+00 1.000000e+00 0.000000e+00
    outer loop
      vertex -2.003221e+01 1.100000e+01 0.000000e+00
      vertex -2.003221e+01 1.100000e+01 2.000000e+01
      vertex 1.200100e+01 1.100000e+01 0.000000e+00
    endloop
  endfacet
  facet normal 0.000000e+00 3.357015e-01 9.419684e-01
    outer loop
      vertex 1.200100e+01 -1.000000e+01 8.998000e+00
      vertex -3.600000e+01 -1.000000e+01 8.998000e+00
      vertex 1.200100e+01 -1.075200e+01 9.266000e+00
    endloop
  endfacet
  facet normal 0.000000e+00 0.000000e+00 1.000000e+00
    outer loop
      vertex 8.003000e+00 -1.500100e+01 3.998000e+00
      vertex 8.003000e+00 -1.099700e+01 3.998000e+00
      vertex -1.500300e+01 -1.099700e+01 3.998000e+00
    endloop
  endfacet
  facet normal 0.000000e+00 0.000000e+00 1.000000e+00
    outer loop
      vertex 8.003000e+00 -1.500100e+01 3.998000e+00
      vertex -1.500300e+01 -1.099700e+01 3.998000e+00
      vertex -1.500300e+01 -1.500100e+01 3.998000e+00
    endloop
  endfacet
  facet normal 0.000000e+00 0.000000e+00 1.000000e+00
    outer loop
      vertex 1.200100e+01 1.100000e+01 2.000000e+01
      vertex -1.912100e+01 6.231000e+00 2.000000e+01
      vertex 1.200100e+01 -1.500100e+01 2.000000e+01
    endloop
  endfacet
  facet normal 1.000000e+00 0.000000e+00 0.000000e+00
    outer loop
      vertex -1.500300e+01 -1.500100e+01 1.299800e+01
      vertex -1.500300e+01 -1.099800e+01 1.299800e+01
      vertex -1.500300e+01 -1.500100e+01 1.700400e+01
    endloop
  endfacet
  facet normal 1.000000e+00 0.000000e+00 0.000000e+00
    outer loop
      vertex -1.500300e+01 -1.099800e+01 1.700400e+01
      vertex -1.500300e+01 -1.500100e+01 1.700400e+01
      vertex -1.500300e+01 -1.099800e+01 1.299800e+01
    endloop
  endfacet
  facet normal 1.000000e+00 0.000000e+00 0.000000e+00
    outer loop
      vertex -1.500300e+01 -1.500100e+01 8.004000e+00
      vertex -1.500300e+01 -1.099700e+01 3.998000e+00
      vertex -1.500300e+01 -1.099700e+01 8.004000e+00
    endloop
  endfacet
  facet normal 1.000000e+00 0.000000e+00 0.000000e+00
    outer loop
      vertex -1.500300e+01 -1.500100e+01 3.998000e+00
      vertex -1.500300e+01 -1.099700e+01 3.998000e+00
      vertex -1.500300e+01 -1.500100e+01 8.004000e+00
    endloop
  endfacet
  facet normal 0.000000e+00 0.000000e+00 1.000000e+00
    outer loop
      vertex -2.003221e+01 1.100000e+01 2.000000e+01
      vertex -1.949200e+01 9.988000e+00 2.000000e+01
      vertex 1.200100e+01 1.100000e+01 2.000000e+01
    endloop
  endfacet
  facet normal 0.000000e+00 -3.357015e-01 9.419684e-01
    outer loop
      vertex -3.600000e+01 -1.000000e+01 8.998000e+00
      vertex 1.200100e+01 -1.000000e+01 8.998000e+00
      vertex -3.600000e+01 -9.248000e+00 9.266000e+00
    endloop
  endfacet
  facet normal 0.000000e+00 0.000000e+00 1.000000e+00
    outer loop
      vertex -1.912100e+01 8.768000e+00 2.000000e+01
      vertex 1.200100e+01 1.100000e+01 2.000000e+01
      vertex -1.949200e+01 9.988000e+00 2.000000e+01
    endloop
  endfacet
  facet normal 0.000000e+00 0.000000e+00 1.000000e+00
    outer loop
      vertex -2.550000e+01 9.970000e-01 2.000000e+01
      vertex -2.676800e+01 1.122000e+00 2.000000e+01
      vertex -2.499900e+01 -1.500000e+01 2.000000e+01
    endloop
  endfacet
  facet normal -7.727675e-01 6.346892e-01 0.000000e+00
    outer loop
      vertex -2.009200e+01 3.887000e+00 2.000000e+01
      vertex -2.009200e+01 3.887000e+00 0.000000e+00
      vertex -2.090100e+01 2.902000e+00 0.000000e+00
    endloop
  endfacet
  facet normal 0.000000e+00 0.000000e+00 1.000000e+00
    outer loop
      vertex -2.423100e+01 1.122000e+00 2.000000e+01
      vertex -2.550000e+01 9.970000e-01 2.000000e+01
      vertex -2.499900e+01 -1.500000e+01 2.000000e+01
    endloop
  endfacet
  facet normal -8.821791e-01 4.709141e-01 0.000000e+00
    outer loop
      vertex -2.009200e+01 3.887000e+00 2.000000e+01
      vertex -1.949200e+01 5.011000e+00 2.000000e+01
      vertex -2.009200e+01 3.887000e+00 0.000000e+00
    endloop
  endfacet
  facet normal -9.567403e-01 2.909432e-01 0.000000e+00
    outer loop
      vertex -1.949200e+01 5.011000e+00 0.000000e+00
      vertex -1.949200e+01 5.011000e+00 2.000000e+01
      vertex -1.912100e+01 6.231000e+00 0.000000e+00
    endloop
  endfacet
  facet normal -9.952598e-01 9.725155e-02 0.000000e+00
    outer loop
      vertex -1.912100e+01 6.231000e+00 2.000000e+01
      vertex -1.899700e+01 7.500000e+00 2.000000e+01
      vertex -1.912100e+01 6.231000e+00 0.000000e+00
    endloop
  endfacet
  facet normal -9.952524e-01 -9.732752e-02 0.000000e+00
    outer loop
      vertex -1.899700e+01 7.500000e+00 0.000000e+00
      vertex -1.899700e+01 7.500000e+00 2.000000e+01
      vertex -1.912100e+01 8.768000e+00 0.000000e+00
    endloop
  endfacet
  facet normal 9.569584e-01 2.902251e-01 0.000000e+00
    outer loop
      vertex -3.150800e+01 5.011000e+00 0.000000e+00
      vertex -3.187800e+01 6.231000e+00 0.000000e+00
      vertex -3.150800e+01 5.011000e+00 2.000000e+01
    endloop
  endfacet
  facet normal 8.818529e-01 4.715246e-01 0.000000e+00
    outer loop
      vertex -3.150800e+01 5.011000e+00 0.000000e+00
      vertex -3.150800e+01 5.011000e+00 2.000000e+01
      vertex -3.090700e+01 3.887000e+00 0.000000e+00
    endloop
  endfacet
  facet normal -8.821791e-01 -4.709141e-01 0.000000e+00
    outer loop
      vertex -2.003221e+01 1.100000e+01 2.000000e+01
      vertex -2.003221e+01 1.100000e+01 0.000000e+00
      vertex -1.949200e+01 9.988000e+00 0.000000e+00
    endloop
  endfacet
  facet normal -2.902251e-01 9.569584e-01 0.000000e+00
    outer loop
      vertex -2.301100e+01 1.492000e+00 0.000000e+00
      vertex -2.423100e+01 1.122000e+00 2.000000e+01
      vertex -2.301100e+01 1.492000e+00 2.000000e+01
    endloop
  endfacet
  facet normal -4.715246e-01 8.818529e-01 0.000000e+00
    outer loop
      vertex -2.301100e+01 1.492000e+00 2.000000e+01
      vertex -2.188700e+01 2.093000e+00 2.000000e+01
      vertex -2.301100e+01 1.492000e+00 0.000000e+00
    endloop
  endfacet
  facet normal -4.715246e-01 8.818529e-01 0.000000e+00
    outer loop
      vertex -2.188700e+01 2.093000e+00 0.000000e+00
      vertex -2.301100e+01 1.492000e+00 0.000000e+00
      vertex -2.188700e+01 2.093000e+00 2.000000e+01
    endloop
  endfacet
  facet normal -6.343046e-01 7.730833e-01 0.000000e+00
    outer loop
      vertex -2.188700e+01 2.093000e+00 0.000000e+00
      vertex -2.188700e+01 2.093000e+00 2.000000e+01
      vertex -2.090100e+01 2.902000e+00 0.000000e+00
    endloop
  endfacet
  facet normal 4.711985e-01 -8.820272e-01 0.000000e+00
    outer loop
      vertex -2.894079e+01 1.299900e+01 2.000000e+01
      vertex -2.911300e+01 1.290700e+01 2.000000e+01
      vertex -2.894079e+01 1.299900e+01 0.000000e+00
    endloop
  endfacet
  facet normal -8.821791e-01 4.709141e-01 0.000000e+00
    outer loop
      vertex -1.949200e+01 5.011000e+00 0.000000e+00
      vertex -2.009200e+01 3.887000e+00 0.000000e+00
      vertex -1.949200e+01 5.011000e+00 2.000000e+01
    endloop
  endfacet
  facet normal 8.818529e-01 -4.715246e-01 0.000000e+00
    outer loop
      vertex -3.090700e+01 1.111200e+01 0.000000e+00
      vertex -3.150800e+01 9.988000e+00 2.000000e+01
      vertex -3.150800e+01 9.988000e+00 0.000000e+00
    endloop
  endfacet
  facet normal -9.567403e-01 2.909432e-01 0.000000e+00
    outer loop
      vertex -1.912100e+01 6.231000e+00 2.000000e+01
      vertex -1.912100e+01 6.231000e+00 0.000000e+00
      vertex -1.949200e+01 5.011000e+00 2.000000e+01
    endloop
  endfacet
  facet normal 9.569584e-01 -2.902251e-01 0.000000e+00
    outer loop
      vertex -3.187800e+01 8.768000e+00 2.000000e+01
      vertex -3.187800e+01 8.768000e+00 0.000000e+00
      vertex -3.150800e+01 9.988000e+00 2.000000e+01
    endloop
  endfacet
  facet normal 9.569584e-01 -2.902251e-01 0.000000e+00
    outer loop
      vertex -3.150800e+01 9.988000e+00 0.000000e+00
      vertex -3.150800e+01 9.988000e+00 2.000000e+01
      vertex -3.187800e+01 8.768000e+00 0.000000e+00
    endloop
  endfacet
  facet normal -9.952598e-01 9.725155e-02 0.000000e+00
    outer loop
      vertex -1.899700e+01 7.500000e+00 0.000000e+00
      vertex -1.912100e+01 6.231000e+00 0.000000e+00
      vertex -1.899700e+01 7.500000e+00 2.000000e+01
    endloop
  endfacet
  facet normal 9.951761e-01 -9.810489e-02 0.000000e+00
    outer loop
      vertex -3.187800e+01 8.768000e+00 2.000000e+01
      vertex -3.200300e+01 7.500000e+00 0.000000e+00
      vertex -3.187800e+01 8.768000e+00 0.000000e+00
    endloop
  endfacet
  facet normal 9.951836e-01 9.802833e-02 0.000000e+00
    outer loop
      vertex -3.187800e+01 6.231000e+00 2.000000e+01
      vertex -3.187800e+01 6.231000e+00 0.000000e+00
      vertex -3.200300e+01 7.500000e+00 0.000000e+00
    endloop
  endfacet
  facet normal 9.569584e-01 2.902251e-01 0.000000e+00
    outer loop
      vertex -3.187800e+01 6.231000e+00 0.000000e+00
      vertex -3.187800e+01 6.231000e+00 2.000000e+01
      vertex -3.150800e+01 5.011000e+00 2.000000e+01
    endloop
  endfacet
  facet normal -9.567403e-01 -2.909432e-01 0.000000e+00
    outer loop
      vertex -1.912100e+01 8.768000e+00 0.000000e+00
      vertex -1.912100e+01 8.768000e+00 2.000000e+01
      vertex -1.949200e+01 9.988000e+00 0.000000e+00
    endloop
  endfacet
  facet normal 8.818529e-01 4.715246e-01 0.000000e+00
    outer loop
      vertex -3.090700e+01 3.887000e+00 0.000000e+00
      vertex -3.150800e+01 5.011000e+00 2.000000e+01
      vertex -3.090700e+01 3.887000e+00 2.000000e+01
    endloop
  endfacet
  facet normal -8.821791e-01 -4.709141e-01 0.000000e+00
    outer loop
      vertex -2.003221e+01 1.100000e+01 2.000000e+01
      vertex -1.949200e+01 9.988000e+00 0.000000e+00
      vertex -1.949200e+01 9.988000e+00 2.000000e+01
    endloop
  endfacet
  facet normal 7.727675e-01 6.346892e-01 0.000000e+00
    outer loop
      vertex -3.090700e+01 3.887000e+00 2.000000e+01
      vertex -3.009800e+01 2.902000e+00 2.000000e+01
      vertex -3.090700e+01 3.887000e+00 0.000000e+00
    endloop
  endfacet
  facet normal 7.727675e-01 6.346892e-01 0.000000e+00
    outer loop
      vertex -3.009800e+01 2.902000e+00 0.000000e+00
      vertex -3.090700e+01 3.887000e+00 0.000000e+00
      vertex -3.009800e+01 2.902000e+00 2.000000e+01
    endloop
  endfacet
  facet normal 0.000000e+00 3.357015e-01 -9.419684e-01
    outer loop
      vertex -3.600000e+01 -1.000000e+01 1.300400e+01
      vertex 1.200100e+01 -1.000000e+01 1.300400e+01
      vertex 1.200100e+01 -1.075200e+01 1.273600e+01
    endloop
  endfacet
  facet normal 0.000000e+00 3.357015e-01 -9.419684e-01
    outer loop
      vertex 1.200100e+01 -1.075200e+01 1.273600e+01
      vertex -3.600000e+01 -1.075200e+01 1.273600e+01
      vertex -3.600000e+01 -1.000000e+01 1.300400e+01
    endloop
  endfacet
  facet normal 6.346892e-01 7.727675e-01 0.000000e+00
    outer loop
      vertex -3.009800e+01 2.902000e+00 2.000000e+01
      vertex -2.911300e+01 2.093000e+00 2.000000e+01
      vertex -3.009800e+01 2.902000e+00 0.000000e+00
    endloop
  endfacet
  facet normal 6.346892e-01 7.727675e-01 0.000000e+00
    outer loop
      vertex -2.911300e+01 2.093000e+00 0.000000e+00
      vertex -3.009800e+01 2.902000e+00 0.000000e+00
      vertex -2.911300e+01 2.093000e+00 2.000000e+01
    endloop
  endfacet
  facet normal 4.711985e-01 8.820272e-01 0.000000e+00
    outer loop
      vertex -2.911300e+01 2.093000e+00 0.000000e+00
      vertex -2.911300e+01 2.093000e+00 2.000000e+01
      vertex -2.798800e+01 1.492000e+00 0.000000e+00
    endloop
  endfacet
  facet normal 4.711985e-01 8.820272e-01 0.000000e+00
    outer loop
      vertex -2.798800e+01 1.492000e+00 2.000000e+01
      vertex -2.798800e+01 1.492000e+00 0.000000e+00
      vertex -2.911300e+01 2.093000e+00 2.000000e+01
    endloop
  endfacet
  facet normal 2.902251e-01 9.569584e-01 0.000000e+00
    outer loop
      vertex -2.798800e+01 1.492000e+00 0.000000e+00
      vertex -2.676800e+01 1.122000e+00 2.000000e+01
      vertex -2.676800e+01 1.122000e+00 0.000000e+00
    endloop
  endfacet
  facet normal 2.902251e-01 9.569584e-01 0.000000e+00
    outer loop
      vertex -2.798800e+01 1.492000e+00 2.000000e+01
      vertex -2.676800e+01 1.122000e+00 2.000000e+01
      vertex -2.798800e+01 1.492000e+00 0.000000e+00
    endloop
  endfacet
  facet normal 9.810489e-02 9.951761e-01 0.000000e+00
    outer loop
      vertex -2.550000e+01 9.970000e-01 2.000000e+01
      vertex -2.550000e+01 9.970000e-01 0.000000e+00
      vertex -2.676800e+01 1.122000e+00 2.000000e+01
    endloop
  endfacet
  facet normal 9.810489e-02 9.951761e-01 0.000000e+00
    outer loop
      vertex -2.676800e+01 1.122000e+00 0.000000e+00
      vertex -2.676800e+01 1.122000e+00 2.000000e+01
      vertex -2.550000e+01 9.970000e-01 0.000000e+00
    endloop
  endfacet
  facet normal -9.802833e-02 9.951836e-01 0.000000e+00
    outer loop
      vertex -2.550000e+01 9.970000e-01 0.000000e+00
      vertex -2.550000e+01 9.970000e-01 2.000000e+01
      vertex -2.423100e+01 1.122000e+00 2.000000e+01
    endloop
  endfacet
  facet normal -6.343046e-01 7.730833e-01 0.000000e+00
    outer loop
      vertex -2.090100e+01 2.902000e+00 0.000000e+00
      vertex -2.188700e+01 2.093000e+00 2.000000e+01
      vertex -2.090100e+01 2.902000e+00 2.000000e+01
    endloop
  endfacet
  facet normal -7.727675e-01 6.346892e-01 0.000000e+00
    outer loop
      vertex -2.090100e+01 2.902000e+00 0.000000e+00
      vertex -2.090100e+01 2.902000e+00 2.000000e+01
      vertex -2.009200e+01 3.887000e+00 2.000000e+01
    endloop
  endfacet
  facet normal 7.730833e-01 -6.343046e-01 0.000000e+00
    outer loop
      vertex -3.009800e+01 1.209800e+01 0.000000e+00
      vertex -3.009800e+01 1.209800e+01 2.000000e+01
      vertex -3.090700e+01 1.111200e+01 0.000000e+00
    endloop
  endfacet
  facet normal 8.818529e-01 -4.715246e-01 0.000000e+00
    outer loop
      vertex -3.150800e+01 9.988000e+00 2.000000e+01
      vertex -3.090700e+01 1.111200e+01 0.000000e+00
      vertex -3.090700e+01 1.111200e+01 2.000000e+01
    endloop
  endfacet
  facet normal -9.952524e-01 -9.732752e-02 0.000000e+00
    outer loop
      vertex -1.912100e+01 8.768000e+00 0.000000e+00
      vertex -1.899700e+01 7.500000e+00 2.000000e+01
      vertex -1.912100e+01 8.768000e+00 2.000000e+01
    endloop
  endfacet
  facet normal -1.000000e+00 0.000000e+00 0.000000e+00
    outer loop
      vertex -2.499900e+01 -1.500100e+01 0.000000e+00
      vertex -2.499900e+01 -1.500100e+01 2.000000e+01
      vertex -2.499900e+01 -1.500000e+01 2.000000e+01
    endloop
  endfacet
  facet normal -1.000000e+00 0.000000e+00 0.000000e+00
    outer loop
      vertex -2.499900e+01 -1.500100e+01 0.000000e+00
      vertex -2.499900e+01 -1.500000e+01 2.000000e+01
      vertex -2.499900e+01 -1.500000e+01 0.000000e+00
    endloop
  endfacet
  facet normal 0.000000e+00 0.000000e+00 -1.000000e+00
    outer loop
      vertex -2.499900e+01 -1.500000e+01 0.000000e+00
      vertex -2.188700e+01 2.093000e+00 0.000000e+00
      vertex 1.200100e+01 -1.500100e+01 0.000000e+00
    endloop
  endfacet
  facet normal 0.000000e+00 0.000000e+00 -1.000000e+00
    outer loop
      vertex -2.090100e+01 2.902000e+00 0.000000e+00
      vertex -2.009200e+01 3.887000e+00 0.000000e+00
      vertex 1.200100e+01 -1.500100e+01 0.000000e+00
    endloop
  endfacet
  facet normal -9.567403e-01 -2.909432e-01 0.000000e+00
    outer loop
      vertex -1.949200e+01 9.988000e+00 2.000000e+01
      vertex -1.949200e+01 9.988000e+00 0.000000e+00
      vertex -1.912100e+01 8.768000e+00 2.000000e+01
    endloop
  endfacet
  facet normal 0.000000e+00 8.002616e-01 -5.996510e-01
    outer loop
      vertex -3.600000e+01 -1.130200e+01 1.200200e+01
      vertex -3.600000e+01 -1.075200e+01 1.273600e+01
      vertex 1.200100e+01 -1.075200e+01 1.273600e+01
    endloop
  endfacet
  facet normal 0.000000e+00 8.002616e-01 -5.996510e-01
    outer loop
      vertex 1.200100e+01 -1.130200e+01 1.200200e+01
      vertex -3.600000e+01 -1.130200e+01 1.200200e+01
      vertex 1.200100e+01 -1.075200e+01 1.273600e+01
    endloop
  endfacet
  facet normal 0.000000e+00 0.000000e+00 -1.000000e+00
    outer loop
      vertex -2.301100e+01 1.492000e+00 0.000000e+00
      vertex -2.499900e+01 -1.500000e+01 0.000000e+00
      vertex -2.423100e+01 1.122000e+00 0.000000e+00
    endloop
  endfacet
  facet normal 0.000000e+00 0.000000e+00 -1.000000e+00
    outer loop
      vertex -2.550000e+01 9.970000e-01 0.000000e+00
      vertex -2.423100e+01 1.122000e+00 0.000000e+00
      vertex -2.499900e+01 -1.500000e+01 0.000000e+00
    endloop
  endfacet
  facet normal 0.000000e+00 9.804297e-01 -1.968695e-01
    outer loop
      vertex -3.600000e+01 -1.130200e+01 1.200200e+01
      vertex 1.200100e+01 -1.130200e+01 1.200200e+01
      vertex -3.600000e+01 -1.150300e+01 1.100100e+01
    endloop
  endfacet
  facet normal 0.000000e+00 9.804297e-01 -1.968695e-01
    outer loop
      vertex 1.200100e+01 -1.150300e+01 1.100100e+01
      vertex -3.600000e+01 -1.150300e+01 1.100100e+01
      vertex 1.200100e+01 -1.130200e+01 1.200200e+01
    endloop
  endfacet
  facet normal 0.000000e+00 9.804676e-01 1.966806e-01
    outer loop
      vertex 1.200100e+01 -1.150300e+01 1.100100e+01
      vertex 1.200100e+01 -1.130200e+01 9.999000e+00
      vertex -3.600000e+01 -1.150300e+01 1.100100e+01
    endloop
  endfacet
  facet normal 0.000000e+00 7.998690e-01 6.001745e-01
    outer loop
      vertex -3.600000e+01 -1.075200e+01 9.266000e+00
      vertex -3.600000e+01 -1.130200e+01 9.999000e+00
      vertex 1.200100e+01 -1.075200e+01 9.266000e+00
    endloop
  endfacet
  facet normal 0.000000e+00 7.998690e-01 6.001745e-01
    outer loop
      vertex -3.600000e+01 -1.130200e+01 9.999000e+00
      vertex 1.200100e+01 -1.130200e+01 9.999000e+00
      vertex 1.200100e+01 -1.075200e+01 9.266000e+00
    endloop
  endfacet
  facet normal 0.000000e+00 3.357015e-01 9.419684e-01
    outer loop
      vertex -3.600000e+01 -1.000000e+01 8.998000e+00
      vertex -3.600000e+01 -1.075200e+01 9.266000e+00
      vertex 1.200100e+01 -1.075200e+01 9.266000e+00
    endloop
  endfacet
  facet normal -9.802833e-02 9.951836e-01 0.000000e+00
    outer loop
      vertex -2.423100e+01 1.122000e+00 2.000000e+01
      vertex -2.423100e+01 1.122000e+00 0.000000e+00
      vertex -2.550000e+01 9.970000e-01 0.000000e+00
    endloop
  endfacet
  facet normal -2.902251e-01 9.569584e-01 0.000000e+00
    outer loop
      vertex -2.301100e+01 1.492000e+00 0.000000e+00
      vertex -2.423100e+01 1.122000e+00 0.000000e+00
      vertex -2.423100e+01 1.122000e+00 2.000000e+01
    endloop
  endfacet
endsolid Default
