solid Default
  facet normal 8.314189e-01 5.556462e-01 0.000000e+00
    outer loop
      vertex 1.625630e+01 1.314605e+01 0.000000e+00
      vertex 1.609642e+01 1.338528e+01 0.000000e+00
      vertex 1.625630e+01 1.314605e+01 8.287119e+01
    endloop
  endfacet
  facet normal 8.314189e-01 5.556462e-01 0.000000e+00
    outer loop
      vertex 1.609642e+01 1.338528e+01 1.186575e+02
      vertex 1.625630e+01 1.314605e+01 8.287119e+01
      vertex 1.609642e+01 1.338528e+01 0.000000e+00
    endloop
  endfacet
  facet normal 8.314189e-01 5.556462e-01 0.000000e+00
    outer loop
      vertex 1.813802e+01 1.033041e+01 0.000000e+00
      vertex 1.732780e+01 1.154276e+01 0.000000e+00
      vertex 1.732780e+01 1.154276e+01 8.287119e+01
    endloop
  endfacet
  facet normal 8.314189e-01 5.556462e-01 0.000000e+00
    outer loop
      vertex 1.609642e+01 1.338528e+01 1.186575e+02
      vertex 1.813802e+01 1.033041e+01 1.186575e+02
      vertex 1.732780e+01 1.154276e+01 8.287119e+01
    endloop
  endfacet
  facet normal 8.314189e-01 5.556462e-01 0.000000e+00
    outer loop
      vertex 1.813802e+01 1.033041e+01 0.000000e+00
      vertex 1.732780e+01 1.154276e+01 8.287119e+01
      vertex 1.813802e+01 1.033041e+01 1.186575e+02
    endloop
  endfacet
  facet normal 8.314189e-01 5.556462e-01 0.000000e+00
    outer loop
      vertex 1.609642e+01 1.338528e+01 1.186575e+02
      vertex 1.732780e+01 1.154276e+01 8.287119e+01
      vertex 1.625630e+01 1.314605e+01 8.287119e+01
    endloop
  endfacet
  facet normal 5.556462e-01 8.314189e-01 0.000000e+00
    outer loop
      vertex 1.609642e+01 1.338528e+01 0.000000e+00
      vertex 1.304156e+01 1.542687e+01 0.000000e+00
      vertex 1.304156e+01 1.542687e+01 1.186575e+02
    endloop
  endfacet
  facet normal 5.556462e-01 8.314189e-01 0.000000e+00
    outer loop
      vertex 1.609642e+01 1.338528e+01 0.000000e+00
      vertex 1.304156e+01 1.542687e+01 1.186575e+02
      vertex 1.609642e+01 1.338528e+01 1.186575e+02
    endloop
  endfacet
  facet normal 1.947362e-01 9.808556e-01 0.000000e+00
    outer loop
      vertex 1.304156e+01 1.542687e+01 0.000000e+00
      vertex 9.436742e+00 1.614256e+01 0.000000e+00
      vertex 9.436742e+00 1.614256e+01 1.186575e+02
    endloop
  endfacet
  facet normal 1.947362e-01 9.808556e-01 0.000000e+00
    outer loop
      vertex 1.304156e+01 1.542687e+01 0.000000e+00
      vertex 9.436742e+00 1.614256e+01 1.186575e+02
      vertex 1.304156e+01 1.542687e+01 1.186575e+02
    endloop
  endfacet
  facet normal -1.947362e-01 9.808556e-01 0.000000e+00
    outer loop
      vertex 9.436742e+00 1.614256e+01 0.000000e+00
      vertex 5.831927e+00 1.542687e+01 0.000000e+00
      vertex 5.831927e+00 1.542687e+01 1.186575e+02
    endloop
  endfacet
  facet normal -1.947362e-01 9.808556e-01 0.000000e+00
    outer loop
      vertex 9.436742e+00 1.614256e+01 0.000000e+00
      vertex 5.831927e+00 1.542687e+01 1.186575e+02
      vertex 9.436742e+00 1.614256e+01 1.186575e+02
    endloop
  endfacet
  facet normal -5.556462e-01 8.314189e-01 0.000000e+00
    outer loop
      vertex 5.831927e+00 1.542687e+01 0.000000e+00
      vertex 2.777063e+00 1.338528e+01 0.000000e+00
      vertex 2.777063e+00 1.338528e+01 1.186575e+02
    endloop
  endfacet
  facet normal -5.556462e-01 8.314189e-01 0.000000e+00
    outer loop
      vertex 5.831927e+00 1.542687e+01 0.000000e+00
      vertex 2.777063e+00 1.338528e+01 1.186575e+02
      vertex 5.831927e+00 1.542687e+01 1.186575e+02
    endloop
  endfacet
  facet normal -8.314189e-01 5.556462e-01 0.000000e+00
    outer loop
      vertex 2.777063e+00 1.338528e+01 0.000000e+00
      vertex 7.354652e-01 1.033041e+01 0.000000e+00
      vertex 7.354652e-01 1.033041e+01 1.186575e+02
    endloop
  endfacet
  facet normal -8.314189e-01 5.556462e-01 0.000000e+00
    outer loop
      vertex 2.777063e+00 1.338528e+01 0.000000e+00
      vertex 7.354652e-01 1.033041e+01 1.186575e+02
      vertex 2.777063e+00 1.338528e+01 1.186575e+02
    endloop
  endfacet
  facet normal -9.807577e-01 1.952292e-01 0.000000e+00
    outer loop
      vertex 7.354652e-01 1.033041e+01 0.000000e+00
      vertex 3.927996e-01 8.608991e+00 0.000000e+00
      vertex 3.927996e-01 8.608991e+00 8.287119e+01
    endloop
  endfacet
  facet normal -9.807577e-01 1.952292e-01 0.000000e+00
    outer loop
      vertex 7.354652e-01 1.033041e+01 0.000000e+00
      vertex 3.927996e-01 8.608991e+00 8.287119e+01
      vertex 7.354652e-01 1.033041e+01 1.186575e+02
    endloop
  endfacet
  facet normal -9.807577e-01 1.952292e-01 0.000000e+00
    outer loop
      vertex 1.789229e-02 6.725598e+00 8.287119e+01
      vertex 1.789229e-02 6.725598e+00 1.186575e+02
      vertex 3.927996e-01 8.608991e+00 8.287119e+01
    endloop
  endfacet
  facet normal -9.807577e-01 1.952292e-01 0.000000e+00
    outer loop
      vertex 7.354652e-01 1.033041e+01 1.186575e+02
      vertex 3.927996e-01 8.608991e+00 8.287119e+01
      vertex 1.789229e-02 6.725598e+00 1.186575e+02
    endloop
  endfacet
  facet normal 0.000000e+00 0.000000e+00 1.000000e+00
    outer loop
      vertex 1.663477e+01 8.714585e-01 8.287119e+01
      vertex 1.609642e+01 6.591848e-02 8.287119e+01
      vertex 1.621887e+01 -2.691369e+00 8.287119e+01
    endloop
  endfacet
  facet normal 1.947362e-01 -9.808556e-01 0.000000e+00
    outer loop
      vertex 9.436742e+00 -2.691369e+00 1.186575e+02
      vertex 9.436742e+00 -2.691369e+00 0.000000e+00
      vertex 1.304156e+01 -1.975679e+00 0.000000e+00
    endloop
  endfacet
  facet normal 1.947362e-01 -9.808556e-01 0.000000e+00
    outer loop
      vertex 9.436742e+00 -2.691369e+00 1.186575e+02
      vertex 1.304156e+01 -1.975679e+00 0.000000e+00
      vertex 1.304156e+01 -1.975679e+00 1.186575e+02
    endloop
  endfacet
  facet normal 9.062983e-01 4.226385e-01 0.000000e+00
    outer loop
      vertex 2.454722e+01 -1.609586e+01 5.119259e+01
      vertex 2.454758e+01 -1.609662e+01 3.235103e+01
      vertex 1.663477e+01 8.714585e-01 8.287119e+01
    endloop
  endfacet
  facet normal 0.000000e+00 0.000000e+00 1.000000e+00
    outer loop
      vertex 1.520953e+01 -5.267982e-01 8.287119e+01
      vertex 1.621887e+01 -2.691369e+00 8.287119e+01
      vertex 1.609642e+01 6.591848e-02 8.287119e+01
    endloop
  endfacet
  facet normal 5.556462e-01 -8.314189e-01 0.000000e+00
    outer loop
      vertex 1.304156e+01 -1.975679e+00 0.000000e+00
      vertex 1.520953e+01 -5.267982e-01 0.000000e+00
      vertex 1.520953e+01 -5.267982e-01 8.287119e+01
    endloop
  endfacet
  facet normal 5.556462e-01 -8.314189e-01 0.000000e+00
    outer loop
      vertex 1.304156e+01 -1.975679e+00 0.000000e+00
      vertex 1.520953e+01 -5.267982e-01 8.287119e+01
      vertex 1.304156e+01 -1.975679e+00 1.186575e+02
    endloop
  endfacet
  facet normal 5.556462e-01 -8.314189e-01 0.000000e+00
    outer loop
      vertex 1.609642e+01 6.591848e-02 8.287119e+01
      vertex 1.609642e+01 6.591848e-02 1.186575e+02
      vertex 1.520953e+01 -5.267982e-01 8.287119e+01
    endloop
  endfacet
  facet normal 5.556462e-01 -8.314189e-01 0.000000e+00
    outer loop
      vertex 1.304156e+01 -1.975679e+00 1.186575e+02
      vertex 1.520953e+01 -5.267982e-01 8.287119e+01
      vertex 1.609642e+01 6.591848e-02 1.186575e+02
    endloop
  endfacet
  facet normal 8.314189e-01 -5.556462e-01 0.000000e+00
    outer loop
      vertex 1.663477e+01 8.714585e-01 0.000000e+00
      vertex 1.813802e+01 3.120784e+00 0.000000e+00
      vertex 1.663477e+01 8.714585e-01 8.287119e+01
    endloop
  endfacet
  facet normal 8.314189e-01 -5.556462e-01 0.000000e+00
    outer loop
      vertex 1.813802e+01 3.120784e+00 0.000000e+00
      vertex 1.813802e+01 3.120784e+00 1.186575e+02
      vertex 1.663477e+01 8.714585e-01 8.287119e+01
    endloop
  endfacet
  facet normal 8.314189e-01 -5.556462e-01 0.000000e+00
    outer loop
      vertex 1.813802e+01 3.120784e+00 1.186575e+02
      vertex 1.609642e+01 6.591848e-02 1.186575e+02
      vertex 1.663477e+01 8.714585e-01 8.287119e+01
    endloop
  endfacet
  facet normal 8.314189e-01 -5.556462e-01 0.000000e+00
    outer loop
      vertex 1.609642e+01 6.591848e-02 8.287119e+01
      vertex 1.663477e+01 8.714585e-01 8.287119e+01
      vertex 1.609642e+01 6.591848e-02 1.186575e+02
    endloop
  endfacet
  facet normal 9.808556e-01 -1.947362e-01 0.000000e+00
    outer loop
      vertex 1.813802e+01 3.120784e+00 0.000000e+00
      vertex 1.885371e+01 6.725598e+00 0.000000e+00
      vertex 1.885371e+01 6.725598e+00 1.186575e+02
    endloop
  endfacet
  facet normal 9.808556e-01 -1.947362e-01 0.000000e+00
    outer loop
      vertex 1.813802e+01 3.120784e+00 0.000000e+00
      vertex 1.885371e+01 6.725598e+00 1.186575e+02
      vertex 1.813802e+01 3.120784e+00 1.186575e+02
    endloop
  endfacet
  facet normal 7.193540e-01 -6.946437e-01 0.000000e+00
    outer loop
      vertex 7.154917e+01 6.769292e+01 0.000000e+00
      vertex 4.238853e+01 3.749496e+01 2.299027e+01
      vertex 1.732780e+01 1.154276e+01 0.000000e+00
    endloop
  endfacet
  facet normal 9.808556e-01 1.947362e-01 0.000000e+00
    outer loop
      vertex 1.885371e+01 6.725598e+00 0.000000e+00
      vertex 1.813802e+01 1.033041e+01 0.000000e+00
      vertex 1.813802e+01 1.033041e+01 1.186575e+02
    endloop
  endfacet
  facet normal 9.808556e-01 1.947362e-01 0.000000e+00
    outer loop
      vertex 1.885371e+01 6.725598e+00 0.000000e+00
      vertex 1.813802e+01 1.033041e+01 1.186575e+02
      vertex 1.885371e+01 6.725598e+00 1.186575e+02
    endloop
  endfacet
  facet normal 7.193540e-01 -6.946437e-01 0.000000e+00
    outer loop
      vertex 7.154917e+01 6.769292e+01 0.000000e+00
      vertex 5.384647e+01 4.936050e+01 3.236946e+01
      vertex 4.238853e+01 3.749496e+01 2.299027e+01
    endloop
  endfacet
  facet normal 7.193540e-01 -6.946437e-01 0.000000e+00
    outer loop
      vertex 3.092981e+01 2.562863e+01 3.245454e+01
      vertex 1.732780e+01 1.154276e+01 0.000000e+00
      vertex 4.238853e+01 3.749496e+01 2.299027e+01
    endloop
  endfacet
  facet normal 7.193540e-01 -6.946437e-01 0.000000e+00
    outer loop
      vertex 7.154917e+01 6.769292e+01 0.000000e+00
      vertex 7.154917e+01 6.769292e+01 8.287119e+01
      vertex 5.384647e+01 4.936050e+01 3.236946e+01
    endloop
  endfacet
  facet normal 7.193540e-01 -6.946437e-01 0.000000e+00
    outer loop
      vertex 4.238806e+01 3.749448e+01 6.067526e+01
      vertex 7.154917e+01 6.769292e+01 8.287119e+01
      vertex 1.732780e+01 1.154276e+01 8.287119e+01
    endloop
  endfacet
  facet normal 7.193540e-01 -6.946437e-01 0.000000e+00
    outer loop
      vertex 7.154917e+01 6.769292e+01 8.287119e+01
      vertex 4.238806e+01 3.749448e+01 6.067526e+01
      vertex 5.384678e+01 4.936081e+01 5.121100e+01
    endloop
  endfacet
  facet normal 7.193540e-01 -6.946437e-01 0.000000e+00
    outer loop
      vertex 5.384678e+01 4.936081e+01 5.121100e+01
      vertex 5.384647e+01 4.936050e+01 3.236946e+01
      vertex 7.154917e+01 6.769292e+01 8.287119e+01
    endloop
  endfacet
  facet normal 6.944873e-01 7.195050e-01 0.000000e+00
    outer loop
      vertex 7.154917e+01 6.769292e+01 0.000000e+00
      vertex 7.019501e+01 6.900000e+01 0.000000e+00
      vertex 7.154917e+01 6.769292e+01 8.287119e+01
    endloop
  endfacet
  facet normal 6.944873e-01 7.195050e-01 0.000000e+00
    outer loop
      vertex 7.019501e+01 6.900000e+01 8.287119e+01
      vertex 7.154917e+01 6.769292e+01 8.287119e+01
      vertex 7.019501e+01 6.900000e+01 0.000000e+00
    endloop
  endfacet
  facet normal 0.000000e+00 0.000000e+00 1.000000e+00
    outer loop
      vertex 1.732780e+01 1.154276e+01 8.287119e+01
      vertex 7.154917e+01 6.769292e+01 8.287119e+01
      vertex 1.625630e+01 1.314605e+01 8.287119e+01
    endloop
  endfacet
  facet normal 0.000000e+00 0.000000e+00 1.000000e+00
    outer loop
      vertex 7.019501e+01 6.900000e+01 8.287119e+01
      vertex 1.625630e+01 1.314605e+01 8.287119e+01
      vertex 7.154917e+01 6.769292e+01 8.287119e+01
    endloop
  endfacet
  facet normal 2.780646e-01 4.158584e-01 -8.658764e-01
    outer loop
      vertex 4.083772e+01 3.860031e+01 6.070849e+01
      vertex 4.238806e+01 3.749448e+01 6.067526e+01
      vertex 3.092904e+01 2.562783e+01 5.129610e+01
    endloop
  endfacet
  facet normal 2.780646e-01 4.158584e-01 -8.658764e-01
    outer loop
      vertex 4.083772e+01 3.860031e+01 6.070849e+01
      vertex 3.092904e+01 2.562783e+01 5.129610e+01
      vertex 2.937827e+01 2.673396e+01 5.132934e+01
    endloop
  endfacet
  facet normal 5.806950e-01 8.141212e-01 5.816086e-05
    outer loop
      vertex 3.092981e+01 2.562863e+01 3.245454e+01
      vertex 2.937904e+01 2.673476e+01 3.248777e+01
      vertex 3.092904e+01 2.562783e+01 5.129610e+01
    endloop
  endfacet
  facet normal 5.806950e-01 8.141212e-01 5.816086e-05
    outer loop
      vertex 2.937827e+01 2.673396e+01 5.132934e+01
      vertex 3.092904e+01 2.562783e+01 5.129610e+01
      vertex 2.937904e+01 2.673476e+01 3.248777e+01
    endloop
  endfacet
  facet normal 3.026704e-01 3.983209e-01 8.658701e-01
    outer loop
      vertex 2.937904e+01 2.673476e+01 3.248777e+01
      vertex 3.092981e+01 2.562863e+01 3.245454e+01
      vertex 4.083818e+01 3.860078e+01 2.302350e+01
    endloop
  endfacet
  facet normal 3.026704e-01 3.983209e-01 8.658701e-01
    outer loop
      vertex 4.238853e+01 3.749496e+01 2.299027e+01
      vertex 4.083818e+01 3.860078e+01 2.302350e+01
      vertex 3.092981e+01 2.562863e+01 3.245454e+01
    endloop
  endfacet
  facet normal -2.780858e-01 -4.158875e-01 8.658556e-01
    outer loop
      vertex 4.083818e+01 3.860078e+01 2.302350e+01
      vertex 4.238853e+01 3.749496e+01 2.299027e+01
      vertex 5.229656e+01 5.046602e+01 3.240267e+01
    endloop
  endfacet
  facet normal -2.780858e-01 -4.158875e-01 8.658556e-01
    outer loop
      vertex 5.384647e+01 4.936050e+01 3.236946e+01
      vertex 5.229656e+01 5.046602e+01 3.240267e+01
      vertex 4.238853e+01 3.749496e+01 2.299027e+01
    endloop
  endfacet
  facet normal -5.806938e-01 -8.141221e-01 2.321839e-05
    outer loop
      vertex 5.384678e+01 4.936081e+01 5.121100e+01
      vertex 5.229687e+01 5.046633e+01 5.124422e+01
      vertex 5.229656e+01 5.046602e+01 3.240267e+01
    endloop
  endfacet
  facet normal -5.806938e-01 -8.141221e-01 2.321839e-05
    outer loop
      vertex 5.384678e+01 4.936081e+01 5.121100e+01
      vertex 5.229656e+01 5.046602e+01 3.240267e+01
      vertex 5.384647e+01 4.936050e+01 3.236946e+01
    endloop
  endfacet
  facet normal -3.026704e-01 -3.983209e-01 -8.658701e-01
    outer loop
      vertex 4.238806e+01 3.749448e+01 6.067526e+01
      vertex 4.083772e+01 3.860031e+01 6.070849e+01
      vertex 5.229687e+01 5.046633e+01 5.124422e+01
    endloop
  endfacet
  facet normal -3.026704e-01 -3.983209e-01 -8.658701e-01
    outer loop
      vertex 4.238806e+01 3.749448e+01 6.067526e+01
      vertex 5.229687e+01 5.046633e+01 5.124422e+01
      vertex 5.384678e+01 4.936081e+01 5.121100e+01
    endloop
  endfacet
  facet normal 0.000000e+00 0.000000e+00 1.000000e+00
    outer loop
      vertex 9.436742e+00 1.614256e+01 1.186575e+02
      vertex 5.831927e+00 1.542687e+01 1.186575e+02
      vertex 2.777063e+00 1.338528e+01 1.186575e+02
    endloop
  endfacet
  facet normal 0.000000e+00 0.000000e+00 1.000000e+00
    outer loop
      vertex 9.436742e+00 1.614256e+01 1.186575e+02
      vertex 2.777063e+00 1.338528e+01 1.186575e+02
      vertex 7.354652e-01 1.033041e+01 1.186575e+02
    endloop
  endfacet
  facet normal 0.000000e+00 0.000000e+00 1.000000e+00
    outer loop
      vertex 9.436742e+00 1.614256e+01 1.186575e+02
      vertex 7.354652e-01 1.033041e+01 1.186575e+02
      vertex 1.789229e-02 6.725598e+00 1.186575e+02
    endloop
  endfacet
  facet normal 0.000000e+00 0.000000e+00 1.000000e+00
    outer loop
      vertex 9.436742e+00 1.614256e+01 1.186575e+02
      vertex 1.789229e-02 6.725598e+00 1.186575e+02
      vertex 7.354652e-01 3.120784e+00 1.186575e+02
    endloop
  endfacet
  facet normal 0.000000e+00 0.000000e+00 1.000000e+00
    outer loop
      vertex 9.436742e+00 1.614256e+01 1.186575e+02
      vertex 7.354652e-01 3.120784e+00 1.186575e+02
      vertex 2.777063e+00 6.591848e-02 1.186575e+02
    endloop
  endfacet
  facet normal 0.000000e+00 0.000000e+00 1.000000e+00
    outer loop
      vertex 9.436742e+00 1.614256e+01 1.186575e+02
      vertex 2.777063e+00 6.591848e-02 1.186575e+02
      vertex 5.831927e+00 -1.975679e+00 1.186575e+02
    endloop
  endfacet
  facet normal 0.000000e+00 0.000000e+00 1.000000e+00
    outer loop
      vertex 9.436742e+00 1.614256e+01 1.186575e+02
      vertex 5.831927e+00 -1.975679e+00 1.186575e+02
      vertex 9.436742e+00 -2.691369e+00 1.186575e+02
    endloop
  endfacet
  facet normal 0.000000e+00 0.000000e+00 1.000000e+00
    outer loop
      vertex 9.436742e+00 1.614256e+01 1.186575e+02
      vertex 9.436742e+00 -2.691369e+00 1.186575e+02
      vertex 1.304156e+01 -1.975679e+00 1.186575e+02
    endloop
  endfacet
  facet normal 0.000000e+00 0.000000e+00 1.000000e+00
    outer loop
      vertex 9.436742e+00 1.614256e+01 1.186575e+02
      vertex 1.304156e+01 -1.975679e+00 1.186575e+02
      vertex 1.609642e+01 6.591848e-02 1.186575e+02
    endloop
  endfacet
  facet normal 0.000000e+00 0.000000e+00 1.000000e+00
    outer loop
      vertex 9.436742e+00 1.614256e+01 1.186575e+02
      vertex 1.609642e+01 6.591848e-02 1.186575e+02
      vertex 1.813802e+01 3.120784e+00 1.186575e+02
    endloop
  endfacet
  facet normal 0.000000e+00 0.000000e+00 1.000000e+00
    outer loop
      vertex 9.436742e+00 1.614256e+01 1.186575e+02
      vertex 1.813802e+01 3.120784e+00 1.186575e+02
      vertex 1.885371e+01 6.725598e+00 1.186575e+02
    endloop
  endfacet
  facet normal 0.000000e+00 0.000000e+00 1.000000e+00
    outer loop
      vertex 9.436742e+00 1.614256e+01 1.186575e+02
      vertex 1.885371e+01 6.725598e+00 1.186575e+02
      vertex 1.813802e+01 1.033041e+01 1.186575e+02
    endloop
  endfacet
  facet normal 0.000000e+00 0.000000e+00 1.000000e+00
    outer loop
      vertex 9.436742e+00 1.614256e+01 1.186575e+02
      vertex 1.813802e+01 1.033041e+01 1.186575e+02
      vertex 1.609642e+01 1.338528e+01 1.186575e+02
    endloop
  endfacet
  facet normal 0.000000e+00 0.000000e+00 1.000000e+00
    outer loop
      vertex 9.436742e+00 1.614256e+01 1.186575e+02
      vertex 1.609642e+01 1.338528e+01 1.186575e+02
      vertex 1.304156e+01 1.542687e+01 1.186575e+02
    endloop
  endfacet
  facet normal -9.807577e-01 -1.952292e-01 0.000000e+00
    outer loop
      vertex 1.789229e-02 6.725598e+00 0.000000e+00
      vertex 7.354652e-01 3.120784e+00 0.000000e+00
      vertex 1.789229e-02 6.725598e+00 8.287119e+01
    endloop
  endfacet
  facet normal -9.807577e-01 -1.952292e-01 0.000000e+00
    outer loop
      vertex 7.354652e-01 3.120784e+00 0.000000e+00
      vertex 7.354652e-01 3.120784e+00 1.186575e+02
      vertex 1.789229e-02 6.725598e+00 8.287119e+01
    endloop
  endfacet
  facet normal -9.807577e-01 -1.952292e-01 0.000000e+00
    outer loop
      vertex 1.789229e-02 6.725598e+00 1.186575e+02
      vertex 1.789229e-02 6.725598e+00 8.287119e+01
      vertex 7.354652e-01 3.120784e+00 1.186575e+02
    endloop
  endfacet
  facet normal -8.314189e-01 -5.556462e-01 0.000000e+00
    outer loop
      vertex 7.354652e-01 3.120784e+00 0.000000e+00
      vertex 2.777063e+00 6.591848e-02 0.000000e+00
      vertex 2.777063e+00 6.591848e-02 1.186575e+02
    endloop
  endfacet
  facet normal -8.314189e-01 -5.556462e-01 0.000000e+00
    outer loop
      vertex 7.354652e-01 3.120784e+00 0.000000e+00
      vertex 2.777063e+00 6.591848e-02 1.186575e+02
      vertex 7.354652e-01 3.120784e+00 1.186575e+02
    endloop
  endfacet
  facet normal -5.556462e-01 -8.314189e-01 0.000000e+00
    outer loop
      vertex 2.777063e+00 6.591848e-02 0.000000e+00
      vertex 5.831927e+00 -1.975679e+00 0.000000e+00
      vertex 5.831927e+00 -1.975679e+00 1.186575e+02
    endloop
  endfacet
  facet normal -5.556462e-01 -8.314189e-01 0.000000e+00
    outer loop
      vertex 2.777063e+00 6.591848e-02 0.000000e+00
      vertex 5.831927e+00 -1.975679e+00 1.186575e+02
      vertex 2.777063e+00 6.591848e-02 1.186575e+02
    endloop
  endfacet
  facet normal -1.947362e-01 -9.808556e-01 0.000000e+00
    outer loop
      vertex 5.831927e+00 -1.975679e+00 0.000000e+00
      vertex 9.436742e+00 -2.691369e+00 0.000000e+00
      vertex 9.436742e+00 -2.691369e+00 1.186575e+02
    endloop
  endfacet
  facet normal -1.947362e-01 -9.808556e-01 0.000000e+00
    outer loop
      vertex 5.831927e+00 -1.975679e+00 0.000000e+00
      vertex 9.436742e+00 -2.691369e+00 1.186575e+02
      vertex 5.831927e+00 -1.975679e+00 1.186575e+02
    endloop
  endfacet
  facet normal -9.063108e-01 -4.226117e-01 0.000000e+00
    outer loop
      vertex 1.520953e+01 -5.267982e-01 0.000000e+00
      vertex 2.293855e+01 -1.710205e+01 3.238414e+01
      vertex 1.520953e+01 -5.267982e-01 8.287119e+01
    endloop
  endfacet
  facet normal -9.063108e-01 -4.226117e-01 0.000000e+00
    outer loop
      vertex 1.621887e+01 -2.691369e+00 8.287119e+01
      vertex 1.520953e+01 -5.267982e-01 8.287119e+01
      vertex 2.293820e+01 -1.710129e+01 5.122570e+01
    endloop
  endfacet
  facet normal 0.000000e+00 0.000000e+00 -1.000000e+00
    outer loop
      vertex 7.019501e+01 6.900000e+01 0.000000e+00
      vertex 7.154917e+01 6.769292e+01 0.000000e+00
      vertex 1.625630e+01 1.314605e+01 0.000000e+00
    endloop
  endfacet
  facet normal 0.000000e+00 0.000000e+00 -1.000000e+00
    outer loop
      vertex 7.154917e+01 6.769292e+01 0.000000e+00
      vertex 1.732780e+01 1.154276e+01 0.000000e+00
      vertex 1.625630e+01 1.314605e+01 0.000000e+00
    endloop
  endfacet
  facet normal 0.000000e+00 0.000000e+00 -1.000000e+00
    outer loop
      vertex 7.354652e-01 1.033041e+01 0.000000e+00
      vertex 2.777063e+00 1.338528e+01 0.000000e+00
      vertex 3.927996e-01 8.608991e+00 0.000000e+00
    endloop
  endfacet
  facet normal 0.000000e+00 0.000000e+00 -1.000000e+00
    outer loop
      vertex 2.777063e+00 1.338528e+01 0.000000e+00
      vertex 5.831927e+00 1.542687e+01 0.000000e+00
      vertex 3.927996e-01 8.608991e+00 0.000000e+00
    endloop
  endfacet
  facet normal 0.000000e+00 0.000000e+00 -1.000000e+00
    outer loop
      vertex 5.831927e+00 1.542687e+01 0.000000e+00
      vertex 9.436742e+00 1.614256e+01 0.000000e+00
      vertex 3.927996e-01 8.608991e+00 0.000000e+00
    endloop
  endfacet
  facet normal 0.000000e+00 0.000000e+00 -1.000000e+00
    outer loop
      vertex 9.436742e+00 1.614256e+01 0.000000e+00
      vertex 1.304156e+01 1.542687e+01 0.000000e+00
      vertex 3.927996e-01 8.608991e+00 0.000000e+00
    endloop
  endfacet
  facet normal 0.000000e+00 0.000000e+00 -1.000000e+00
    outer loop
      vertex 1.304156e+01 1.542687e+01 0.000000e+00
      vertex 1.609642e+01 1.338528e+01 0.000000e+00
      vertex 3.927996e-01 8.608991e+00 0.000000e+00
    endloop
  endfacet
  facet normal 0.000000e+00 0.000000e+00 -1.000000e+00
    outer loop
      vertex 1.609642e+01 1.338528e+01 0.000000e+00
      vertex 1.625630e+01 1.314605e+01 0.000000e+00
      vertex 3.927996e-01 8.608991e+00 0.000000e+00
    endloop
  endfacet
  facet normal 0.000000e+00 0.000000e+00 -1.000000e+00
    outer loop
      vertex 1.625630e+01 1.314605e+01 0.000000e+00
      vertex 1.732780e+01 1.154276e+01 0.000000e+00
      vertex 3.927996e-01 8.608991e+00 0.000000e+00
    endloop
  endfacet
  facet normal 0.000000e+00 0.000000e+00 -1.000000e+00
    outer loop
      vertex 1.789229e-02 6.725598e+00 0.000000e+00
      vertex 3.927996e-01 8.608991e+00 0.000000e+00
      vertex 1.732780e+01 1.154276e+01 0.000000e+00
    endloop
  endfacet
  facet normal 0.000000e+00 0.000000e+00 -1.000000e+00
    outer loop
      vertex 1.789229e-02 6.725598e+00 0.000000e+00
      vertex 1.732780e+01 1.154276e+01 0.000000e+00
      vertex 1.813802e+01 1.033041e+01 0.000000e+00
    endloop
  endfacet
  facet normal 0.000000e+00 0.000000e+00 -1.000000e+00
    outer loop
      vertex 1.789229e-02 6.725598e+00 0.000000e+00
      vertex 1.813802e+01 1.033041e+01 0.000000e+00
      vertex 1.885371e+01 6.725598e+00 0.000000e+00
    endloop
  endfacet
  facet normal 0.000000e+00 0.000000e+00 -1.000000e+00
    outer loop
      vertex 1.789229e-02 6.725598e+00 0.000000e+00
      vertex 1.885371e+01 6.725598e+00 0.000000e+00
      vertex 1.813802e+01 3.120784e+00 0.000000e+00
    endloop
  endfacet
  facet normal 0.000000e+00 0.000000e+00 -1.000000e+00
    outer loop
      vertex 1.789229e-02 6.725598e+00 0.000000e+00
      vertex 1.813802e+01 3.120784e+00 0.000000e+00
      vertex 1.663477e+01 8.714585e-01 0.000000e+00
    endloop
  endfacet
  facet normal 0.000000e+00 0.000000e+00 -1.000000e+00
    outer loop
      vertex 1.789229e-02 6.725598e+00 0.000000e+00
      vertex 1.663477e+01 8.714585e-01 0.000000e+00
      vertex 1.520953e+01 -5.267982e-01 0.000000e+00
    endloop
  endfacet
  facet normal 0.000000e+00 0.000000e+00 -1.000000e+00
    outer loop
      vertex 1.789229e-02 6.725598e+00 0.000000e+00
      vertex 1.520953e+01 -5.267982e-01 0.000000e+00
      vertex 1.304156e+01 -1.975679e+00 0.000000e+00
    endloop
  endfacet
  facet normal 0.000000e+00 0.000000e+00 -1.000000e+00
    outer loop
      vertex 1.789229e-02 6.725598e+00 0.000000e+00
      vertex 1.304156e+01 -1.975679e+00 0.000000e+00
      vertex 9.436742e+00 -2.691369e+00 0.000000e+00
    endloop
  endfacet
  facet normal 0.000000e+00 0.000000e+00 -1.000000e+00
    outer loop
      vertex 1.789229e-02 6.725598e+00 0.000000e+00
      vertex 9.436742e+00 -2.691369e+00 0.000000e+00
      vertex 5.831927e+00 -1.975679e+00 0.000000e+00
    endloop
  endfacet
  facet normal 0.000000e+00 0.000000e+00 -1.000000e+00
    outer loop
      vertex 1.789229e-02 6.725598e+00 0.000000e+00
      vertex 5.831927e+00 -1.975679e+00 0.000000e+00
      vertex 2.777063e+00 6.591848e-02 0.000000e+00
    endloop
  endfacet
  facet normal 0.000000e+00 0.000000e+00 -1.000000e+00
    outer loop
      vertex 1.789229e-02 6.725598e+00 0.000000e+00
      vertex 2.777063e+00 6.591848e-02 0.000000e+00
      vertex 7.354652e-01 3.120784e+00 0.000000e+00
    endloop
  endfacet
  facet normal -7.193322e-01 6.946662e-01 0.000000e+00
    outer loop
      vertex 1.625630e+01 1.314605e+01 8.287119e+01
      vertex 4.083772e+01 3.860031e+01 6.070849e+01
      vertex 2.937827e+01 2.673396e+01 5.132934e+01
    endloop
  endfacet
  facet normal -7.193322e-01 6.946662e-01 0.000000e+00
    outer loop
      vertex 1.625630e+01 1.314605e+01 0.000000e+00
      vertex 1.625630e+01 1.314605e+01 8.287119e+01
      vertex 2.937904e+01 2.673476e+01 3.248777e+01
    endloop
  endfacet
  facet normal -7.193322e-01 6.946662e-01 0.000000e+00
    outer loop
      vertex 2.937827e+01 2.673396e+01 5.132934e+01
      vertex 2.937904e+01 2.673476e+01 3.248777e+01
      vertex 1.625630e+01 1.314605e+01 8.287119e+01
    endloop
  endfacet
  facet normal -7.193322e-01 6.946662e-01 0.000000e+00
    outer loop
      vertex 4.083818e+01 3.860078e+01 2.302350e+01
      vertex 1.625630e+01 1.314605e+01 0.000000e+00
      vertex 2.937904e+01 2.673476e+01 3.248777e+01
    endloop
  endfacet
  facet normal -7.193322e-01 6.946662e-01 0.000000e+00
    outer loop
      vertex 5.229656e+01 5.046602e+01 3.240267e+01
      vertex 7.019501e+01 6.900000e+01 0.000000e+00
      vertex 4.083818e+01 3.860078e+01 2.302350e+01
    endloop
  endfacet
  facet normal -7.193322e-01 6.946662e-01 0.000000e+00
    outer loop
      vertex 7.019501e+01 6.900000e+01 0.000000e+00
      vertex 1.625630e+01 1.314605e+01 0.000000e+00
      vertex 4.083818e+01 3.860078e+01 2.302350e+01
    endloop
  endfacet
  facet normal -7.193322e-01 6.946662e-01 0.000000e+00
    outer loop
      vertex 5.229687e+01 5.046633e+01 5.124422e+01
      vertex 7.019501e+01 6.900000e+01 8.287119e+01
      vertex 5.229656e+01 5.046602e+01 3.240267e+01
    endloop
  endfacet
  facet normal -7.193322e-01 6.946662e-01 0.000000e+00
    outer loop
      vertex 7.019501e+01 6.900000e+01 0.000000e+00
      vertex 5.229656e+01 5.046602e+01 3.240267e+01
      vertex 7.019501e+01 6.900000e+01 8.287119e+01
    endloop
  endfacet
  facet normal -7.193322e-01 6.946662e-01 0.000000e+00
    outer loop
      vertex 5.229687e+01 5.046633e+01 5.124422e+01
      vertex 4.083772e+01 3.860031e+01 6.070849e+01
      vertex 7.019501e+01 6.900000e+01 8.287119e+01
    endloop
  endfacet
  facet normal -7.193322e-01 6.946662e-01 0.000000e+00
    outer loop
      vertex 1.625630e+01 1.314605e+01 8.287119e+01
      vertex 7.019501e+01 6.900000e+01 8.287119e+01
      vertex 4.083772e+01 3.860031e+01 6.070849e+01
    endloop
  endfacet
  facet normal 7.193540e-01 -6.946437e-01 0.000000e+00
    outer loop
      vertex 3.092904e+01 2.562783e+01 5.129610e+01
      vertex 1.732780e+01 1.154276e+01 8.287119e+01
      vertex 3.092981e+01 2.562863e+01 3.245454e+01
    endloop
  endfacet
  facet normal 7.193540e-01 -6.946437e-01 0.000000e+00
    outer loop
      vertex 4.238806e+01 3.749448e+01 6.067526e+01
      vertex 1.732780e+01 1.154276e+01 8.287119e+01
      vertex 3.092904e+01 2.562783e+01 5.129610e+01
    endloop
  endfacet
  facet normal 7.193540e-01 -6.946437e-01 0.000000e+00
    outer loop
      vertex 1.732780e+01 1.154276e+01 0.000000e+00
      vertex 3.092981e+01 2.562863e+01 3.245454e+01
      vertex 1.732780e+01 1.154276e+01 8.287119e+01
    endloop
  endfacet
  facet normal 0.000000e+00 0.000000e+00 1.000000e+00
    outer loop
      vertex 4.713851e+01 -6.900000e+01 8.287119e+01
      vertex 4.884675e+01 -6.820332e+01 8.287119e+01
      vertex 1.621887e+01 -2.691369e+00 8.287119e+01
    endloop
  endfacet
  facet normal 0.000000e+00 0.000000e+00 1.000000e+00
    outer loop
      vertex 1.663477e+01 8.714585e-01 8.287119e+01
      vertex 1.621887e+01 -2.691369e+00 8.287119e+01
      vertex 4.884675e+01 -6.820332e+01 8.287119e+01
    endloop
  endfacet
  facet normal 4.226666e-01 -9.062852e-01 0.000000e+00
    outer loop
      vertex 4.884675e+01 -6.820332e+01 0.000000e+00
      vertex 4.884675e+01 -6.820332e+01 8.287119e+01
      vertex 4.713851e+01 -6.900000e+01 0.000000e+00
    endloop
  endfacet
  facet normal 4.226666e-01 -9.062852e-01 0.000000e+00
    outer loop
      vertex 4.713851e+01 -6.900000e+01 8.287119e+01
      vertex 4.713851e+01 -6.900000e+01 0.000000e+00
      vertex 4.884675e+01 -6.820332e+01 8.287119e+01
    endloop
  endfacet
  facet normal -2.777916e-01 4.160499e-01 -8.658720e-01
    outer loop
      vertex 3.844112e+01 -4.588969e+01 5.126250e+01
      vertex 3.683127e+01 -4.689563e+01 5.129562e+01
      vertex 3.430078e+01 -3.701120e+01 5.685691e+01
    endloop
  endfacet
  facet normal -2.777916e-01 4.160499e-01 -8.658720e-01
    outer loop
      vertex 3.235747e+01 -3.730136e+01 5.734095e+01
      vertex 3.430078e+01 -3.701120e+01 5.685691e+01
      vertex 3.683127e+01 -4.689563e+01 5.129562e+01
    endloop
  endfacet
  facet normal -5.299187e-01 8.480485e-01 -4.404950e-05
    outer loop
      vertex 3.683127e+01 -4.689563e+01 5.129562e+01
      vertex 3.844112e+01 -4.588969e+01 5.126250e+01
      vertex 3.683162e+01 -4.689639e+01 3.245406e+01
    endloop
  endfacet
  facet normal -5.299187e-01 8.480485e-01 -4.404950e-05
    outer loop
      vertex 3.844148e+01 -4.589045e+01 3.242094e+01
      vertex 3.683162e+01 -4.689639e+01 3.245406e+01
      vertex 3.844112e+01 -4.588969e+01 5.126250e+01
    endloop
  endfacet
  facet normal -2.521468e-01 4.320557e-01 8.658810e-01
    outer loop
      vertex 3.149434e+01 -3.099313e+01 2.296427e+01
      vertex 2.988488e+01 -3.199877e+01 2.299739e+01
      vertex 3.561376e+01 -3.982675e+01 2.857164e+01
    endloop
  endfacet
  facet normal -2.521468e-01 4.320557e-01 8.658810e-01
    outer loop
      vertex 3.437546e+01 -4.162902e+01 2.911034e+01
      vertex 3.561376e+01 -3.982675e+01 2.857164e+01
      vertex 2.988488e+01 -3.199877e+01 2.299739e+01
    endloop
  endfacet
  facet normal -2.521692e-01 4.320674e-01 8.658686e-01
    outer loop
      vertex 3.561376e+01 -3.982675e+01 2.857164e+01
      vertex 3.437546e+01 -4.162902e+01 2.911034e+01
      vertex 3.844148e+01 -4.589045e+01 3.242094e+01
    endloop
  endfacet
  facet normal -2.521692e-01 4.320674e-01 8.658686e-01
    outer loop
      vertex 3.683162e+01 -4.689639e+01 3.245406e+01
      vertex 3.844148e+01 -4.589045e+01 3.242094e+01
      vertex 3.437546e+01 -4.162902e+01 2.911034e+01
    endloop
  endfacet
  facet normal 2.778042e-01 -4.160705e-01 8.658581e-01
    outer loop
      vertex 2.454758e+01 -1.609662e+01 3.235103e+01
      vertex 2.293855e+01 -1.710205e+01 3.238414e+01
      vertex 2.827215e+01 -2.408352e+01 2.731809e+01
    endloop
  endfacet
  facet normal 2.778042e-01 -4.160705e-01 8.658581e-01
    outer loop
      vertex 2.703076e+01 -2.587798e+01 2.685409e+01
      vertex 2.827215e+01 -2.408352e+01 2.731809e+01
      vertex 2.293855e+01 -1.710205e+01 3.238414e+01
    endloop
  endfacet
  facet normal 2.777799e-01 -4.160572e-01 8.658722e-01
    outer loop
      vertex 2.827215e+01 -2.408352e+01 2.731809e+01
      vertex 2.703076e+01 -2.587798e+01 2.685409e+01
      vertex 3.149434e+01 -3.099313e+01 2.296427e+01
    endloop
  endfacet
  facet normal 2.777799e-01 -4.160572e-01 8.658722e-01
    outer loop
      vertex 2.988488e+01 -3.199877e+01 2.299739e+01
      vertex 3.149434e+01 -3.099313e+01 2.296427e+01
      vertex 2.703076e+01 -2.587798e+01 2.685409e+01
    endloop
  endfacet
  facet normal 5.299187e-01 -8.480485e-01 4.404950e-05
    outer loop
      vertex 2.293855e+01 -1.710205e+01 3.238414e+01
      vertex 2.454758e+01 -1.609662e+01 3.235103e+01
      vertex 2.454722e+01 -1.609586e+01 5.119259e+01
    endloop
  endfacet
  facet normal 5.299187e-01 -8.480485e-01 4.404950e-05
    outer loop
      vertex 2.293855e+01 -1.710205e+01 3.238414e+01
      vertex 2.454722e+01 -1.609586e+01 5.119259e+01
      vertex 2.293820e+01 -1.710129e+01 5.122570e+01
    endloop
  endfacet
  facet normal 2.521574e-01 -4.320489e-01 -8.658812e-01
    outer loop
      vertex 2.293820e+01 -1.710129e+01 5.122570e+01
      vertex 2.454722e+01 -1.609586e+01 5.119259e+01
      vertex 2.576858e+01 -2.317118e+01 5.507864e+01
    endloop
  endfacet
  facet normal 2.521574e-01 -4.320489e-01 -8.658812e-01
    outer loop
      vertex 2.770868e+01 -2.287523e+01 5.549596e+01
      vertex 2.576858e+01 -2.317118e+01 5.507864e+01
      vertex 2.454722e+01 -1.609586e+01 5.119259e+01
    endloop
  endfacet
  facet normal -2.777924e-01 4.160778e-01 -8.658583e-01
    outer loop
      vertex 3.430078e+01 -3.701120e+01 5.685691e+01
      vertex 3.235747e+01 -3.730136e+01 5.734095e+01
      vertex 3.149430e+01 -3.099305e+01 6.064926e+01
    endloop
  endfacet
  facet normal -2.777924e-01 4.160778e-01 -8.658583e-01
    outer loop
      vertex 2.988484e+01 -3.199869e+01 6.068238e+01
      vertex 3.149430e+01 -3.099305e+01 6.064926e+01
      vertex 3.235747e+01 -3.730136e+01 5.734095e+01
    endloop
  endfacet
  facet normal 2.521586e-01 -4.320740e-01 -8.658684e-01
    outer loop
      vertex 3.149430e+01 -3.099305e+01 6.064926e+01
      vertex 2.988484e+01 -3.199869e+01 6.068238e+01
      vertex 2.770868e+01 -2.287523e+01 5.549596e+01
    endloop
  endfacet
  facet normal 2.521586e-01 -4.320740e-01 -8.658684e-01
    outer loop
      vertex 2.576858e+01 -2.317118e+01 5.507864e+01
      vertex 2.770868e+01 -2.287523e+01 5.549596e+01
      vertex 2.988484e+01 -3.199869e+01 6.068238e+01
    endloop
  endfacet
  facet normal -9.063108e-01 -4.226117e-01 0.000000e+00
    outer loop
      vertex 3.437546e+01 -4.162902e+01 2.911034e+01
      vertex 4.713851e+01 -6.900000e+01 0.000000e+00
      vertex 3.683162e+01 -4.689639e+01 3.245406e+01
    endloop
  endfacet
  facet normal -9.063108e-01 -4.226117e-01 0.000000e+00
    outer loop
      vertex 2.988488e+01 -3.199877e+01 2.299739e+01
      vertex 4.713851e+01 -6.900000e+01 0.000000e+00
      vertex 3.437546e+01 -4.162902e+01 2.911034e+01
    endloop
  endfacet
  facet normal -9.063108e-01 -4.226117e-01 0.000000e+00
    outer loop
      vertex 4.713851e+01 -6.900000e+01 8.287119e+01
      vertex 3.683162e+01 -4.689639e+01 3.245406e+01
      vertex 4.713851e+01 -6.900000e+01 0.000000e+00
    endloop
  endfacet
  facet normal -9.063108e-01 -4.226117e-01 0.000000e+00
    outer loop
      vertex 2.703076e+01 -2.587798e+01 2.685409e+01
      vertex 2.293855e+01 -1.710205e+01 3.238414e+01
      vertex 1.520953e+01 -5.267982e-01 0.000000e+00
    endloop
  endfacet
  facet normal -9.063108e-01 -4.226117e-01 0.000000e+00
    outer loop
      vertex 2.703076e+01 -2.587798e+01 2.685409e+01
      vertex 1.520953e+01 -5.267982e-01 0.000000e+00
      vertex 2.988488e+01 -3.199877e+01 2.299739e+01
    endloop
  endfacet
  facet normal -9.063108e-01 -4.226117e-01 0.000000e+00
    outer loop
      vertex 4.713851e+01 -6.900000e+01 0.000000e+00
      vertex 2.988488e+01 -3.199877e+01 2.299739e+01
      vertex 1.520953e+01 -5.267982e-01 0.000000e+00
    endloop
  endfacet
  facet normal -9.063108e-01 -4.226117e-01 0.000000e+00
    outer loop
      vertex 2.293820e+01 -1.710129e+01 5.122570e+01
      vertex 1.520953e+01 -5.267982e-01 8.287119e+01
      vertex 2.293855e+01 -1.710205e+01 3.238414e+01
    endloop
  endfacet
  facet normal -9.063108e-01 -4.226117e-01 0.000000e+00
    outer loop
      vertex 1.621887e+01 -2.691369e+00 8.287119e+01
      vertex 2.988484e+01 -3.199869e+01 6.068238e+01
      vertex 4.713851e+01 -6.900000e+01 8.287119e+01
    endloop
  endfacet
  facet normal -9.063108e-01 -4.226117e-01 0.000000e+00
    outer loop
      vertex 2.988484e+01 -3.199869e+01 6.068238e+01
      vertex 1.621887e+01 -2.691369e+00 8.287119e+01
      vertex 2.576858e+01 -2.317118e+01 5.507864e+01
    endloop
  endfacet
  facet normal -9.063108e-01 -4.226117e-01 0.000000e+00
    outer loop
      vertex 3.235747e+01 -3.730136e+01 5.734095e+01
      vertex 4.713851e+01 -6.900000e+01 8.287119e+01
      vertex 2.988484e+01 -3.199869e+01 6.068238e+01
    endloop
  endfacet
  facet normal -9.063108e-01 -4.226117e-01 0.000000e+00
    outer loop
      vertex 2.293820e+01 -1.710129e+01 5.122570e+01
      vertex 2.576858e+01 -2.317118e+01 5.507864e+01
      vertex 1.621887e+01 -2.691369e+00 8.287119e+01
    endloop
  endfacet
  facet normal 9.062983e-01 4.226385e-01 0.000000e+00
    outer loop
      vertex 3.844148e+01 -4.589045e+01 3.242094e+01
      vertex 3.844112e+01 -4.588969e+01 5.126250e+01
      vertex 4.884675e+01 -6.820332e+01 8.287119e+01
    endloop
  endfacet
  facet normal 9.062983e-01 4.226385e-01 0.000000e+00
    outer loop
      vertex 3.561376e+01 -3.982675e+01 2.857164e+01
      vertex 4.884675e+01 -6.820332e+01 0.000000e+00
      vertex 3.149434e+01 -3.099313e+01 2.296427e+01
    endloop
  endfacet
  facet normal 9.062983e-01 4.226385e-01 0.000000e+00
    outer loop
      vertex 3.844148e+01 -4.589045e+01 3.242094e+01
      vertex 4.884675e+01 -6.820332e+01 0.000000e+00
      vertex 3.561376e+01 -3.982675e+01 2.857164e+01
    endloop
  endfacet
  facet normal 9.062983e-01 4.226385e-01 0.000000e+00
    outer loop
      vertex 4.884675e+01 -6.820332e+01 8.287119e+01
      vertex 4.884675e+01 -6.820332e+01 0.000000e+00
      vertex 3.844148e+01 -4.589045e+01 3.242094e+01
    endloop
  endfacet
  facet normal 9.062983e-01 4.226385e-01 0.000000e+00
    outer loop
      vertex 1.663477e+01 8.714585e-01 0.000000e+00
      vertex 3.149434e+01 -3.099313e+01 2.296427e+01
      vertex 4.884675e+01 -6.820332e+01 0.000000e+00
    endloop
  endfacet
  facet normal 9.062983e-01 4.226385e-01 0.000000e+00
    outer loop
      vertex 3.149434e+01 -3.099313e+01 2.296427e+01
      vertex 1.663477e+01 8.714585e-01 0.000000e+00
      vertex 2.827215e+01 -2.408352e+01 2.731809e+01
    endloop
  endfacet
  facet normal 9.062983e-01 4.226385e-01 0.000000e+00
    outer loop
      vertex 2.827215e+01 -2.408352e+01 2.731809e+01
      vertex 1.663477e+01 8.714585e-01 0.000000e+00
      vertex 2.454758e+01 -1.609662e+01 3.235103e+01
    endloop
  endfacet
  facet normal 9.062983e-01 4.226385e-01 0.000000e+00
    outer loop
      vertex 1.663477e+01 8.714585e-01 0.000000e+00
      vertex 1.663477e+01 8.714585e-01 8.287119e+01
      vertex 2.454758e+01 -1.609662e+01 3.235103e+01
    endloop
  endfacet
  facet normal 9.062983e-01 4.226385e-01 0.000000e+00
    outer loop
      vertex 3.149430e+01 -3.099305e+01 6.064926e+01
      vertex 4.884675e+01 -6.820332e+01 8.287119e+01
      vertex 3.430078e+01 -3.701120e+01 5.685691e+01
    endloop
  endfacet
  facet normal 9.062983e-01 4.226385e-01 0.000000e+00
    outer loop
      vertex 3.844112e+01 -4.588969e+01 5.126250e+01
      vertex 3.430078e+01 -3.701120e+01 5.685691e+01
      vertex 4.884675e+01 -6.820332e+01 8.287119e+01
    endloop
  endfacet
  facet normal 9.062983e-01 4.226385e-01 0.000000e+00
    outer loop
      vertex 2.770868e+01 -2.287523e+01 5.549596e+01
      vertex 1.663477e+01 8.714585e-01 8.287119e+01
      vertex 3.149430e+01 -3.099305e+01 6.064926e+01
    endloop
  endfacet
  facet normal 9.062983e-01 4.226385e-01 0.000000e+00
    outer loop
      vertex 2.454722e+01 -1.609586e+01 5.119259e+01
      vertex 1.663477e+01 8.714585e-01 8.287119e+01
      vertex 2.770868e+01 -2.287523e+01 5.549596e+01
    endloop
  endfacet
  facet normal 9.062983e-01 4.226385e-01 0.000000e+00
    outer loop
      vertex 4.884675e+01 -6.820332e+01 8.287119e+01
      vertex 3.149430e+01 -3.099305e+01 6.064926e+01
      vertex 1.663477e+01 8.714585e-01 8.287119e+01
    endloop
  endfacet
  facet normal 0.000000e+00 0.000000e+00 -1.000000e+00
    outer loop
      vertex 1.663477e+01 8.714585e-01 0.000000e+00
      vertex 4.884675e+01 -6.820332e+01 0.000000e+00
      vertex 1.520953e+01 -5.267982e-01 0.000000e+00
    endloop
  endfacet
  facet normal 0.000000e+00 0.000000e+00 -1.000000e+00
    outer loop
      vertex 4.713851e+01 -6.900000e+01 0.000000e+00
      vertex 1.520953e+01 -5.267982e-01 0.000000e+00
      vertex 4.884675e+01 -6.820332e+01 0.000000e+00
    endloop
  endfacet
  facet normal 0.000000e+00 0.000000e+00 1.000000e+00
    outer loop
      vertex -7.154917e+01 8.608991e+00 8.287119e+01
      vertex -7.154917e+01 6.725598e+00 8.287119e+01
      vertex 1.789229e-02 6.725598e+00 8.287119e+01
    endloop
  endfacet
  facet normal 0.000000e+00 0.000000e+00 1.000000e+00
    outer loop
      vertex -7.154917e+01 8.608991e+00 8.287119e+01
      vertex 1.789229e-02 6.725598e+00 8.287119e+01
      vertex 3.927996e-01 8.608991e+00 8.287119e+01
    endloop
  endfacet
  facet normal -1.000000e+00 0.000000e+00 0.000000e+00
    outer loop
      vertex -7.154917e+01 8.608991e+00 0.000000e+00
      vertex -7.154917e+01 6.725598e+00 0.000000e+00
      vertex -7.154917e+01 8.608991e+00 8.287119e+01
    endloop
  endfacet
  facet normal -1.000000e+00 0.000000e+00 0.000000e+00
    outer loop
      vertex -7.154917e+01 6.725598e+00 8.287119e+01
      vertex -7.154917e+01 8.608991e+00 8.287119e+01
      vertex -7.154917e+01 6.725598e+00 0.000000e+00
    endloop
  endfacet
  facet normal -4.944474e-01 -7.594098e-02 -8.658838e-01
    outer loop
      vertex -1.724697e+01 8.608991e+00 5.120780e+01
      vertex -1.701568e+01 6.725598e+00 5.124091e+01
      vertex -3.345393e+01 6.725598e+00 6.062768e+01
    endloop
  endfacet
  facet normal -4.944474e-01 -7.594098e-02 -8.658838e-01
    outer loop
      vertex -1.724697e+01 8.608991e+00 5.120780e+01
      vertex -3.345393e+01 6.725598e+00 6.062768e+01
      vertex -3.368522e+01 8.608991e+00 6.059457e+01
    endloop
  endfacet
  facet normal -9.925508e-01 -1.218311e-01 3.550026e-05
    outer loop
      vertex -1.724667e+01 8.608991e+00 3.236624e+01
      vertex -1.701549e+01 6.725598e+00 3.239935e+01
      vertex -1.724631e+01 8.608991e+00 4.250029e+01
    endloop
  endfacet
  facet normal -9.925508e-01 -1.218311e-01 3.550026e-05
    outer loop
      vertex -1.701510e+01 6.725598e+00 4.349079e+01
      vertex -1.724631e+01 8.608991e+00 4.250029e+01
      vertex -1.701549e+01 6.725598e+00 3.239935e+01
    endloop
  endfacet
  facet normal -9.925438e-01 -1.218883e-01 -7.492170e-05
    outer loop
      vertex -1.724631e+01 8.608991e+00 4.250029e+01
      vertex -1.701510e+01 6.725598e+00 4.349079e+01
      vertex -1.724697e+01 8.608991e+00 5.120780e+01
    endloop
  endfacet
  facet normal -9.925438e-01 -1.218883e-01 -7.492170e-05
    outer loop
      vertex -1.701568e+01 6.725598e+00 5.124091e+01
      vertex -1.724697e+01 8.608991e+00 5.120780e+01
      vertex -1.701510e+01 6.725598e+00 4.349079e+01
    endloop
  endfacet
  facet normal -4.981183e-01 -4.592111e-02 8.658923e-01
    outer loop
      vertex -1.701549e+01 6.725598e+00 3.239935e+01
      vertex -1.724667e+01 8.608991e+00 3.236624e+01
      vertex -2.428034e+01 6.725598e+00 2.822013e+01
    endloop
  endfacet
  facet normal -4.981183e-01 -4.592111e-02 8.658923e-01
    outer loop
      vertex -2.539008e+01 8.608991e+00 2.768161e+01
      vertex -2.428034e+01 6.725598e+00 2.822013e+01
      vertex -1.724667e+01 8.608991e+00 3.236624e+01
    endloop
  endfacet
  facet normal -4.981616e-01 -4.595431e-02 8.658655e-01
    outer loop
      vertex -3.368449e+01 8.608991e+00 2.290956e+01
      vertex -3.345320e+01 6.725598e+00 2.294267e+01
      vertex -2.539008e+01 8.608991e+00 2.768161e+01
    endloop
  endfacet
  facet normal -4.981616e-01 -4.595431e-02 8.658655e-01
    outer loop
      vertex -2.428034e+01 6.725598e+00 2.822013e+01
      vertex -2.539008e+01 8.608991e+00 2.768161e+01
      vertex -3.345320e+01 6.725598e+00 2.294267e+01
    endloop
  endfacet
  facet normal 4.944474e-01 7.594098e-02 8.658838e-01
    outer loop
      vertex -5.012273e+01 8.608991e+00 3.229633e+01
      vertex -4.989145e+01 6.725598e+00 3.232944e+01
      vertex -3.368449e+01 8.608991e+00 2.290956e+01
    endloop
  endfacet
  facet normal 4.944474e-01 7.594098e-02 8.658838e-01
    outer loop
      vertex -3.345320e+01 6.725598e+00 2.294267e+01
      vertex -3.368449e+01 8.608991e+00 2.290956e+01
      vertex -4.989145e+01 6.725598e+00 3.232944e+01
    endloop
  endfacet
  facet normal 9.925440e-01 1.218866e-01 -2.429259e-05
    outer loop
      vertex -5.012247e+01 8.608991e+00 4.300325e+01
      vertex -4.989121e+01 6.725598e+00 4.209551e+01
      vertex -5.012273e+01 8.608991e+00 3.229633e+01
    endloop
  endfacet
  facet normal 9.925440e-01 1.218866e-01 -2.429259e-05
    outer loop
      vertex -4.989145e+01 6.725598e+00 3.232944e+01
      vertex -5.012273e+01 8.608991e+00 3.229633e+01
      vertex -4.989121e+01 6.725598e+00 4.209551e+01
    endloop
  endfacet
  facet normal 9.925499e-01 1.218390e-01 7.578672e-05
    outer loop
      vertex -5.012309e+01 8.608991e+00 5.113788e+01
      vertex -4.989190e+01 6.725598e+00 5.117099e+01
      vertex -5.012247e+01 8.608991e+00 4.300325e+01
    endloop
  endfacet
  facet normal 9.925499e-01 1.218390e-01 7.578672e-05
    outer loop
      vertex -4.989121e+01 6.725598e+00 4.209551e+01
      vertex -5.012247e+01 8.608991e+00 4.300325e+01
      vertex -4.989190e+01 6.725598e+00 5.117099e+01
    endloop
  endfacet
  facet normal 4.981150e-01 4.594810e-02 -8.658928e-01
    outer loop
      vertex -3.368522e+01 8.608991e+00 6.059457e+01
      vertex -3.345393e+01 6.725598e+00 6.062768e+01
      vertex -4.134957e+01 8.608991e+00 5.618556e+01
    endloop
  endfacet
  facet normal 4.981150e-01 4.594810e-02 -8.658928e-01
    outer loop
      vertex -4.190124e+01 6.725598e+00 5.576826e+01
      vertex -4.134957e+01 8.608991e+00 5.618556e+01
      vertex -3.345393e+01 6.725598e+00 6.062768e+01
    endloop
  endfacet
  facet normal 4.981607e-01 4.592907e-02 -8.658675e-01
    outer loop
      vertex -4.134957e+01 8.608991e+00 5.618556e+01
      vertex -4.190124e+01 6.725598e+00 5.576826e+01
      vertex -5.012309e+01 8.608991e+00 5.113788e+01
    endloop
  endfacet
  facet normal 4.981607e-01 4.592907e-02 -8.658675e-01
    outer loop
      vertex -4.989190e+01 6.725598e+00 5.117099e+01
      vertex -5.012309e+01 8.608991e+00 5.113788e+01
      vertex -4.190124e+01 6.725598e+00 5.576826e+01
    endloop
  endfacet
  facet normal -9.063108e-01 -4.226117e-01 0.000000e+00
    outer loop
      vertex 3.683162e+01 -4.689639e+01 3.245406e+01
      vertex 4.713851e+01 -6.900000e+01 8.287119e+01
      vertex 3.683127e+01 -4.689563e+01 5.129562e+01
    endloop
  endfacet
  facet normal -9.063108e-01 -4.226117e-01 0.000000e+00
    outer loop
      vertex 3.235747e+01 -3.730136e+01 5.734095e+01
      vertex 3.683127e+01 -4.689563e+01 5.129562e+01
      vertex 4.713851e+01 -6.900000e+01 8.287119e+01
    endloop
  endfacet
  facet normal 0.000000e+00 1.000000e+00 0.000000e+00
    outer loop
      vertex 3.927996e-01 8.608991e+00 8.287119e+01
      vertex 3.927996e-01 8.608991e+00 0.000000e+00
      vertex -1.724631e+01 8.608991e+00 4.250029e+01
    endloop
  endfacet
  facet normal 0.000000e+00 1.000000e+00 0.000000e+00
    outer loop
      vertex 3.927996e-01 8.608991e+00 8.287119e+01
      vertex -1.724631e+01 8.608991e+00 4.250029e+01
      vertex -1.724697e+01 8.608991e+00 5.120780e+01
    endloop
  endfacet
  facet normal 0.000000e+00 1.000000e+00 0.000000e+00
    outer loop
      vertex 3.927996e-01 8.608991e+00 0.000000e+00
      vertex -3.368449e+01 8.608991e+00 2.290956e+01
      vertex -2.539008e+01 8.608991e+00 2.768161e+01
    endloop
  endfacet
  facet normal 0.000000e+00 1.000000e+00 0.000000e+00
    outer loop
      vertex 3.927996e-01 8.608991e+00 0.000000e+00
      vertex -2.539008e+01 8.608991e+00 2.768161e+01
      vertex -1.724667e+01 8.608991e+00 3.236624e+01
    endloop
  endfacet
  facet normal 0.000000e+00 1.000000e+00 0.000000e+00
    outer loop
      vertex -1.724667e+01 8.608991e+00 3.236624e+01
      vertex -1.724631e+01 8.608991e+00 4.250029e+01
      vertex 3.927996e-01 8.608991e+00 0.000000e+00
    endloop
  endfacet
  facet normal 0.000000e+00 1.000000e+00 0.000000e+00
    outer loop
      vertex -5.012273e+01 8.608991e+00 3.229633e+01
      vertex -3.368449e+01 8.608991e+00 2.290956e+01
      vertex -7.154917e+01 8.608991e+00 0.000000e+00
    endloop
  endfacet
  facet normal 0.000000e+00 1.000000e+00 0.000000e+00
    outer loop
      vertex -3.368449e+01 8.608991e+00 2.290956e+01
      vertex 3.927996e-01 8.608991e+00 0.000000e+00
      vertex -7.154917e+01 8.608991e+00 0.000000e+00
    endloop
  endfacet
  facet normal 0.000000e+00 1.000000e+00 0.000000e+00
    outer loop
      vertex -5.012273e+01 8.608991e+00 3.229633e+01
      vertex -7.154917e+01 8.608991e+00 0.000000e+00
      vertex -5.012247e+01 8.608991e+00 4.300325e+01
    endloop
  endfacet
  facet normal 0.000000e+00 1.000000e+00 0.000000e+00
    outer loop
      vertex -7.154917e+01 8.608991e+00 0.000000e+00
      vertex -7.154917e+01 8.608991e+00 8.287119e+01
      vertex -5.012247e+01 8.608991e+00 4.300325e+01
    endloop
  endfacet
  facet normal 0.000000e+00 1.000000e+00 0.000000e+00
    outer loop
      vertex -5.012309e+01 8.608991e+00 5.113788e+01
      vertex -5.012247e+01 8.608991e+00 4.300325e+01
      vertex -7.154917e+01 8.608991e+00 8.287119e+01
    endloop
  endfacet
  facet normal 0.000000e+00 1.000000e+00 0.000000e+00
    outer loop
      vertex 3.927996e-01 8.608991e+00 8.287119e+01
      vertex -1.724697e+01 8.608991e+00 5.120780e+01
      vertex -3.368522e+01 8.608991e+00 6.059457e+01
    endloop
  endfacet
  facet normal 0.000000e+00 1.000000e+00 0.000000e+00
    outer loop
      vertex -4.134957e+01 8.608991e+00 5.618556e+01
      vertex -7.154917e+01 8.608991e+00 8.287119e+01
      vertex -3.368522e+01 8.608991e+00 6.059457e+01
    endloop
  endfacet
  facet normal 0.000000e+00 1.000000e+00 0.000000e+00
    outer loop
      vertex -5.012309e+01 8.608991e+00 5.113788e+01
      vertex -7.154917e+01 8.608991e+00 8.287119e+01
      vertex -4.134957e+01 8.608991e+00 5.618556e+01
    endloop
  endfacet
  facet normal 0.000000e+00 1.000000e+00 0.000000e+00
    outer loop
      vertex 3.927996e-01 8.608991e+00 8.287119e+01
      vertex -3.368522e+01 8.608991e+00 6.059457e+01
      vertex -7.154917e+01 8.608991e+00 8.287119e+01
    endloop
  endfacet
  facet normal 0.000000e+00 -1.000000e+00 0.000000e+00
    outer loop
      vertex 1.789229e-02 6.725598e+00 0.000000e+00
      vertex 1.789229e-02 6.725598e+00 8.287119e+01
      vertex -1.701510e+01 6.725598e+00 4.349079e+01
    endloop
  endfacet
  facet normal 0.000000e+00 -1.000000e+00 0.000000e+00
    outer loop
      vertex -1.701568e+01 6.725598e+00 5.124091e+01
      vertex -1.701510e+01 6.725598e+00 4.349079e+01
      vertex 1.789229e-02 6.725598e+00 8.287119e+01
    endloop
  endfacet
  facet normal 0.000000e+00 -1.000000e+00 0.000000e+00
    outer loop
      vertex 1.789229e-02 6.725598e+00 0.000000e+00
      vertex -1.701510e+01 6.725598e+00 4.349079e+01
      vertex -1.701549e+01 6.725598e+00 3.239935e+01
    endloop
  endfacet
  facet normal 0.000000e+00 -1.000000e+00 0.000000e+00
    outer loop
      vertex -2.428034e+01 6.725598e+00 2.822013e+01
      vertex 1.789229e-02 6.725598e+00 0.000000e+00
      vertex -1.701549e+01 6.725598e+00 3.239935e+01
    endloop
  endfacet
  facet normal 0.000000e+00 -1.000000e+00 0.000000e+00
    outer loop
      vertex -3.345320e+01 6.725598e+00 2.294267e+01
      vertex 1.789229e-02 6.725598e+00 0.000000e+00
      vertex -2.428034e+01 6.725598e+00 2.822013e+01
    endloop
  endfacet
  facet normal 0.000000e+00 -1.000000e+00 0.000000e+00
    outer loop
      vertex -4.989145e+01 6.725598e+00 3.232944e+01
      vertex -7.154917e+01 6.725598e+00 0.000000e+00
      vertex -3.345320e+01 6.725598e+00 2.294267e+01
    endloop
  endfacet
  facet normal 0.000000e+00 -1.000000e+00 0.000000e+00
    outer loop
      vertex 1.789229e-02 6.725598e+00 0.000000e+00
      vertex -3.345320e+01 6.725598e+00 2.294267e+01
      vertex -7.154917e+01 6.725598e+00 0.000000e+00
    endloop
  endfacet
  facet normal 0.000000e+00 -1.000000e+00 0.000000e+00
    outer loop
      vertex -7.154917e+01 6.725598e+00 8.287119e+01
      vertex -7.154917e+01 6.725598e+00 0.000000e+00
      vertex -4.989121e+01 6.725598e+00 4.209551e+01
    endloop
  endfacet
  facet normal 0.000000e+00 -1.000000e+00 0.000000e+00
    outer loop
      vertex -4.989190e+01 6.725598e+00 5.117099e+01
      vertex -7.154917e+01 6.725598e+00 8.287119e+01
      vertex -4.989121e+01 6.725598e+00 4.209551e+01
    endloop
  endfacet
  facet normal 0.000000e+00 -1.000000e+00 0.000000e+00
    outer loop
      vertex -4.989145e+01 6.725598e+00 3.232944e+01
      vertex -4.989121e+01 6.725598e+00 4.209551e+01
      vertex -7.154917e+01 6.725598e+00 0.000000e+00
    endloop
  endfacet
  facet normal 0.000000e+00 -1.000000e+00 0.000000e+00
    outer loop
      vertex -1.701568e+01 6.725598e+00 5.124091e+01
      vertex 1.789229e-02 6.725598e+00 8.287119e+01
      vertex -3.345393e+01 6.725598e+00 6.062768e+01
    endloop
  endfacet
  facet normal 0.000000e+00 -1.000000e+00 0.000000e+00
    outer loop
      vertex -7.154917e+01 6.725598e+00 8.287119e+01
      vertex -3.345393e+01 6.725598e+00 6.062768e+01
      vertex 1.789229e-02 6.725598e+00 8.287119e+01
    endloop
  endfacet
  facet normal 0.000000e+00 -1.000000e+00 0.000000e+00
    outer loop
      vertex -7.154917e+01 6.725598e+00 8.287119e+01
      vertex -4.989190e+01 6.725598e+00 5.117099e+01
      vertex -4.190124e+01 6.725598e+00 5.576826e+01
    endloop
  endfacet
  facet normal 0.000000e+00 -1.000000e+00 0.000000e+00
    outer loop
      vertex -4.190124e+01 6.725598e+00 5.576826e+01
      vertex -3.345393e+01 6.725598e+00 6.062768e+01
      vertex -7.154917e+01 6.725598e+00 8.287119e+01
    endloop
  endfacet
  facet normal 0.000000e+00 0.000000e+00 -1.000000e+00
    outer loop
      vertex -7.154917e+01 6.725598e+00 0.000000e+00
      vertex -7.154917e+01 8.608991e+00 0.000000e+00
      vertex 1.789229e-02 6.725598e+00 0.000000e+00
    endloop
  endfacet
  facet normal 0.000000e+00 0.000000e+00 -1.000000e+00
    outer loop
      vertex 3.927996e-01 8.608991e+00 0.000000e+00
      vertex 1.789229e-02 6.725598e+00 0.000000e+00
      vertex -7.154917e+01 8.608991e+00 0.000000e+00
    endloop
  endfacet
endsolid Default
