solid Default
  facet normal -2.903714e-01 -9.569140e-01 0.000000e+00
    outer loop
      vertex 2.146300e+01 1.346500e+01 6.500200e+01
      vertex 2.146300e+01 1.346500e+01 4.998000e+00
      vertex 2.671600e+01 1.187100e+01 6.500200e+01
    endloop
  endfacet
  facet normal -9.800657e-02 -9.951857e-01 0.000000e+00
    outer loop
      vertex 1.600000e+01 1.400300e+01 6.500200e+01
      vertex 2.146300e+01 1.346500e+01 4.998000e+00
      vertex 2.146300e+01 1.346500e+01 6.500200e+01
    endloop
  endfacet
  facet normal 4.712405e-01 -8.820048e-01 0.000000e+00
    outer loop
      vertex 4.420000e-01 9.284000e+00 6.500200e+01
      vertex 4.420000e-01 9.284000e+00 4.998000e+00
      vertex 5.284000e+00 1.187100e+01 6.500200e+01
    endloop
  endfacet
  facet normal 6.344869e-01 -7.729337e-01 0.000000e+00
    outer loop
      vertex -3.801000e+00 5.801000e+00 6.500200e+01
      vertex 4.420000e-01 9.284000e+00 4.998000e+00
      vertex 4.420000e-01 9.284000e+00 6.500200e+01
    endloop
  endfacet
  facet normal 0.000000e+00 0.000000e+00 1.000000e+00
    outer loop
      vertex -1.200300e+01 -1.400000e+01 4.998000e+00
      vertex 4.187100e+01 -3.284000e+00 4.998000e+00
      vertex -1.146500e+01 -8.537000e+00 4.998000e+00
    endloop
  endfacet
  facet normal 0.000000e+00 0.000000e+00 1.000000e+00
    outer loop
      vertex -1.146500e+01 -1.946300e+01 4.998000e+00
      vertex 4.187100e+01 -3.284000e+00 4.998000e+00
      vertex -1.200300e+01 -1.400000e+01 4.998000e+00
    endloop
  endfacet
  facet normal 0.000000e+00 0.000000e+00 1.000000e+00
    outer loop
      vertex -9.871000e+00 -2.471600e+01 4.998000e+00
      vertex 4.187100e+01 -3.284000e+00 4.998000e+00
      vertex -1.146500e+01 -1.946300e+01 4.998000e+00
    endloop
  endfacet
  facet normal 0.000000e+00 0.000000e+00 1.000000e+00
    outer loop
      vertex -7.284000e+00 -2.955800e+01 4.998000e+00
      vertex 4.187100e+01 -3.284000e+00 4.998000e+00
      vertex -9.871000e+00 -2.471600e+01 4.998000e+00
    endloop
  endfacet
  facet normal 0.000000e+00 0.000000e+00 1.000000e+00
    outer loop
      vertex -3.801000e+00 -3.380100e+01 4.998000e+00
      vertex 4.187100e+01 -3.284000e+00 4.998000e+00
      vertex -7.284000e+00 -2.955800e+01 4.998000e+00
    endloop
  endfacet
  facet normal 0.000000e+00 0.000000e+00 1.000000e+00
    outer loop
      vertex 4.187100e+01 -3.284000e+00 4.998000e+00
      vertex -3.801000e+00 -3.380100e+01 4.998000e+00
      vertex 4.346500e+01 -8.537000e+00 4.998000e+00
    endloop
  endfacet
  facet normal 0.000000e+00 0.000000e+00 1.000000e+00
    outer loop
      vertex 3.928400e+01 1.558000e+00 4.998000e+00
      vertex 2.671600e+01 1.187100e+01 4.998000e+00
      vertex 4.187100e+01 -3.284000e+00 4.998000e+00
    endloop
  endfacet
  facet normal 0.000000e+00 0.000000e+00 1.000000e+00
    outer loop
      vertex 4.400300e+01 -1.400000e+01 4.998000e+00
      vertex 4.346500e+01 -8.537000e+00 4.998000e+00
      vertex -3.801000e+00 -3.380100e+01 4.998000e+00
    endloop
  endfacet
  facet normal 0.000000e+00 0.000000e+00 1.000000e+00
    outer loop
      vertex 4.400300e+01 -1.400000e+01 4.998000e+00
      vertex -3.801000e+00 -3.380100e+01 4.998000e+00
      vertex 4.420000e-01 -3.728400e+01 4.998000e+00
    endloop
  endfacet
  facet normal 0.000000e+00 0.000000e+00 1.000000e+00
    outer loop
      vertex 4.400300e+01 -1.400000e+01 4.998000e+00
      vertex 4.420000e-01 -3.728400e+01 4.998000e+00
      vertex 5.284000e+00 -3.987100e+01 4.998000e+00
    endloop
  endfacet
  facet normal 0.000000e+00 0.000000e+00 1.000000e+00
    outer loop
      vertex 4.400300e+01 -1.400000e+01 4.998000e+00
      vertex 5.284000e+00 -3.987100e+01 4.998000e+00
      vertex 1.053700e+01 -4.146500e+01 4.998000e+00
    endloop
  endfacet
  facet normal 0.000000e+00 0.000000e+00 1.000000e+00
    outer loop
      vertex 4.400300e+01 -1.400000e+01 4.998000e+00
      vertex 1.053700e+01 -4.146500e+01 4.998000e+00
      vertex 1.600000e+01 -4.200300e+01 4.998000e+00
    endloop
  endfacet
  facet normal 0.000000e+00 0.000000e+00 1.000000e+00
    outer loop
      vertex 4.400300e+01 -1.400000e+01 4.998000e+00
      vertex 1.600000e+01 -4.200300e+01 4.998000e+00
      vertex 2.146300e+01 -4.146500e+01 4.998000e+00
    endloop
  endfacet
  facet normal 0.000000e+00 0.000000e+00 1.000000e+00
    outer loop
      vertex 4.400300e+01 -1.400000e+01 4.998000e+00
      vertex 2.146300e+01 -4.146500e+01 4.998000e+00
      vertex 2.671600e+01 -3.987100e+01 4.998000e+00
    endloop
  endfacet
  facet normal 0.000000e+00 0.000000e+00 1.000000e+00
    outer loop
      vertex 4.400300e+01 -1.400000e+01 4.998000e+00
      vertex 2.671600e+01 -3.987100e+01 4.998000e+00
      vertex 3.155800e+01 -3.728400e+01 4.998000e+00
    endloop
  endfacet
  facet normal 0.000000e+00 0.000000e+00 1.000000e+00
    outer loop
      vertex 4.400300e+01 -1.400000e+01 4.998000e+00
      vertex 3.155800e+01 -3.728400e+01 4.998000e+00
      vertex 3.580100e+01 -3.380100e+01 4.998000e+00
    endloop
  endfacet
  facet normal 0.000000e+00 0.000000e+00 1.000000e+00
    outer loop
      vertex 4.400300e+01 -1.400000e+01 4.998000e+00
      vertex 3.580100e+01 -3.380100e+01 4.998000e+00
      vertex 3.928400e+01 -2.955800e+01 4.998000e+00
    endloop
  endfacet
  facet normal 0.000000e+00 0.000000e+00 1.000000e+00
    outer loop
      vertex 4.400300e+01 -1.400000e+01 4.998000e+00
      vertex 3.928400e+01 -2.955800e+01 4.998000e+00
      vertex 4.187100e+01 -2.471600e+01 4.998000e+00
    endloop
  endfacet
  facet normal 0.000000e+00 0.000000e+00 1.000000e+00
    outer loop
      vertex 4.400300e+01 -1.400000e+01 4.998000e+00
      vertex 4.187100e+01 -2.471600e+01 4.998000e+00
      vertex 4.346500e+01 -1.946300e+01 4.998000e+00
    endloop
  endfacet
  facet normal 0.000000e+00 0.000000e+00 1.000000e+00
    outer loop
      vertex 3.155800e+01 9.284000e+00 4.998000e+00
      vertex 2.671600e+01 1.187100e+01 4.998000e+00
      vertex 3.580100e+01 5.801000e+00 4.998000e+00
    endloop
  endfacet
  facet normal 0.000000e+00 0.000000e+00 1.000000e+00
    outer loop
      vertex 3.928400e+01 1.558000e+00 4.998000e+00
      vertex 3.580100e+01 5.801000e+00 4.998000e+00
      vertex 2.671600e+01 1.187100e+01 4.998000e+00
    endloop
  endfacet
  facet normal 0.000000e+00 0.000000e+00 1.000000e+00
    outer loop
      vertex 2.146300e+01 1.346500e+01 4.998000e+00
      vertex 4.187100e+01 -3.284000e+00 4.998000e+00
      vertex 2.671600e+01 1.187100e+01 4.998000e+00
    endloop
  endfacet
  facet normal 0.000000e+00 0.000000e+00 1.000000e+00
    outer loop
      vertex 1.600000e+01 1.400300e+01 4.998000e+00
      vertex 4.187100e+01 -3.284000e+00 4.998000e+00
      vertex 2.146300e+01 1.346500e+01 4.998000e+00
    endloop
  endfacet
  facet normal 0.000000e+00 0.000000e+00 1.000000e+00
    outer loop
      vertex 1.053700e+01 1.346500e+01 4.998000e+00
      vertex 4.187100e+01 -3.284000e+00 4.998000e+00
      vertex 1.600000e+01 1.400300e+01 4.998000e+00
    endloop
  endfacet
  facet normal 0.000000e+00 0.000000e+00 1.000000e+00
    outer loop
      vertex 5.284000e+00 1.187100e+01 4.998000e+00
      vertex 4.187100e+01 -3.284000e+00 4.998000e+00
      vertex 1.053700e+01 1.346500e+01 4.998000e+00
    endloop
  endfacet
  facet normal 0.000000e+00 0.000000e+00 1.000000e+00
    outer loop
      vertex 4.420000e-01 9.284000e+00 4.998000e+00
      vertex 4.187100e+01 -3.284000e+00 4.998000e+00
      vertex 5.284000e+00 1.187100e+01 4.998000e+00
    endloop
  endfacet
  facet normal 0.000000e+00 0.000000e+00 1.000000e+00
    outer loop
      vertex -3.801000e+00 5.801000e+00 4.998000e+00
      vertex 4.187100e+01 -3.284000e+00 4.998000e+00
      vertex 4.420000e-01 9.284000e+00 4.998000e+00
    endloop
  endfacet
  facet normal 0.000000e+00 0.000000e+00 1.000000e+00
    outer loop
      vertex -7.284000e+00 1.558000e+00 4.998000e+00
      vertex 4.187100e+01 -3.284000e+00 4.998000e+00
      vertex -3.801000e+00 5.801000e+00 4.998000e+00
    endloop
  endfacet
  facet normal 0.000000e+00 0.000000e+00 1.000000e+00
    outer loop
      vertex -1.146500e+01 -8.537000e+00 4.998000e+00
      vertex 4.187100e+01 -3.284000e+00 4.998000e+00
      vertex -9.871000e+00 -3.284000e+00 4.998000e+00
    endloop
  endfacet
  facet normal 0.000000e+00 0.000000e+00 1.000000e+00
    outer loop
      vertex -9.871000e+00 -3.284000e+00 4.998000e+00
      vertex 4.187100e+01 -3.284000e+00 4.998000e+00
      vertex -7.284000e+00 1.558000e+00 4.998000e+00
    endloop
  endfacet
  facet normal 2.903714e-01 9.569140e-01 0.000000e+00
    outer loop
      vertex 1.053700e+01 -4.146500e+01 6.500200e+01
      vertex 1.053700e+01 -4.146500e+01 4.998000e+00
      vertex 5.284000e+00 -3.987100e+01 6.500200e+01
    endloop
  endfacet
  facet normal 9.800657e-02 9.951857e-01 0.000000e+00
    outer loop
      vertex 1.600000e+01 -4.200300e+01 6.500200e+01
      vertex 1.053700e+01 -4.146500e+01 4.998000e+00
      vertex 1.053700e+01 -4.146500e+01 6.500200e+01
    endloop
  endfacet
  facet normal -2.903714e-01 9.569140e-01 0.000000e+00
    outer loop
      vertex 2.671600e+01 -3.987100e+01 6.500200e+01
      vertex 2.671600e+01 -3.987100e+01 4.998000e+00
      vertex 2.146300e+01 -4.146500e+01 6.500200e+01
    endloop
  endfacet
  facet normal -4.712405e-01 8.820048e-01 0.000000e+00
    outer loop
      vertex 3.155800e+01 -3.728400e+01 6.500200e+01
      vertex 2.671600e+01 -3.987100e+01 4.998000e+00
      vertex 2.671600e+01 -3.987100e+01 6.500200e+01
    endloop
  endfacet
  facet normal -8.820048e-01 4.712405e-01 0.000000e+00
    outer loop
      vertex 4.187100e+01 -2.471600e+01 6.500200e+01
      vertex 4.187100e+01 -2.471600e+01 4.998000e+00
      vertex 3.928400e+01 -2.955800e+01 6.500200e+01
    endloop
  endfacet
  facet normal -9.569140e-01 2.903714e-01 0.000000e+00
    outer loop
      vertex 4.346500e+01 -1.946300e+01 6.500200e+01
      vertex 4.187100e+01 -2.471600e+01 4.998000e+00
      vertex 4.187100e+01 -2.471600e+01 6.500200e+01
    endloop
  endfacet
  facet normal -7.729337e-01 -6.344869e-01 0.000000e+00
    outer loop
      vertex 3.580100e+01 5.801000e+00 6.500200e+01
      vertex 3.580100e+01 5.801000e+00 4.998000e+00
      vertex 3.928400e+01 1.558000e+00 6.500200e+01
    endloop
  endfacet
  facet normal -6.344869e-01 -7.729337e-01 0.000000e+00
    outer loop
      vertex 3.580100e+01 5.801000e+00 4.998000e+00
      vertex 3.580100e+01 5.801000e+00 6.500200e+01
      vertex 3.155800e+01 9.284000e+00 6.500200e+01
    endloop
  endfacet
  facet normal -8.820048e-01 -4.712405e-01 0.000000e+00
    outer loop
      vertex 3.928400e+01 1.558000e+00 4.998000e+00
      vertex 4.187100e+01 -3.284000e+00 4.998000e+00
      vertex 3.928400e+01 1.558000e+00 6.500200e+01
    endloop
  endfacet
  facet normal -7.729337e-01 -6.344869e-01 0.000000e+00
    outer loop
      vertex 3.580100e+01 5.801000e+00 4.998000e+00
      vertex 3.928400e+01 1.558000e+00 4.998000e+00
      vertex 3.928400e+01 1.558000e+00 6.500200e+01
    endloop
  endfacet
  facet normal -6.344869e-01 -7.729337e-01 0.000000e+00
    outer loop
      vertex 3.155800e+01 9.284000e+00 6.500200e+01
      vertex 3.155800e+01 9.284000e+00 4.998000e+00
      vertex 3.580100e+01 5.801000e+00 4.998000e+00
    endloop
  endfacet
  facet normal -4.712405e-01 -8.820048e-01 0.000000e+00
    outer loop
      vertex 2.671600e+01 1.187100e+01 6.500200e+01
      vertex 2.671600e+01 1.187100e+01 4.998000e+00
      vertex 3.155800e+01 9.284000e+00 6.500200e+01
    endloop
  endfacet
  facet normal -4.712405e-01 -8.820048e-01 0.000000e+00
    outer loop
      vertex 3.155800e+01 9.284000e+00 4.998000e+00
      vertex 3.155800e+01 9.284000e+00 6.500200e+01
      vertex 2.671600e+01 1.187100e+01 4.998000e+00
    endloop
  endfacet
  facet normal -2.903714e-01 -9.569140e-01 0.000000e+00
    outer loop
      vertex 2.671600e+01 1.187100e+01 4.998000e+00
      vertex 2.671600e+01 1.187100e+01 6.500200e+01
      vertex 2.146300e+01 1.346500e+01 4.998000e+00
    endloop
  endfacet
  facet normal -9.800657e-02 -9.951857e-01 0.000000e+00
    outer loop
      vertex 1.600000e+01 1.400300e+01 6.500200e+01
      vertex 1.600000e+01 1.400300e+01 4.998000e+00
      vertex 2.146300e+01 1.346500e+01 4.998000e+00
    endloop
  endfacet
  facet normal 9.800657e-02 -9.951857e-01 0.000000e+00
    outer loop
      vertex 1.600000e+01 1.400300e+01 4.998000e+00
      vertex 1.600000e+01 1.400300e+01 6.500200e+01
      vertex 1.053700e+01 1.346500e+01 6.500200e+01
    endloop
  endfacet
  facet normal 9.800657e-02 -9.951857e-01 0.000000e+00
    outer loop
      vertex 1.600000e+01 1.400300e+01 4.998000e+00
      vertex 1.053700e+01 1.346500e+01 6.500200e+01
      vertex 1.053700e+01 1.346500e+01 4.998000e+00
    endloop
  endfacet
  facet normal 2.903714e-01 -9.569140e-01 0.000000e+00
    outer loop
      vertex 5.284000e+00 1.187100e+01 6.500200e+01
      vertex 5.284000e+00 1.187100e+01 4.998000e+00
      vertex 1.053700e+01 1.346500e+01 6.500200e+01
    endloop
  endfacet
  facet normal 2.903714e-01 -9.569140e-01 0.000000e+00
    outer loop
      vertex 1.053700e+01 1.346500e+01 4.998000e+00
      vertex 1.053700e+01 1.346500e+01 6.500200e+01
      vertex 5.284000e+00 1.187100e+01 4.998000e+00
    endloop
  endfacet
  facet normal 4.712405e-01 -8.820048e-01 0.000000e+00
    outer loop
      vertex 5.284000e+00 1.187100e+01 4.998000e+00
      vertex 5.284000e+00 1.187100e+01 6.500200e+01
      vertex 4.420000e-01 9.284000e+00 4.998000e+00
    endloop
  endfacet
  facet normal 6.344869e-01 -7.729337e-01 0.000000e+00
    outer loop
      vertex -3.801000e+00 5.801000e+00 6.500200e+01
      vertex -3.801000e+00 5.801000e+00 4.998000e+00
      vertex 4.420000e-01 9.284000e+00 4.998000e+00
    endloop
  endfacet
  facet normal 7.729337e-01 -6.344869e-01 0.000000e+00
    outer loop
      vertex -3.801000e+00 5.801000e+00 4.998000e+00
      vertex -3.801000e+00 5.801000e+00 6.500200e+01
      vertex -7.284000e+00 1.558000e+00 6.500200e+01
    endloop
  endfacet
  facet normal 7.729337e-01 -6.344869e-01 0.000000e+00
    outer loop
      vertex -3.801000e+00 5.801000e+00 4.998000e+00
      vertex -7.284000e+00 1.558000e+00 6.500200e+01
      vertex -7.284000e+00 1.558000e+00 4.998000e+00
    endloop
  endfacet
  facet normal 8.820048e-01 -4.712405e-01 0.000000e+00
    outer loop
      vertex -7.284000e+00 1.558000e+00 6.500200e+01
      vertex -9.871000e+00 -3.284000e+00 6.500200e+01
      vertex -7.284000e+00 1.558000e+00 4.998000e+00
    endloop
  endfacet
  facet normal 9.951857e-01 9.800657e-02 0.000000e+00
    outer loop
      vertex -1.146500e+01 -1.946300e+01 6.500200e+01
      vertex -1.146500e+01 -1.946300e+01 4.998000e+00
      vertex -1.200300e+01 -1.400000e+01 6.500200e+01
    endloop
  endfacet
  facet normal 9.569140e-01 2.903714e-01 0.000000e+00
    outer loop
      vertex -9.871000e+00 -2.471600e+01 6.500200e+01
      vertex -1.146500e+01 -1.946300e+01 4.998000e+00
      vertex -1.146500e+01 -1.946300e+01 6.500200e+01
    endloop
  endfacet
  facet normal 9.569140e-01 2.903714e-01 0.000000e+00
    outer loop
      vertex -9.871000e+00 -2.471600e+01 6.500200e+01
      vertex -9.871000e+00 -2.471600e+01 4.998000e+00
      vertex -1.146500e+01 -1.946300e+01 4.998000e+00
    endloop
  endfacet
  facet normal 8.820048e-01 4.712405e-01 0.000000e+00
    outer loop
      vertex -9.871000e+00 -2.471600e+01 4.998000e+00
      vertex -9.871000e+00 -2.471600e+01 6.500200e+01
      vertex -7.284000e+00 -2.955800e+01 6.500200e+01
    endloop
  endfacet
  facet normal 8.820048e-01 4.712405e-01 0.000000e+00
    outer loop
      vertex -9.871000e+00 -2.471600e+01 4.998000e+00
      vertex -7.284000e+00 -2.955800e+01 6.500200e+01
      vertex -7.284000e+00 -2.955800e+01 4.998000e+00
    endloop
  endfacet
  facet normal 7.729337e-01 6.344869e-01 0.000000e+00
    outer loop
      vertex -3.801000e+00 -3.380100e+01 6.500200e+01
      vertex -3.801000e+00 -3.380100e+01 4.998000e+00
      vertex -7.284000e+00 -2.955800e+01 6.500200e+01
    endloop
  endfacet
  facet normal 7.729337e-01 6.344869e-01 0.000000e+00
    outer loop
      vertex -7.284000e+00 -2.955800e+01 4.998000e+00
      vertex -7.284000e+00 -2.955800e+01 6.500200e+01
      vertex -3.801000e+00 -3.380100e+01 4.998000e+00
    endloop
  endfacet
  facet normal 6.344869e-01 7.729337e-01 0.000000e+00
    outer loop
      vertex 4.420000e-01 -3.728400e+01 6.500200e+01
      vertex -3.801000e+00 -3.380100e+01 4.998000e+00
      vertex -3.801000e+00 -3.380100e+01 6.500200e+01
    endloop
  endfacet
  facet normal -9.951857e-01 -9.800657e-02 0.000000e+00
    outer loop
      vertex 4.400300e+01 -1.400000e+01 4.998000e+00
      vertex 4.400300e+01 -1.400000e+01 6.500200e+01
      vertex 4.346500e+01 -8.537000e+00 4.998000e+00
    endloop
  endfacet
  facet normal -9.951857e-01 -9.800657e-02 0.000000e+00
    outer loop
      vertex 4.346500e+01 -8.537000e+00 6.500200e+01
      vertex 4.346500e+01 -8.537000e+00 4.998000e+00
      vertex 4.400300e+01 -1.400000e+01 6.500200e+01
    endloop
  endfacet
  facet normal -9.569140e-01 -2.903714e-01 0.000000e+00
    outer loop
      vertex 4.187100e+01 -3.284000e+00 6.500200e+01
      vertex 4.187100e+01 -3.284000e+00 4.998000e+00
      vertex 4.346500e+01 -8.537000e+00 4.998000e+00
    endloop
  endfacet
  facet normal -9.569140e-01 -2.903714e-01 0.000000e+00
    outer loop
      vertex 4.187100e+01 -3.284000e+00 6.500200e+01
      vertex 4.346500e+01 -8.537000e+00 4.998000e+00
      vertex 4.346500e+01 -8.537000e+00 6.500200e+01
    endloop
  endfacet
  facet normal -8.820048e-01 -4.712405e-01 0.000000e+00
    outer loop
      vertex 4.187100e+01 -3.284000e+00 4.998000e+00
      vertex 4.187100e+01 -3.284000e+00 6.500200e+01
      vertex 3.928400e+01 1.558000e+00 6.500200e+01
    endloop
  endfacet
  facet normal 6.344869e-01 7.729337e-01 0.000000e+00
    outer loop
      vertex 4.420000e-01 -3.728400e+01 6.500200e+01
      vertex 4.420000e-01 -3.728400e+01 4.998000e+00
      vertex -3.801000e+00 -3.380100e+01 4.998000e+00
    endloop
  endfacet
  facet normal 4.712405e-01 8.820048e-01 0.000000e+00
    outer loop
      vertex 4.420000e-01 -3.728400e+01 4.998000e+00
      vertex 4.420000e-01 -3.728400e+01 6.500200e+01
      vertex 5.284000e+00 -3.987100e+01 4.998000e+00
    endloop
  endfacet
  facet normal 4.712405e-01 8.820048e-01 0.000000e+00
    outer loop
      vertex 5.284000e+00 -3.987100e+01 6.500200e+01
      vertex 5.284000e+00 -3.987100e+01 4.998000e+00
      vertex 4.420000e-01 -3.728400e+01 6.500200e+01
    endloop
  endfacet
  facet normal 2.903714e-01 9.569140e-01 0.000000e+00
    outer loop
      vertex 1.053700e+01 -4.146500e+01 4.998000e+00
      vertex 5.284000e+00 -3.987100e+01 4.998000e+00
      vertex 5.284000e+00 -3.987100e+01 6.500200e+01
    endloop
  endfacet
  facet normal 9.800657e-02 9.951857e-01 0.000000e+00
    outer loop
      vertex 1.600000e+01 -4.200300e+01 4.998000e+00
      vertex 1.053700e+01 -4.146500e+01 4.998000e+00
      vertex 1.600000e+01 -4.200300e+01 6.500200e+01
    endloop
  endfacet
  facet normal -9.800657e-02 9.951857e-01 0.000000e+00
    outer loop
      vertex 1.600000e+01 -4.200300e+01 4.998000e+00
      vertex 1.600000e+01 -4.200300e+01 6.500200e+01
      vertex 2.146300e+01 -4.146500e+01 4.998000e+00
    endloop
  endfacet
  facet normal -9.800657e-02 9.951857e-01 0.000000e+00
    outer loop
      vertex 2.146300e+01 -4.146500e+01 6.500200e+01
      vertex 2.146300e+01 -4.146500e+01 4.998000e+00
      vertex 1.600000e+01 -4.200300e+01 6.500200e+01
    endloop
  endfacet
  facet normal -2.903714e-01 9.569140e-01 0.000000e+00
    outer loop
      vertex 2.671600e+01 -3.987100e+01 4.998000e+00
      vertex 2.146300e+01 -4.146500e+01 4.998000e+00
      vertex 2.146300e+01 -4.146500e+01 6.500200e+01
    endloop
  endfacet
  facet normal -4.712405e-01 8.820048e-01 0.000000e+00
    outer loop
      vertex 3.155800e+01 -3.728400e+01 6.500200e+01
      vertex 3.155800e+01 -3.728400e+01 4.998000e+00
      vertex 2.671600e+01 -3.987100e+01 4.998000e+00
    endloop
  endfacet
  facet normal -6.344869e-01 7.729337e-01 0.000000e+00
    outer loop
      vertex 3.580100e+01 -3.380100e+01 6.500200e+01
      vertex 3.580100e+01 -3.380100e+01 4.998000e+00
      vertex 3.155800e+01 -3.728400e+01 4.998000e+00
    endloop
  endfacet
  facet normal -6.344869e-01 7.729337e-01 0.000000e+00
    outer loop
      vertex 3.580100e+01 -3.380100e+01 6.500200e+01
      vertex 3.155800e+01 -3.728400e+01 4.998000e+00
      vertex 3.155800e+01 -3.728400e+01 6.500200e+01
    endloop
  endfacet
  facet normal -7.729337e-01 6.344869e-01 0.000000e+00
    outer loop
      vertex 3.580100e+01 -3.380100e+01 4.998000e+00
      vertex 3.580100e+01 -3.380100e+01 6.500200e+01
      vertex 3.928400e+01 -2.955800e+01 4.998000e+00
    endloop
  endfacet
  facet normal -7.729337e-01 6.344869e-01 0.000000e+00
    outer loop
      vertex 3.928400e+01 -2.955800e+01 6.500200e+01
      vertex 3.928400e+01 -2.955800e+01 4.998000e+00
      vertex 3.580100e+01 -3.380100e+01 6.500200e+01
    endloop
  endfacet
  facet normal -8.820048e-01 4.712405e-01 0.000000e+00
    outer loop
      vertex 4.187100e+01 -2.471600e+01 4.998000e+00
      vertex 3.928400e+01 -2.955800e+01 4.998000e+00
      vertex 3.928400e+01 -2.955800e+01 6.500200e+01
    endloop
  endfacet
  facet normal -9.569140e-01 2.903714e-01 0.000000e+00
    outer loop
      vertex 4.346500e+01 -1.946300e+01 6.500200e+01
      vertex 4.346500e+01 -1.946300e+01 4.998000e+00
      vertex 4.187100e+01 -2.471600e+01 4.998000e+00
    endloop
  endfacet
  facet normal -9.951857e-01 9.800657e-02 0.000000e+00
    outer loop
      vertex 4.346500e+01 -1.946300e+01 4.998000e+00
      vertex 4.346500e+01 -1.946300e+01 6.500200e+01
      vertex 4.400300e+01 -1.400000e+01 6.500200e+01
    endloop
  endfacet
  facet normal -9.951857e-01 9.800657e-02 0.000000e+00
    outer loop
      vertex 4.346500e+01 -1.946300e+01 4.998000e+00
      vertex 4.400300e+01 -1.400000e+01 6.500200e+01
      vertex 4.400300e+01 -1.400000e+01 4.998000e+00
    endloop
  endfacet
  facet normal 0.000000e+00 0.000000e+00 1.000000e+00
    outer loop
      vertex 3.580100e+01 5.801000e+00 6.500200e+01
      vertex 3.928400e+01 1.558000e+00 6.500200e+01
      vertex 5.400100e+01 5.250000e+00 6.500200e+01
    endloop
  endfacet
  facet normal 0.000000e+00 0.000000e+00 1.000000e+00
    outer loop
      vertex 5.400100e+01 5.250000e+00 6.500200e+01
      vertex 1.650000e+01 2.400100e+01 6.500200e+01
      vertex 3.155800e+01 9.284000e+00 6.500200e+01
    endloop
  endfacet
  facet normal 0.000000e+00 0.000000e+00 1.000000e+00
    outer loop
      vertex 3.155800e+01 9.284000e+00 6.500200e+01
      vertex 3.580100e+01 5.801000e+00 6.500200e+01
      vertex 5.400100e+01 5.250000e+00 6.500200e+01
    endloop
  endfacet
  facet normal 0.000000e+00 0.000000e+00 1.000000e+00
    outer loop
      vertex 2.146300e+01 1.346500e+01 6.500200e+01
      vertex 2.671600e+01 1.187100e+01 6.500200e+01
      vertex 1.650000e+01 2.400100e+01 6.500200e+01
    endloop
  endfacet
  facet normal 0.000000e+00 0.000000e+00 1.000000e+00
    outer loop
      vertex 2.671600e+01 1.187100e+01 6.500200e+01
      vertex 3.155800e+01 9.284000e+00 6.500200e+01
      vertex 1.650000e+01 2.400100e+01 6.500200e+01
    endloop
  endfacet
  facet normal 0.000000e+00 0.000000e+00 1.000000e+00
    outer loop
      vertex 1.600000e+01 1.400300e+01 6.500200e+01
      vertex 1.650000e+01 2.400100e+01 6.500200e+01
      vertex 1.053700e+01 1.346500e+01 6.500200e+01
    endloop
  endfacet
  facet normal 0.000000e+00 0.000000e+00 1.000000e+00
    outer loop
      vertex 1.053700e+01 1.346500e+01 6.500200e+01
      vertex 1.650000e+01 2.400100e+01 6.500200e+01
      vertex 5.284000e+00 1.187100e+01 6.500200e+01
    endloop
  endfacet
  facet normal 0.000000e+00 0.000000e+00 1.000000e+00
    outer loop
      vertex -2.100100e+01 5.250000e+00 6.500200e+01
      vertex 4.420000e-01 9.284000e+00 6.500200e+01
      vertex 1.650000e+01 2.400100e+01 6.500200e+01
    endloop
  endfacet
  facet normal 0.000000e+00 0.000000e+00 1.000000e+00
    outer loop
      vertex -3.801000e+00 5.801000e+00 6.500200e+01
      vertex 4.420000e-01 9.284000e+00 6.500200e+01
      vertex -2.100100e+01 5.250000e+00 6.500200e+01
    endloop
  endfacet
  facet normal 0.000000e+00 0.000000e+00 1.000000e+00
    outer loop
      vertex -7.284000e+00 1.558000e+00 6.500200e+01
      vertex -3.801000e+00 5.801000e+00 6.500200e+01
      vertex -2.100100e+01 5.250000e+00 6.500200e+01
    endloop
  endfacet
  facet normal 0.000000e+00 0.000000e+00 1.000000e+00
    outer loop
      vertex 5.284000e+00 1.187100e+01 6.500200e+01
      vertex 1.650000e+01 2.400100e+01 6.500200e+01
      vertex 4.420000e-01 9.284000e+00 6.500200e+01
    endloop
  endfacet
  facet normal 0.000000e+00 0.000000e+00 1.000000e+00
    outer loop
      vertex 1.600000e+01 1.400300e+01 6.500200e+01
      vertex 2.146300e+01 1.346500e+01 6.500200e+01
      vertex 1.650000e+01 2.400100e+01 6.500200e+01
    endloop
  endfacet
  facet normal 0.000000e+00 0.000000e+00 1.000000e+00
    outer loop
      vertex 5.400100e+01 -3.225000e+01 6.500200e+01
      vertex 5.400100e+01 5.250000e+00 6.500200e+01
      vertex 4.400300e+01 -1.400000e+01 6.500200e+01
    endloop
  endfacet
  facet normal 0.000000e+00 0.000000e+00 1.000000e+00
    outer loop
      vertex 4.400300e+01 -1.400000e+01 6.500200e+01
      vertex 4.346500e+01 -1.946300e+01 6.500200e+01
      vertex 5.400100e+01 -3.225000e+01 6.500200e+01
    endloop
  endfacet
  facet normal 0.000000e+00 0.000000e+00 1.000000e+00
    outer loop
      vertex 1.600000e+01 -4.200300e+01 6.500200e+01
      vertex 1.053700e+01 -4.146500e+01 6.500200e+01
      vertex 1.650000e+01 -5.100100e+01 6.500200e+01
    endloop
  endfacet
  facet normal 0.000000e+00 0.000000e+00 1.000000e+00
    outer loop
      vertex -1.200300e+01 -1.400000e+01 6.500200e+01
      vertex -1.146500e+01 -8.537000e+00 6.500200e+01
      vertex -2.100100e+01 5.250000e+00 6.500200e+01
    endloop
  endfacet
  facet normal 8.820048e-01 -4.712405e-01 0.000000e+00
    outer loop
      vertex -9.871000e+00 -3.284000e+00 4.998000e+00
      vertex -7.284000e+00 1.558000e+00 4.998000e+00
      vertex -9.871000e+00 -3.284000e+00 6.500200e+01
    endloop
  endfacet
  facet normal 9.569140e-01 -2.903714e-01 0.000000e+00
    outer loop
      vertex -1.146500e+01 -8.537000e+00 6.500200e+01
      vertex -1.146500e+01 -8.537000e+00 4.998000e+00
      vertex -9.871000e+00 -3.284000e+00 6.500200e+01
    endloop
  endfacet
  facet normal 9.569140e-01 -2.903714e-01 0.000000e+00
    outer loop
      vertex -9.871000e+00 -3.284000e+00 4.998000e+00
      vertex -9.871000e+00 -3.284000e+00 6.500200e+01
      vertex -1.146500e+01 -8.537000e+00 4.998000e+00
    endloop
  endfacet
  facet normal 9.951857e-01 -9.800657e-02 0.000000e+00
    outer loop
      vertex -1.200300e+01 -1.400000e+01 6.500200e+01
      vertex -1.200300e+01 -1.400000e+01 4.998000e+00
      vertex -1.146500e+01 -8.537000e+00 6.500200e+01
    endloop
  endfacet
  facet normal 9.951857e-01 -9.800657e-02 0.000000e+00
    outer loop
      vertex -1.146500e+01 -8.537000e+00 4.998000e+00
      vertex -1.146500e+01 -8.537000e+00 6.500200e+01
      vertex -1.200300e+01 -1.400000e+01 4.998000e+00
    endloop
  endfacet
  facet normal 9.951857e-01 9.800657e-02 0.000000e+00
    outer loop
      vertex -1.200300e+01 -1.400000e+01 4.998000e+00
      vertex -1.200300e+01 -1.400000e+01 6.500200e+01
      vertex -1.146500e+01 -1.946300e+01 4.998000e+00
    endloop
  endfacet
  facet normal 0.000000e+00 0.000000e+00 1.000000e+00
    outer loop
      vertex -2.100100e+01 -3.225000e+01 6.500200e+01
      vertex -3.801000e+00 -3.380100e+01 6.500200e+01
      vertex -7.284000e+00 -2.955800e+01 6.500200e+01
    endloop
  endfacet
  facet normal 0.000000e+00 0.000000e+00 1.000000e+00
    outer loop
      vertex -9.871000e+00 -2.471600e+01 6.500200e+01
      vertex -2.100100e+01 -3.225000e+01 6.500200e+01
      vertex -7.284000e+00 -2.955800e+01 6.500200e+01
    endloop
  endfacet
  facet normal 0.000000e+00 0.000000e+00 1.000000e+00
    outer loop
      vertex 4.420000e-01 -3.728400e+01 6.500200e+01
      vertex -2.100100e+01 -3.225000e+01 6.500200e+01
      vertex 1.650000e+01 -5.100100e+01 6.500200e+01
    endloop
  endfacet
  facet normal 0.000000e+00 0.000000e+00 1.000000e+00
    outer loop
      vertex 5.400100e+01 5.250000e+00 6.500200e+01
      vertex 4.346500e+01 -8.537000e+00 6.500200e+01
      vertex 4.400300e+01 -1.400000e+01 6.500200e+01
    endloop
  endfacet
  facet normal 0.000000e+00 0.000000e+00 1.000000e+00
    outer loop
      vertex 5.400100e+01 5.250000e+00 6.500200e+01
      vertex 3.928400e+01 1.558000e+00 6.500200e+01
      vertex 4.187100e+01 -3.284000e+00 6.500200e+01
    endloop
  endfacet
  facet normal 0.000000e+00 0.000000e+00 1.000000e+00
    outer loop
      vertex 4.187100e+01 -3.284000e+00 6.500200e+01
      vertex 4.346500e+01 -8.537000e+00 6.500200e+01
      vertex 5.400100e+01 5.250000e+00 6.500200e+01
    endloop
  endfacet
  facet normal 0.000000e+00 0.000000e+00 1.000000e+00
    outer loop
      vertex -2.100100e+01 -3.225000e+01 6.500200e+01
      vertex 4.420000e-01 -3.728400e+01 6.500200e+01
      vertex -3.801000e+00 -3.380100e+01 6.500200e+01
    endloop
  endfacet
  facet normal 0.000000e+00 0.000000e+00 1.000000e+00
    outer loop
      vertex 4.420000e-01 -3.728400e+01 6.500200e+01
      vertex 1.650000e+01 -5.100100e+01 6.500200e+01
      vertex 5.284000e+00 -3.987100e+01 6.500200e+01
    endloop
  endfacet
  facet normal 0.000000e+00 0.000000e+00 1.000000e+00
    outer loop
      vertex 1.053700e+01 -4.146500e+01 6.500200e+01
      vertex 5.284000e+00 -3.987100e+01 6.500200e+01
      vertex 1.650000e+01 -5.100100e+01 6.500200e+01
    endloop
  endfacet
  facet normal 0.000000e+00 0.000000e+00 1.000000e+00
    outer loop
      vertex 2.146300e+01 -4.146500e+01 6.500200e+01
      vertex 1.600000e+01 -4.200300e+01 6.500200e+01
      vertex 1.650000e+01 -5.100100e+01 6.500200e+01
    endloop
  endfacet
  facet normal 0.000000e+00 0.000000e+00 1.000000e+00
    outer loop
      vertex 5.400100e+01 -3.225000e+01 6.500200e+01
      vertex 3.155800e+01 -3.728400e+01 6.500200e+01
      vertex 1.650000e+01 -5.100100e+01 6.500200e+01
    endloop
  endfacet
  facet normal 0.000000e+00 0.000000e+00 1.000000e+00
    outer loop
      vertex 2.146300e+01 -4.146500e+01 6.500200e+01
      vertex 1.650000e+01 -5.100100e+01 6.500200e+01
      vertex 2.671600e+01 -3.987100e+01 6.500200e+01
    endloop
  endfacet
  facet normal 0.000000e+00 0.000000e+00 1.000000e+00
    outer loop
      vertex 2.671600e+01 -3.987100e+01 6.500200e+01
      vertex 1.650000e+01 -5.100100e+01 6.500200e+01
      vertex 3.155800e+01 -3.728400e+01 6.500200e+01
    endloop
  endfacet
  facet normal 0.000000e+00 0.000000e+00 1.000000e+00
    outer loop
      vertex 3.580100e+01 -3.380100e+01 6.500200e+01
      vertex 3.155800e+01 -3.728400e+01 6.500200e+01
      vertex 5.400100e+01 -3.225000e+01 6.500200e+01
    endloop
  endfacet
  facet normal 0.000000e+00 0.000000e+00 1.000000e+00
    outer loop
      vertex 3.928400e+01 -2.955800e+01 6.500200e+01
      vertex 3.580100e+01 -3.380100e+01 6.500200e+01
      vertex 5.400100e+01 -3.225000e+01 6.500200e+01
    endloop
  endfacet
  facet normal 0.000000e+00 0.000000e+00 1.000000e+00
    outer loop
      vertex 4.187100e+01 -2.471600e+01 6.500200e+01
      vertex 3.928400e+01 -2.955800e+01 6.500200e+01
      vertex 5.400100e+01 -3.225000e+01 6.500200e+01
    endloop
  endfacet
  facet normal 0.000000e+00 0.000000e+00 1.000000e+00
    outer loop
      vertex 4.346500e+01 -1.946300e+01 6.500200e+01
      vertex 4.187100e+01 -2.471600e+01 6.500200e+01
      vertex 5.400100e+01 -3.225000e+01 6.500200e+01
    endloop
  endfacet
  facet normal 1.000000e+00 0.000000e+00 0.000000e+00
    outer loop
      vertex 5.400100e+01 5.250000e+00 6.500200e+01
      vertex 5.400100e+01 -3.225000e+01 6.500200e+01
      vertex 5.400100e+01 -3.225000e+01 0.000000e+00
    endloop
  endfacet
  facet normal 1.000000e+00 0.000000e+00 0.000000e+00
    outer loop
      vertex 5.400100e+01 5.250000e+00 6.500200e+01
      vertex 5.400100e+01 -3.225000e+01 0.000000e+00
      vertex 5.400100e+01 5.250000e+00 0.000000e+00
    endloop
  endfacet
  facet normal 4.472231e-01 8.944224e-01 0.000000e+00
    outer loop
      vertex 5.400100e+01 5.250000e+00 6.500200e+01
      vertex 1.650000e+01 2.400100e+01 0.000000e+00
      vertex 1.650000e+01 2.400100e+01 6.500200e+01
    endloop
  endfacet
  facet normal 4.472231e-01 8.944224e-01 0.000000e+00
    outer loop
      vertex 5.400100e+01 5.250000e+00 0.000000e+00
      vertex 1.650000e+01 2.400100e+01 0.000000e+00
      vertex 5.400100e+01 5.250000e+00 6.500200e+01
    endloop
  endfacet
  facet normal 0.000000e+00 0.000000e+00 -1.000000e+00
    outer loop
      vertex -2.100100e+01 5.250000e+00 0.000000e+00
      vertex 1.650000e+01 2.400100e+01 0.000000e+00
      vertex 1.650000e+01 -5.100100e+01 0.000000e+00
    endloop
  endfacet
  facet normal 0.000000e+00 0.000000e+00 -1.000000e+00
    outer loop
      vertex 5.400100e+01 -3.225000e+01 0.000000e+00
      vertex 1.650000e+01 -5.100100e+01 0.000000e+00
      vertex 1.650000e+01 2.400100e+01 0.000000e+00
    endloop
  endfacet
  facet normal 0.000000e+00 0.000000e+00 -1.000000e+00
    outer loop
      vertex 5.400100e+01 -3.225000e+01 0.000000e+00
      vertex 1.650000e+01 2.400100e+01 0.000000e+00
      vertex 5.400100e+01 5.250000e+00 0.000000e+00
    endloop
  endfacet
  facet normal 0.000000e+00 0.000000e+00 -1.000000e+00
    outer loop
      vertex -2.100100e+01 -3.225000e+01 0.000000e+00
      vertex -2.100100e+01 5.250000e+00 0.000000e+00
      vertex 1.650000e+01 -5.100100e+01 0.000000e+00
    endloop
  endfacet
  facet normal 0.000000e+00 0.000000e+00 1.000000e+00
    outer loop
      vertex -2.100100e+01 5.250000e+00 6.500200e+01
      vertex -9.871000e+00 -3.284000e+00 6.500200e+01
      vertex -7.284000e+00 1.558000e+00 6.500200e+01
    endloop
  endfacet
  facet normal 0.000000e+00 0.000000e+00 1.000000e+00
    outer loop
      vertex -1.146500e+01 -8.537000e+00 6.500200e+01
      vertex -9.871000e+00 -3.284000e+00 6.500200e+01
      vertex -2.100100e+01 5.250000e+00 6.500200e+01
    endloop
  endfacet
  facet normal 0.000000e+00 0.000000e+00 1.000000e+00
    outer loop
      vertex -2.100100e+01 5.250000e+00 6.500200e+01
      vertex -2.100100e+01 -3.225000e+01 6.500200e+01
      vertex -1.200300e+01 -1.400000e+01 6.500200e+01
    endloop
  endfacet
  facet normal 0.000000e+00 0.000000e+00 1.000000e+00
    outer loop
      vertex -2.100100e+01 -3.225000e+01 6.500200e+01
      vertex -9.871000e+00 -2.471600e+01 6.500200e+01
      vertex -1.146500e+01 -1.946300e+01 6.500200e+01
    endloop
  endfacet
  facet normal 0.000000e+00 0.000000e+00 1.000000e+00
    outer loop
      vertex -1.146500e+01 -1.946300e+01 6.500200e+01
      vertex -1.200300e+01 -1.400000e+01 6.500200e+01
      vertex -2.100100e+01 -3.225000e+01 6.500200e+01
    endloop
  endfacet
  facet normal -4.472231e-01 8.944224e-01 0.000000e+00
    outer loop
      vertex -2.100100e+01 5.250000e+00 6.500200e+01
      vertex 1.650000e+01 2.400100e+01 6.500200e+01
      vertex 1.650000e+01 2.400100e+01 0.000000e+00
    endloop
  endfacet
  facet normal -4.472231e-01 8.944224e-01 0.000000e+00
    outer loop
      vertex 1.650000e+01 2.400100e+01 0.000000e+00
      vertex -2.100100e+01 5.250000e+00 0.000000e+00
      vertex -2.100100e+01 5.250000e+00 6.500200e+01
    endloop
  endfacet
  facet normal -1.000000e+00 0.000000e+00 0.000000e+00
    outer loop
      vertex -2.100100e+01 5.250000e+00 0.000000e+00
      vertex -2.100100e+01 -3.225000e+01 0.000000e+00
      vertex -2.100100e+01 -3.225000e+01 6.500200e+01
    endloop
  endfacet
  facet normal -1.000000e+00 0.000000e+00 0.000000e+00
    outer loop
      vertex -2.100100e+01 5.250000e+00 0.000000e+00
      vertex -2.100100e+01 -3.225000e+01 6.500200e+01
      vertex -2.100100e+01 5.250000e+00 6.500200e+01
    endloop
  endfacet
  facet normal -4.472231e-01 -8.944224e-01 0.000000e+00
    outer loop
      vertex 1.650000e+01 -5.100100e+01 6.500200e+01
      vertex -2.100100e+01 -3.225000e+01 6.500200e+01
      vertex 1.650000e+01 -5.100100e+01 0.000000e+00
    endloop
  endfacet
  facet normal -4.472231e-01 -8.944224e-01 0.000000e+00
    outer loop
      vertex 1.650000e+01 -5.100100e+01 0.000000e+00
      vertex -2.100100e+01 -3.225000e+01 6.500200e+01
      vertex -2.100100e+01 -3.225000e+01 0.000000e+00
    endloop
  endfacet
  facet normal 4.472231e-01 -8.944224e-01 0.000000e+00
    outer loop
      vertex 5.400100e+01 -3.225000e+01 6.500200e+01
      vertex 1.650000e+01 -5.100100e+01 6.500200e+01
      vertex 1.650000e+01 -5.100100e+01 0.000000e+00
    endloop
  endfacet
  facet normal 4.472231e-01 -8.944224e-01 0.000000e+00
    outer loop
      vertex 5.400100e+01 -3.225000e+01 6.500200e+01
      vertex 1.650000e+01 -5.100100e+01 0.000000e+00
      vertex 5.400100e+01 -3.225000e+01 0.000000e+00
    endloop
  endfacet
endsolid Default
