solid Default
  facet normal -1.000000e+00 -6.123234e-17 0.000000e+00
    outer loop
      vertex -6.600000e+01 3.199900e+01 2.000000e+01
      vertex -6.600000e+01 3.199900e+01 0.000000e+00
      vertex -6.600000e+01 -5.800100e+01 0.000000e+00
    endloop
  endfacet
  facet normal -1.000000e+00 -6.123234e-17 0.000000e+00
    outer loop
      vertex -6.600000e+01 3.199900e+01 2.000000e+01
      vertex -6.600000e+01 -5.800100e+01 0.000000e+00
      vertex -6.600000e+01 -5.800100e+01 2.000000e+01
    endloop
  endfacet
  facet normal 1.000000e+00 6.123234e-17 0.000000e+00
    outer loop
      vertex 6.000000e+01 3.199900e+01 0.000000e+00
      vertex 6.000000e+01 3.199900e+01 2.000000e+01
      vertex 6.000000e+01 -5.800100e+01 2.000000e+01
    endloop
  endfacet
  facet normal 1.000000e+00 6.123234e-17 0.000000e+00
    outer loop
      vertex 6.000000e+01 3.199900e+01 0.000000e+00
      vertex 6.000000e+01 -5.800100e+01 2.000000e+01
      vertex 6.000000e+01 -5.800100e+01 0.000000e+00
    endloop
  endfacet
  facet normal 6.123234e-17 -1.000000e+00 0.000000e+00
    outer loop
      vertex -6.600000e+01 -5.800100e+01 0.000000e+00
      vertex 6.000000e+01 -5.800100e+01 0.000000e+00
      vertex 6.000000e+01 -5.800100e+01 2.000000e+01
    endloop
  endfacet
  facet normal 0.000000e+00 0.000000e+00 -1.000000e+00
    outer loop
      vertex 6.000000e+01 -5.800100e+01 0.000000e+00
      vertex -6.600000e+01 -5.800100e+01 0.000000e+00
      vertex 6.000000e+01 3.199900e+01 0.000000e+00
    endloop
  endfacet
  facet normal 0.000000e+00 0.000000e+00 -1.000000e+00
    outer loop
      vertex 6.000000e+01 3.199900e+01 0.000000e+00
      vertex -6.600000e+01 -5.800100e+01 0.000000e+00
      vertex -6.600000e+01 3.199900e+01 0.000000e+00
    endloop
  endfacet
  facet normal -1.000000e+00 -6.123234e-17 0.000000e+00
    outer loop
      vertex 5.500300e+01 2.700200e+01 2.000000e+01
      vertex 5.500300e+01 2.700200e+01 4.997000e+00
      vertex 5.500300e+01 -5.300400e+01 4.997000e+00
    endloop
  endfacet
  facet normal -1.000000e+00 -6.123234e-17 0.000000e+00
    outer loop
      vertex 5.500300e+01 2.700200e+01 2.000000e+01
      vertex 5.500300e+01 -5.300400e+01 4.997000e+00
      vertex 5.500300e+01 -5.300400e+01 2.000000e+01
    endloop
  endfacet
  facet normal 1.000000e+00 6.123234e-17 0.000000e+00
    outer loop
      vertex -6.100200e+01 2.700200e+01 4.997000e+00
      vertex -6.100200e+01 2.700200e+01 2.000000e+01
      vertex -6.100200e+01 -5.300400e+01 2.000000e+01
    endloop
  endfacet
  facet normal 1.000000e+00 6.123234e-17 0.000000e+00
    outer loop
      vertex -6.100200e+01 2.700200e+01 4.997000e+00
      vertex -6.100200e+01 -5.300400e+01 2.000000e+01
      vertex -6.100200e+01 -5.300400e+01 4.997000e+00
    endloop
  endfacet
  facet normal -6.123234e-17 1.000000e+00 0.000000e+00
    outer loop
      vertex 6.000000e+01 3.199900e+01 0.000000e+00
      vertex -6.600000e+01 3.199900e+01 0.000000e+00
      vertex 6.000000e+01 3.199900e+01 2.000000e+01
    endloop
  endfacet
  facet normal -6.123234e-17 1.000000e+00 0.000000e+00
    outer loop
      vertex -6.600000e+01 3.199900e+01 2.000000e+01
      vertex 6.000000e+01 3.199900e+01 2.000000e+01
      vertex -6.600000e+01 3.199900e+01 0.000000e+00
    endloop
  endfacet
  facet normal 6.123234e-17 -1.000000e+00 0.000000e+00
    outer loop
      vertex -6.600000e+01 -5.800100e+01 2.000000e+01
      vertex -6.600000e+01 -5.800100e+01 0.000000e+00
      vertex 6.000000e+01 -5.800100e+01 2.000000e+01
    endloop
  endfacet
  facet normal 0.000000e+00 0.000000e+00 1.000000e+00
    outer loop
      vertex 5.500300e+01 2.700200e+01 2.000000e+01
      vertex 6.000000e+01 3.199900e+01 2.000000e+01
      vertex -6.100200e+01 2.700200e+01 2.000000e+01
    endloop
  endfacet
  facet normal 0.000000e+00 0.000000e+00 1.000000e+00
    outer loop
      vertex 6.000000e+01 -5.800100e+01 2.000000e+01
      vertex 5.500300e+01 -5.300400e+01 2.000000e+01
      vertex -6.100200e+01 -5.300400e+01 2.000000e+01
    endloop
  endfacet
  facet normal 0.000000e+00 0.000000e+00 1.000000e+00
    outer loop
      vertex -6.600000e+01 3.199900e+01 2.000000e+01
      vertex -6.100200e+01 2.700200e+01 2.000000e+01
      vertex 6.000000e+01 3.199900e+01 2.000000e+01
    endloop
  endfacet
  facet normal 0.000000e+00 0.000000e+00 1.000000e+00
    outer loop
      vertex 6.000000e+01 3.199900e+01 2.000000e+01
      vertex 5.500300e+01 2.700200e+01 2.000000e+01
      vertex 5.500300e+01 -5.300400e+01 2.000000e+01
    endloop
  endfacet
  facet normal 0.000000e+00 0.000000e+00 1.000000e+00
    outer loop
      vertex 6.000000e+01 3.199900e+01 2.000000e+01
      vertex 5.500300e+01 -5.300400e+01 2.000000e+01
      vertex 6.000000e+01 -5.800100e+01 2.000000e+01
    endloop
  endfacet
  facet normal 6.123234e-17 -1.000000e+00 0.000000e+00
    outer loop
      vertex -6.100200e+01 2.700200e+01 2.000000e+01
      vertex -6.100200e+01 2.700200e+01 4.997000e+00
      vertex 5.500300e+01 2.700200e+01 4.997000e+00
    endloop
  endfacet
  facet normal 6.123234e-17 -1.000000e+00 0.000000e+00
    outer loop
      vertex -6.100200e+01 2.700200e+01 2.000000e+01
      vertex 5.500300e+01 2.700200e+01 4.997000e+00
      vertex 5.500300e+01 2.700200e+01 2.000000e+01
    endloop
  endfacet
  facet normal 0.000000e+00 0.000000e+00 1.000000e+00
    outer loop
      vertex -6.100200e+01 2.700200e+01 2.000000e+01
      vertex -6.600000e+01 3.199900e+01 2.000000e+01
      vertex -6.100200e+01 -5.300400e+01 2.000000e+01
    endloop
  endfacet
  facet normal 0.000000e+00 0.000000e+00 1.000000e+00
    outer loop
      vertex -6.600000e+01 3.199900e+01 2.000000e+01
      vertex -6.600000e+01 -5.800100e+01 2.000000e+01
      vertex -6.100200e+01 -5.300400e+01 2.000000e+01
    endloop
  endfacet
  facet normal 0.000000e+00 0.000000e+00 1.000000e+00
    outer loop
      vertex 6.000000e+01 -5.800100e+01 2.000000e+01
      vertex -6.100200e+01 -5.300400e+01 2.000000e+01
      vertex -6.600000e+01 -5.800100e+01 2.000000e+01
    endloop
  endfacet
  facet normal -6.123234e-17 1.000000e+00 0.000000e+00
    outer loop
      vertex 5.500300e+01 -5.300400e+01 2.000000e+01
      vertex 5.500300e+01 -5.300400e+01 4.997000e+00
      vertex -6.100200e+01 -5.300400e+01 4.997000e+00
    endloop
  endfacet
  facet normal -6.123234e-17 1.000000e+00 0.000000e+00
    outer loop
      vertex 5.500300e+01 -5.300400e+01 2.000000e+01
      vertex -6.100200e+01 -5.300400e+01 4.997000e+00
      vertex -6.100200e+01 -5.300400e+01 2.000000e+01
    endloop
  endfacet
  facet normal 0.000000e+00 0.000000e+00 1.000000e+00
    outer loop
      vertex -6.100200e+01 -5.300400e+01 4.997000e+00
      vertex 5.500300e+01 -5.300400e+01 4.997000e+00
      vertex 5.500300e+01 2.700200e+01 4.997000e+00
    endloop
  endfacet
  facet normal 0.000000e+00 0.000000e+00 1.000000e+00
    outer loop
      vertex -6.100200e+01 -5.300400e+01 4.997000e+00
      vertex 5.500300e+01 2.700200e+01 4.997000e+00
      vertex -6.100200e+01 2.700200e+01 4.997000e+00
    endloop
  endfacet
endsolid Default
